<svg width="630" height="399" fill="none" xmlns="http://www.w3.org/2000/svg"><g clip-path="url(#clip0)"><path d="M509.414 235.258c-5.79 2.135-15.958 3.891-27.727 5.302-32 3.843-75.852 5.208-75.852 5.208s-225.427 18.712-394.38-50.882c0 0-24.575-12.894-1.778-30.248a74.23 74.23 0 0111.152-6.809l.279-.279a59.27 59.27 0 018.373-6.459c8.753-5.664 23.532-12.377 41.523-9.335l443.743 71.83s16.208 13.707-5.333 21.672z" fill="#3F3D56"/><path d="M421 202.703l92.894-65.964 40.942 7.087-40.089 69.76s-92.681.741-93.747-10.883zM187.128 162.627l185.036-51.937 29.825 6.239-83.584 37.632-26.122 29.252-105.155-21.186z" fill="#3F3D56"/><path d="M481.687 240.56c-32 3.843-75.852 5.207-75.852 5.207s-225.427 18.713-394.38-50.881c0 0-24.575-12.894-1.778-30.248l.077.32s36.456 24.661 210.642 45.247l261.291 30.355z" fill="#F16C7D"/><path d="M451.945 239.137l82.725 33.806 20.782-2.307-49.481-37.223s-59.852-12.781-54.026 5.724z" fill="#3F3D56"/><path d="M39.75 168.57c-3.946.065-12.989-6.56-18.612-11.02a59.264 59.264 0 018.373-6.459c4.533 3.482 12.598 9.116 17.084 8.897 6.477-.267-.9 8.475-6.844 8.582z" fill="#F16C7D"/><path d="M415.577 355.995l-53.114 2.781-149.332-100.779-27.722-18.712-13.463-9.092c25.262-21.352 128.331 8.096 128.331 8.096 1.973 1.666 2.602 4.436 2.513 7.496-.172 5.73-2.863 12.455-3.9 14.875-.248.593-.403.908-.403.908l117.09 94.427z" fill="#3F3D56"/><path d="M240.657 303.743l-9.215 5.836 5.582-10.16a9.095 9.095 0 00-5.558-1.987h-.149a10.169 10.169 0 01-1.908-.142l-3.117 1.981 1.334-2.432a11.125 11.125 0 01-5.452-4.152l-5.576 3.559 3.52-6.417c-3.26-3.921-7.657-6.323-12.498-6.323-5.802 0-10.969 3.452-14.305 8.837a10.69 10.69 0 01-9.482 5.101h-.308c-6.406 0-11.597 7.266-11.597 16.233 0 8.968 5.191 16.233 11.597 16.233a8.637 8.637 0 004.036-1.014 16.742 16.742 0 0114.038-.273 14.627 14.627 0 0011.935 0 16.742 16.742 0 0113.908.267 8.723 8.723 0 004 .991c6.406 0 11.597-7.266 11.597-16.233a20.64 20.64 0 00-2.382-9.905z" fill="#fff"/><path opacity=".03" d="M223.323 327.496a17.162 17.162 0 00-9.937 1.08 14.601 14.601 0 01-11.929 0 16.694 16.694 0 00-14.039.272 8.72 8.72 0 01-4.041 1.015c-5.689 0-10.424-5.742-11.407-13.309a10.833 10.833 0 002.844-3.067c3.336-5.379 8.504-8.831 14.305-8.831 5.802 0 10.916 3.381 14.246 8.719a10.965 10.965 0 009.452 5.201h.148c4.527-.012 8.45 3.618 10.358 8.92z" fill="#000"/><path d="M500.803 296.032l-9.214 5.836 5.582-10.159a9.086 9.086 0 00-5.559-1.987h-.148a10.163 10.163 0 01-1.908-.143l-3.117 1.981 1.333-2.431a11.133 11.133 0 01-5.451-4.152l-5.577 3.559 3.52-6.418c-3.259-3.92-7.656-6.322-12.497-6.322-5.802 0-10.969 3.452-14.306 8.837a10.696 10.696 0 01-9.481 5.101h-.308c-6.406 0-11.597 7.265-11.597 16.233 0 8.967 5.191 16.233 11.597 16.233a8.654 8.654 0 004.035-1.014 16.747 16.747 0 0114.039-.273 14.627 14.627 0 0011.935 0 16.743 16.743 0 0113.908.267 8.722 8.722 0 004 .99c6.406 0 11.597-7.265 11.597-16.233a20.632 20.632 0 00-2.383-9.905z" fill="#fff"/><path opacity=".03" d="M483.47 319.786a17.17 17.17 0 00-9.937 1.079 14.586 14.586 0 01-11.929 0 16.71 16.71 0 00-14.039.273 8.708 8.708 0 01-4.041 1.014c-5.689 0-10.424-5.741-11.408-13.309a10.819 10.819 0 002.845-3.066c3.336-5.379 8.504-8.831 14.305-8.831s10.915 3.38 14.246 8.718a10.957 10.957 0 009.481 5.202h.148c4.498-.012 8.421 3.618 10.329 8.92z" fill="#000"/><path d="M500.803 101.497l-9.214 5.836 5.582-10.16a9.094 9.094 0 00-5.559-1.987h-.148a10.188 10.188 0 01-1.908-.142l-3.117 1.98 1.333-2.43a11.125 11.125 0 01-5.451-4.153L476.744 94l3.52-6.417c-3.259-3.92-7.656-6.323-12.497-6.323-5.802 0-10.969 3.452-14.306 8.837a10.699 10.699 0 01-9.481 5.101h-.308c-6.406 0-11.597 7.265-11.597 16.233s5.191 16.233 11.597 16.233a8.633 8.633 0 004.035-1.014 16.747 16.747 0 0114.039-.273 14.638 14.638 0 0011.935.03 16.743 16.743 0 0113.908.267 8.719 8.719 0 004 .99c6.406 0 11.597-7.265 11.597-16.233a20.637 20.637 0 00-2.383-9.934z" fill="#fff"/><path opacity=".03" d="M483.47 125.25a17.17 17.17 0 00-9.937 1.08 14.585 14.585 0 01-11.929 0 16.695 16.695 0 00-14.039.273 8.732 8.732 0 01-4.041 1.014c-5.689 0-10.424-5.741-11.408-13.309a10.822 10.822 0 002.845-3.067c3.336-5.379 8.504-8.831 14.305-8.831s10.915 3.381 14.246 8.719a10.963 10.963 0 009.481 5.201h.148c4.498-.012 8.421 3.618 10.329 8.92z" fill="#000"/><path d="M120.349 80.507l-4.592 2.912 2.785-5.065a4.515 4.515 0 00-2.774-.996h-.071a5.662 5.662 0 01-.954-.072l-1.552.985.663-1.186a5.553 5.553 0 01-2.72-2.07l-2.779 1.78 1.778-3.198a8.129 8.129 0 00-6.234-3.155c-2.892 0-5.47 1.72-7.111 4.407a5.335 5.335 0 01-4.741 2.544h-.154c-3.194 0-5.784 3.63-5.784 8.102s2.59 8.096 5.784 8.096a4.336 4.336 0 002.015-.504 8.333 8.333 0 017.004-.137 7.29 7.29 0 005.926 0 8.337 8.337 0 016.939.137 4.396 4.396 0 001.991.492c3.194 0 5.784-3.624 5.784-8.096a10.33 10.33 0 00-1.203-4.976z" fill="#fff"/><path opacity=".03" d="M111.703 92.357a8.504 8.504 0 00-4.96.54 7.258 7.258 0 01-5.955-.018 8.35 8.35 0 00-7.005.142 4.311 4.311 0 01-2.009.504c-2.838 0-5.203-2.864-5.694-6.636a5.573 5.573 0 001.422-1.53c1.66-2.687 4.237-4.407 7.11-4.407 2.875 0 5.441 1.702 7.112 4.353a5.466 5.466 0 004.741 2.592h.077c2.234 0 4.207 1.815 5.161 4.46z" fill="#000"/><path d="M529.236 370.531l-4.593 2.913 2.786-5.066a4.514 4.514 0 00-2.774-.996h-.071a5.652 5.652 0 01-.954-.071l-1.552.984.663-1.186a5.542 5.542 0 01-2.72-2.07l-2.779 1.78 1.778-3.197a8.107 8.107 0 00-6.234-3.155c-2.892 0-5.47 1.72-7.111 4.406a5.332 5.332 0 01-4.741 2.545h-.154c-3.194 0-5.784 3.629-5.784 8.101 0 4.472 2.59 8.096 5.784 8.096a4.332 4.332 0 002.015-.504 8.317 8.317 0 017.004-.136 7.289 7.289 0 005.926 0 8.341 8.341 0 016.939.136 4.384 4.384 0 001.991.492c3.194 0 5.784-3.624 5.784-8.095a10.345 10.345 0 00-1.203-4.977z" fill="#fff"/><path opacity=".03" d="M520.59 382.381a8.503 8.503 0 00-4.96.54 7.265 7.265 0 01-5.955-.018 8.354 8.354 0 00-7.005.143 4.33 4.33 0 01-2.009.504c-2.838 0-5.203-2.865-5.694-6.637a5.59 5.59 0 001.422-1.53c1.659-2.687 4.237-4.407 7.111-4.407 2.874 0 5.44 1.702 7.111 4.353a5.467 5.467 0 004.741 2.592h.077c2.234 0 4.207 1.815 5.161 4.46z" fill="#000"/><path d="M102.571 385.952l-4.592 2.912 2.785-5.065a4.518 4.518 0 00-2.773-.997h-.072c-.319.004-.638-.02-.953-.071l-1.553.985.664-1.186a5.553 5.553 0 01-2.72-2.07l-2.78 1.779 1.778-3.197a8.125 8.125 0 00-6.234-3.155c-2.892 0-5.47 1.72-7.111 4.407a5.337 5.337 0 01-4.74 2.544h-.155c-3.194 0-5.783 3.63-5.783 8.102s2.59 8.095 5.783 8.095a4.33 4.33 0 002.015-.504 8.338 8.338 0 017.004-.136 7.289 7.289 0 005.926 0 8.33 8.33 0 016.94.136 4.397 4.397 0 001.99.493c3.195 0 5.784-3.624 5.784-8.096a10.327 10.327 0 00-1.203-4.976z" fill="#fff"/><path opacity=".03" d="M93.925 397.802a8.503 8.503 0 00-4.96.54 7.374 7.374 0 01-2.962.628 7.251 7.251 0 01-2.993-.646 8.345 8.345 0 00-7.004.142 4.305 4.305 0 01-2.01.504c-2.838 0-5.202-2.864-5.694-6.636a5.57 5.57 0 001.422-1.531c1.66-2.686 4.237-4.406 7.111-4.406 2.874 0 5.44 1.702 7.111 4.353a5.463 5.463 0 004.741 2.592h.077c2.234 0 4.207 1.815 5.162 4.46z" fill="#000"/><path d="M314.73 20.242l-9.214 5.836 5.582-10.16a9.093 9.093 0 00-5.559-1.986h-.148a10.188 10.188 0 01-1.908-.143l-3.117 1.981 1.333-2.431a11.125 11.125 0 01-5.451-4.152l-5.577 3.559 3.52-6.418c-3.259-3.92-7.656-6.322-12.497-6.322-5.802 0-10.969 3.452-14.306 8.837a10.705 10.705 0 01-9.481 5.1h-.308c-6.406 0-11.597 7.266-11.597 16.234 0 8.967 5.191 16.233 11.597 16.233a8.644 8.644 0 004.035-1.014 16.748 16.748 0 0114.039-.273 14.633 14.633 0 0011.935.03 16.74 16.74 0 0113.908.266 8.715 8.715 0 004 .99c6.406 0 11.597-7.265 11.597-16.232a20.638 20.638 0 00-2.383-9.935z" fill="#fff"/><path opacity=".03" d="M297.397 43.996a17.173 17.173 0 00-9.938 1.08 14.582 14.582 0 01-11.928 0 16.709 16.709 0 00-14.039.272 8.72 8.72 0 01-4.041 1.014c-5.689 0-10.424-5.74-11.408-13.309a10.818 10.818 0 002.845-3.066c3.336-5.38 8.503-8.831 14.305-8.831 5.801 0 10.915 3.38 14.246 8.718a10.96 10.96 0 009.481 5.202h.148c4.498-.012 8.421 3.618 10.329 8.92z" fill="#000"/><path d="M628.791 122.024l-4.592 2.912 2.785-5.065a4.52 4.52 0 00-2.774-.997h-.071a5.55 5.55 0 01-.954-.071l-1.552.985.663-1.186a5.559 5.559 0 01-2.72-2.07l-2.779 1.779 1.778-3.197a8.128 8.128 0 00-6.234-3.155c-2.892 0-5.47 1.72-7.111 4.407a5.34 5.34 0 01-4.741 2.544h-.154c-3.194 0-5.784 3.63-5.784 8.102s2.59 8.096 5.784 8.096a4.345 4.345 0 002.015-.505 8.333 8.333 0 017.004-.136 7.289 7.289 0 005.926 0 8.332 8.332 0 016.939.136 4.398 4.398 0 001.991.493c3.194 0 5.784-3.624 5.784-8.096a10.33 10.33 0 00-1.203-4.976z" fill="#fff"/><path opacity=".03" d="M620.145 133.874a8.511 8.511 0 00-4.96.539 7.355 7.355 0 01-2.963.629 7.266 7.266 0 01-2.963-.646 8.341 8.341 0 00-7.004.142 4.305 4.305 0 01-2.009.504c-2.838 0-5.203-2.864-5.695-6.637a5.579 5.579 0 001.423-1.53c1.659-2.687 4.237-4.406 7.111-4.406 2.874 0 5.44 1.702 7.111 4.353a5.456 5.456 0 004.711 2.592h.077c2.234 0 4.207 1.815 5.161 4.46z" fill="#000"/></g><defs><clipPath id="clip0"><path fill="#fff" d="M0 0h630v399H0z"/></clipPath></defs></svg>