<svg viewBox="0 0 656 335.9" xmlns="http://www.w3.org/2000/svg" xmlns:xlink="http://www.w3.org/1999/xlink"><clipPath id="a"><path d="m0 0h656v335.9h-656z"/></clipPath><linearGradient id="b" gradientTransform="matrix(1 0 0 -1 0 293.8)" gradientUnits="userSpaceOnUse" x1="325.695" x2="325.695" y1="-28.305" y2="63.092"><stop offset="0" stop-color="#808080" stop-opacity=".25"/><stop offset=".54" stop-color="#808080" stop-opacity=".12"/><stop offset="1" stop-color="#808080" stop-opacity=".1"/></linearGradient><g clip-path="url(#a)"><g opacity=".1"><g fill="#3f3d56"><path d="m482.3 330.3c7 0 12.7-7.4 12.7-16.6 0-9.1-5.7-16.6-12.7-16.6s-12.7 7.4-12.7 16.6 5.7 16.6 12.7 16.6z" opacity=".1"/><path d="m492.3 242.9c1.8-3.1 2.7-6.6 2.7-10.1 0-9.2-5.7-16.6-12.7-16.6s-12.7 7.4-12.7 16.6c0 3.5.9 7 2.6 10.1-1.7 3.1-2.6 6.6-2.6 10.1s.9 7 2.6 10.1c-1.7 3.1-2.6 6.6-2.6 10.1s.9 7 2.6 10.1c-1.8 3.1-2.7 6.6-2.6 10.1 0 9.2 5.7 16.6 12.7 16.6s12.7-7.4 12.7-16.6c0-3.5-.9-7-2.6-10.1 1.7-3.1 2.6-6.6 2.6-10.1s-.9-7-2.6-10.1c1.7-3.1 2.6-6.6 2.6-10.1s-.9-7-2.7-10.1z" opacity=".1"/><path d="m482.3 229.1c7 0 12.7-7.4 12.7-16.6 0-9.1-5.7-16.6-12.7-16.6s-12.7 7.4-12.7 16.6 5.7 16.6 12.7 16.6z" opacity=".1"/><path d="m482.3 208.9c7 0 12.7-7.4 12.7-16.6 0-9.1-5.7-16.6-12.7-16.6s-12.7 7.4-12.7 16.6 5.7 16.6 12.7 16.6z" opacity=".1"/></g><path d="m529.8 53.9c1.7-2.2 3.3-4.5 4.7-6.9l-33.3-5.5 36 .3c3.5-7.5 5.3-15.6 5.5-23.9s-1.3-16.5-4.4-24.1l-48.3 25 44.6-32.7c-4.2-7.2-9.8-13.5-16.5-18.4s-14.4-8.4-22.5-10.3-16.5-2-24.7-.5-16 4.7-22.9 9.4-12.8 10.7-17.2 17.7c-4.5 7-7.4 14.9-8.7 23.1s-.9 16.6 1.2 24.6 5.8 15.6 11 22.1c-2.7 3.4-5 7.1-6.9 11l43.2 22.4-46.1-15.5c-3.2 9.5-4.1 19.7-2.3 29.7 1.7 9.9 5.9 19.3 12.1 27.2-7 8.9-11.4 19.7-12.6 31s.8 22.7 5.8 32.9 12.7 18.8 22.4 24.9c9.7 6 20.8 9.2 32.2 9.2s22.6-3.2 32.2-9.2c9.7-6 17.4-14.7 22.4-24.9s7-21.6 5.8-32.9-5.6-22-12.6-31c8.4-10.7 13-23.9 13-37.4s-4.7-26.6-13.1-37.3z" fill="#f16c7d" opacity=".1"/><path d="m421.3 91.4c0 13.6 4.6 26.8 13 37.4-7 8.9-11.4 19.7-12.6 31s.8 22.7 5.8 32.9 12.7 18.8 22.4 24.9c9.7 6 20.8 9.2 32.2 9.2s22.6-3.2 32.2-9.2c9.7-6 17.4-14.7 22.4-24.9s7-21.6 5.8-32.9-5.6-22-12.6-31c8-10.3-108.6-44.2-108.6-37.4z" opacity=".1"/></g><g opacity=".1"><g fill="#3f3d56"><path d="m126.7 312.6c4.3 0 7.7-4.5 7.7-10.1s-3.5-10.1-7.7-10.1c-4.3 0-7.7 4.5-7.7 10.1s3.5 10.1 7.7 10.1z" opacity=".1"/><path d="m132.9 259.4c1.1-1.9 1.6-4 1.6-6.2 0-5.6-3.4-10.1-7.7-10.1s-7.7 4.5-7.7 10.1c0 2.2.5 4.3 1.6 6.2-1.1 1.9-1.6 4-1.6 6.2s.6 4.3 1.6 6.2c-1.1 1.9-1.6 4-1.6 6.2s.6 4.3 1.6 6.2c-1.1 1.9-1.6 4-1.6 6.2 0 5.6 3.4 10.1 7.7 10.1s7.7-4.5 7.7-10.1c0-2.2-.5-4.3-1.6-6.2 1.1-1.9 1.6-4 1.6-6.2s-.6-4.3-1.6-6.2c1.1-1.9 1.6-4 1.6-6.2s-.6-4.3-1.6-6.2z" opacity=".1"/><path d="m126.7 251c4.3 0 7.7-4.5 7.7-10.1s-3.5-10.1-7.7-10.1c-4.3 0-7.7 4.5-7.7 10.1s3.5 10.1 7.7 10.1z" opacity=".1"/><path d="m126.7 238.7c4.3 0 7.7-4.5 7.7-10.1s-3.5-10.1-7.7-10.1c-4.3 0-7.7 4.5-7.7 10.1s3.5 10.1 7.7 10.1z" opacity=".1"/></g><path d="m97.9 144.3c-1.1-1.3-2-2.7-2.9-4.2l20.3-3.3-22 .2c-2.1-4.6-3.2-9.5-3.4-14.5-.1-5 .8-10 2.7-14.7l29.4 15.2-27.1-19.9c2.5-4.4 6-8.2 10-11.2 4.1-3 8.7-5.1 13.7-6.3 4.9-1.1 10.1-1.2 15.1-.3s9.7 2.9 13.9 5.7 7.8 6.5 10.5 10.8 4.5 9.1 5.3 14.1.5 10.1-.8 15a38 38 0 0 1 -6.7 13.5c1.6 2.1 3.1 4.3 4.2 6.7l-26.3 13.6 28.1-9.4c2 5.8 2.5 12 1.4 18.1-1 6-3.6 11.7-7.4 16.6 4.3 5.4 7 12 7.7 18.9s-.5 13.8-3.5 20.1c-3 6.2-7.8 11.5-13.6 15.1-5.9 3.7-12.7 5.6-19.6 5.6s-13.7-1.9-19.6-5.6-10.6-8.9-13.6-15.1-4.2-13.2-3.5-20.1 3.4-13.4 7.7-18.9c-5.1-6.5-7.9-14.5-7.9-22.8-.1-8.3 2.7-16.4 7.9-22.9z" fill="#f16c7d" opacity=".1"/><path d="m163.9 167.1c0 8.3-2.8 16.3-7.9 22.8 4.3 5.4 7 12 7.7 18.9s-.5 13.8-3.5 20.1c-3 6.2-7.8 11.5-13.6 15.1-5.9 3.7-12.7 5.6-19.6 5.6s-13.7-1.9-19.6-5.6-10.6-8.9-13.6-15.1-4.2-13.2-3.5-20.1 3.4-13.4 7.7-18.9c-5.1-6.2 65.9-26.9 65.9-22.8z" opacity=".1"/></g><g opacity=".1"><g fill="#3f3d56"><path d="m300.6 321.4c5.7 0 10.3-6 10.3-13.5 0-7.4-4.6-13.5-10.3-13.5s-10.3 6-10.3 13.5c0 7.4 4.6 13.5 10.3 13.5z" opacity=".1"/><path d="m308.8 250.2c1.4-2.5 2.2-5.4 2.2-8.2 0-7.4-4.6-13.5-10.3-13.5s-10.3 6-10.3 13.5c0 2.9.7 5.7 2.2 8.2-1.4 2.5-2.2 5.4-2.2 8.2 0 2.9.7 5.7 2.2 8.2-1.4 2.5-2.2 5.4-2.2 8.2 0 2.9.7 5.7 2.2 8.2-1.4 2.5-2.2 5.4-2.2 8.2 0 7.4 4.6 13.5 10.3 13.5s10.3-6 10.3-13.5c0-2.9-.7-5.7-2.2-8.2 1.4-2.5 2.2-5.4 2.2-8.2 0-2.9-.7-5.7-2.2-8.2 1.4-2.5 2.2-5.4 2.2-8.2s-.8-5.7-2.2-8.2z" opacity=".1"/><path d="m300.6 239c5.7 0 10.3-6 10.3-13.5 0-7.4-4.6-13.5-10.3-13.5s-10.3 6-10.3 13.5c0 7.4 4.6 13.5 10.3 13.5z" opacity=".1"/><path d="m300.6 222.5c5.7 0 10.3-6 10.3-13.5s-4.6-13.5-10.3-13.5-10.3 6-10.3 13.5 4.6 13.5 10.3 13.5z" opacity=".1"/></g><path d="m262 96.2c-1.4-1.8-2.7-3.7-3.8-5.6l27.1-4.4-29.3.2c-2.8-6.1-4.4-12.7-4.5-19.5-.2-6.7 1.1-13.4 3.6-19.6l39.4 20.4-36.4-26.7c3.4-5.9 8-11 13.4-15 5.5-4 11.7-6.9 18.3-8.4s13.5-1.7 20.2-.4c6.7 1.2 13 3.9 18.7 7.7 5.6 3.8 10.4 8.7 14.1 14.5 3.6 5.7 6 12.2 7.1 18.9 1 6.7.7 13.6-1.1 20.1-1.7 6.6-4.8 12.7-9 18 2.2 2.8 4.1 5.8 5.6 9l-35.2 18.3 37.6-12.6c2.6 7.8 3.3 16.1 1.9 24.2s-4.8 15.7-9.9 22.2c5.7 7.3 9.3 16 10.3 25.2s-.6 18.5-4.7 26.8-10.4 15.4-18.2 20.3c-7.9 4.9-17 7.5-26.2 7.5-9.3 0-18.4-2.6-26.2-7.5-7.9-4.9-14.2-11.9-18.2-20.3-4.1-8.3-5.7-17.6-4.7-26.8s4.6-17.9 10.3-25.2c-6.9-8.7-10.6-19.4-10.6-30.5s3.5-22.1 10.4-30.8z" fill="#f16c7d" opacity=".1"/><path d="m350.3 126.7c0 11.1-3.7 21.8-10.6 30.5 5.7 7.3 9.3 16 10.3 25.2s-.6 18.5-4.7 26.8-10.4 15.4-18.2 20.3c-7.9 4.9-17 7.5-26.2 7.5-9.3 0-18.4-2.6-26.2-7.5-7.9-4.9-14.2-11.9-18.2-20.3-4.1-8.3-5.7-17.6-4.7-26.8s4.6-17.9 10.3-25.2c-6.8-8.4 88.2-36 88.2-30.5z" opacity=".1"/></g><path d="m656 320.2c0 3.9-28.8 7.5-76.5 10.3-8.7.5-18 1-27.8 1.4-8.5.4-17.4.7-26.8 1.1-9 .3-18.4.6-28.2.9-30.7.9-64.7 1.5-100.8 1.8-8.8.1-17.6.1-26.6.2-9.4 0-18.8.1-28.4.1-174 0-315-7-315-15.7s141-15.7 315-15.7c74.9 0 143.7 1.3 197.8 3.5l5.9.2c68.2 2.7 111.4 7.1 111.4 11.9z" fill="#3f3d56"/><path d="m656 320.2c0 3.9-28.8 7.5-76.5 10.3-8.7.5-18 1-27.8 1.4-8.5.4-17.4.7-26.8 1.1-9 .3-18.4.6-28.2.9-30.7.9-64.7 1.5-100.8 1.8-8.8.1-17.6.1-26.6.2-9.4 0-18.8.1-28.4.1-174 0-315-7-315-15.7s141-15.7 315-15.7c74.9 0 143.7 1.3 197.8 3.5l5.9.2c68.2 2.7 111.4 7.1 111.4 11.9z" opacity=".15"/><path d="m630 317.4c0 3.3-28.8 6.3-76.5 8.6-8.7.4-18 .8-27.8 1.2-8.5.3-17.4.6-26.8.9-9 .3-18.4.5-28.2.8-30.7.7-64.7 1.3-100.8 1.5-8.8.1-17.6.1-26.6.1-9.4 0-18.8.1-28.4.1-174 0-315-5.9-315-13.2s141-13.2 315-13.2c74.9 0 143.7 1.1 197.7 2.9l5.9.2c68.3 2.5 111.5 6.1 111.5 10.1zm-548.6-119.6-7.9-24.2 189.4-2.1 7.8 23.9z" fill="#3f3d56"/><path d="m81.4 197.8-7.9-24.2 189.4-2.1 7.8 23.9z" opacity=".15"/><path d="m68.7 197.8-7.9-24.2 189.4-2.1 7.8 23.9zm323.4-37.2c-19.6 0-35-7.8-46.3-23.3s-16.9-34.3-16.9-56.4c0-22.2 5.5-41 16.4-56.2 10.9-15.3 26.3-22.9 46.2-22.9 21.1 0 37 8.1 47.6 24.2 10.7 16.1 16 34.7 16 55.9 0 21-5.5 39.4-16.6 55.1-11.1 15.8-26.6 23.7-46.4 23.6zm.5-17.4c12.9 0 22.5-5.6 28.9-16.8s9.6-25.3 9.6-42.4c0-19-3.3-34.5-9.8-46.6s-16.5-18.1-30-18.1c-25.6 0-38.5 20.3-38.5 60.9 0 42 13.3 63 39.8 63zm6.5 167.1h-28.3l185.4-305.3h27.8zm164 3.1c-19.9 0-35.4-7.8-46.5-23.5-11.1-15.6-16.7-34.4-16.7-56.4 0-22.1 5.4-40.7 16.3-56 10.8-15.3 26.3-22.9 46.3-22.9 20.9 0 36.7 8.1 47.3 24.2s15.9 34.7 15.9 55.9c0 20.9-5.5 39.2-16.5 55s-26.4 23.7-46.1 23.7zm.4-17.9c12.8 0 22.4-5.5 28.7-16.5s9.5-25.1 9.5-42.2c0-18.3-3.2-33.7-9.6-46.1s-16.4-18.6-30-18.6c-25.8 0-38.7 20.3-38.7 60.9 0 41.7 13.4 62.5 40.1 62.5z" fill="#3f3d56"/><path d="m392.1 160.6c-19.6 0-35-7.8-46.3-23.3s-16.9-34.3-16.9-56.4c0-22.2 5.5-41 16.4-56.2 10.9-15.3 26.3-22.9 46.2-22.9 21.1 0 37 8.1 47.6 24.2 10.7 16.1 16 34.7 16 55.9 0 21-5.5 39.4-16.6 55.1-11.1 15.8-26.6 23.7-46.4 23.6zm.5-17.4c12.9 0 22.5-5.6 28.9-16.8s9.6-25.3 9.6-42.4c0-19-3.3-34.5-9.8-46.6s-16.5-18.1-30-18.1c-25.6 0-38.5 20.3-38.5 60.9 0 42 13.3 63 39.8 63zm6.5 167.1h-28.3l185.4-305.3h27.8zm164 3.1c-19.9 0-35.4-7.8-46.5-23.5-11.1-15.6-16.7-34.4-16.7-56.4 0-22.1 5.4-40.7 16.3-56 10.8-15.3 26.3-22.9 46.3-22.9 20.9 0 36.7 8.1 47.3 24.2s15.9 34.7 15.9 55.9c0 20.9-5.5 39.2-16.5 55s-26.4 23.7-46.1 23.7zm.4-17.9c12.8 0 22.4-5.5 28.7-16.5s9.5-25.1 9.5-42.2c0-18.3-3.2-33.7-9.6-46.1s-16.4-18.6-30-18.6c-25.8 0-38.7 20.3-38.7 60.9 0 41.7 13.4 62.5 40.1 62.5z" fill="#3f3d56"/><path d="m392.1 160.6c-19.6 0-35-7.8-46.3-23.3s-16.9-34.3-16.9-56.4c0-22.2 5.5-41 16.4-56.2 10.9-15.3 26.3-22.9 46.2-22.9 21.1 0 37 8.1 47.6 24.2 10.7 16.1 16 34.7 16 55.9 0 21-5.5 39.4-16.6 55.1-11.1 15.8-26.6 23.7-46.4 23.6zm.5-17.4c12.9 0 22.5-5.6 28.9-16.8s9.6-25.3 9.6-42.4c0-19-3.3-34.5-9.8-46.6s-16.5-18.1-30-18.1c-25.6 0-38.5 20.3-38.5 60.9 0 42 13.3 63 39.8 63zm6.5 167.1h-28.3l185.4-305.3h27.8zm164 3.1c-19.9 0-35.4-7.8-46.5-23.5-11.1-15.6-16.7-34.4-16.7-56.4 0-22.1 5.4-40.7 16.3-56 10.8-15.3 26.3-22.9 46.3-22.9 20.9 0 36.7 8.1 47.3 24.2s15.9 34.7 15.9 55.9c0 20.9-5.5 39.2-16.5 55s-26.4 23.7-46.1 23.7zm.4-17.9c12.8 0 22.4-5.5 28.7-16.5s9.5-25.1 9.5-42.2c0-18.3-3.2-33.7-9.6-46.1s-16.4-18.6-30-18.6c-25.8 0-38.7 20.3-38.7 60.9 0 41.7 13.4 62.5 40.1 62.5z" opacity=".15"/><path d="m374.3 160.6c-19.6 0-35-7.8-46.3-23.3-11.3-15.4-17-34.2-17-56.3 0-22.2 5.5-41 16.4-56.2 10.9-15.3 26.3-22.9 46.2-22.9 21.1 0 37 8.1 47.6 24.2 10.7 16.1 16 34.7 16 55.9 0 21-5.5 39.4-16.6 55.1-11 15.7-26.5 23.6-46.3 23.5zm.5-17.4c12.9 0 22.5-5.6 28.9-16.8s9.6-25.3 9.6-42.4c0-19-3.3-34.5-9.8-46.6s-16.5-18.1-30-18.1c-25.6 0-38.5 20.3-38.5 60.9 0 42 13.3 63 39.8 63zm6.5 167.1h-28.3l185.4-305.3h27.8zm164 3.1c-19.9 0-35.4-7.8-46.5-23.5-11.1-15.6-16.7-34.4-16.7-56.4 0-22.1 5.4-40.7 16.3-56 10.8-15.3 26.3-22.9 46.3-22.9 20.9 0 36.7 8.1 47.3 24.2s15.9 34.7 15.9 55.9c0 20.9-5.5 39.2-16.5 55s-26.4 23.7-46.1 23.7zm.4-17.9c12.8 0 22.4-5.5 28.7-16.5s9.5-25.1 9.5-42.2c0-18.3-3.2-33.7-9.6-46.1s-16.4-18.6-30-18.6c-25.8 0-38.7 20.3-38.7 60.9 0 41.7 13.4 62.5 40.1 62.5z" fill="#3f3d56"/><path d="m436.2 317.9c2.4-4.4-.3-9.7-3.4-13.6s-6.9-8-6.8-12.9c.1-7.1 7.7-11.4 13.8-15.1 4.5-2.8 8.7-6.1 12.4-9.9 1.6-1.5 2.8-3.2 3.8-5.1 1.3-2.8 1.2-6 1.1-9-.3-10.2-.8-20.4-1.5-30.5" fill="none" stroke="#3f3d56" stroke-miterlimit="10" stroke-width="4"/><path d="m467.2 221c-.1-1.9-.6-3.7-1.6-5.3s-2.3-2.9-4-3.9l-2.5 4.9.1-6c-1.2-.3-2.4-.5-3.7-.4-2.2.1-4.3.9-6.1 2.2s-3.1 3.1-3.9 5.2c-.7 2.1-.9 4.3-.3 6.5.5 2.1 1.7 4.1 3.3 5.6s3.7 2.5 5.9 2.8 4.4 0 6.4-.9 3.7-2.4 4.8-4.3c1.1-2 1.7-4.2 1.6-6.4zm-19.9 75.5c-1.2 2.3-3.1 4.1-5.4 5.1s-5 1.2-7.4.5c-2.5-.7-4.6-2.2-6.1-4.3s-2.2-4.6-2.1-7.2c.2-2.6 1.2-5 2.9-6.9s4.1-3.1 6.6-3.5 5.1.1 7.3 1.4 3.9 3.3 4.8 5.7l-7 5.7 7.7-1.8c-.1 1.9-.5 3.7-1.3 5.3zm-5.5-21.7c-1.5.1-2.9-.2-4.3-.6s-2.6-1.3-3.7-2.2c-1.1-1-2-2.2-2.6-3.5s-1-2.8-1-4.2c-.1-1.7.2-3.5 1-5.1.7-1.5 1.7-2.8 2.9-3.9s2.7-1.9 4.3-2.3l-.1 4.6 2.5-5c3-.1 5.9.9 8 2.9 2.2 2 3.5 4.8 3.6 7.7.1 3-.9 5.8-2.9 8-2.1 2.2-4.8 3.5-7.7 3.6zm27.1-18c-1.5.1-3-.1-4.4-.6s-2.7-1.2-3.8-2.2-2-2.2-2.6-3.5-1-2.8-1.1-4.3.2-3 .7-4.4 1.3-2.7 2.3-3.8 2.2-2 3.6-2.6 2.8-.9 4.3-1c2.1-.1 4.2.4 6 1.4l-2 5.4 4.1-3.9c2.2 2 3.5 4.7 3.6 7.7.1 1 0 2.1-.3 3.1-.6 2.4-1.9 4.5-3.7 6-2 1.7-4.3 2.6-6.7 2.7z" fill="#f16c7d"/><path d="m465.7 224c-2.6.3-5.1 1.1-7.7 1.2-2.6.2-5.4-.5-7.1-2.5-.9-1.1-1.3-2.4-2.1-3.6-.7-1.1-1.7-2-2.8-2.6-.7 1.4-1.1 3-1.2 4.5-.1 1.6.2 3.2.8 4.6.6 1.5 1.5 2.8 2.6 3.9s2.5 1.9 4 2.5c1.5.5 3.1.7 4.7.6s3.1-.6 4.5-1.4 2.6-1.8 3.5-3.1 1.6-2.7 1.9-4.3c-.3.1-.7.2-1.1.2zm3.2 32.8c-1.9.1-3.8-.3-5.6-1.2-1.7-.9-3.2-2.2-4.3-3.8s-1.7-3.4-1.8-5.4c-.1-1.9.2-3.8 1-5.6.9.6 1.6 1.4 2.2 2.2.8 1.2 1.3 2.6 2.2 3.7 1.7 2 4.7 2.7 7.4 2.6s5.3-.9 8-1.1c.4 0 .8-.1 1.1-.1-.6 2.4-1.9 4.5-3.7 6-1.8 1.7-4.1 2.6-6.5 2.7zm-27.1 18c-1.5.1-2.9-.2-4.3-.6s-2.6-1.3-3.7-2.2c-1.1-1-2-2.2-2.6-3.5s-1-2.8-1-4.2c-.1-1.7.2-3.5 1-5.1.9.6 1.7 1.4 2.4 2.3.9 1.2 1.4 2.6 2.4 3.8 1.9 2.1 5.1 2.8 7.9 2.8 2.9-.1 5.4-.7 8.2-.9-.7 2.2-2 4.1-3.8 5.5-2 1.2-4.2 2-6.5 2.1zm5.5 21.7c-1.3 2.5-3.5 4.5-6.2 5.5s-5.7.8-8.3-.3-4.7-3.3-5.8-5.9-1.1-5.6-.1-8.3c.9.6 1.7 1.3 2.4 2.2 1.1 1.3 1.8 2.8 3 4 2.3 2.2 6 3.2 9.3 3.2 1.9-.1 3.8-.2 5.7-.4z" opacity=".1"/><path d="m609 317.3c2.4-4.4-.3-9.7-3.4-13.6s-6.9-8-6.8-12.9c.1-7.1 7.7-11.4 13.8-15.1 4.5-2.8 8.7-6.1 12.4-9.9 1.6-1.5 2.8-3.2 3.8-5.1 1.3-2.8 1.2-6 1.1-9-.3-10.2-.8-20.4-1.5-30.5" fill="none" stroke="#3f3d56" stroke-miterlimit="10" stroke-width="4"/><path d="m639.9 220.5c-.1-1.9-.6-3.7-1.6-5.3s-2.3-2.9-4-3.9l-2.5 4.9.1-6c-1.2-.3-2.4-.5-3.7-.4-2.2.1-4.3.9-6.1 2.2s-3.1 3.1-3.9 5.2c-.7 2.1-.9 4.3-.3 6.5.5 2.1 1.7 4.1 3.3 5.6s3.7 2.5 5.9 2.8 4.4 0 6.4-.9 3.7-2.4 4.8-4.3c1.2-2 1.7-4.2 1.6-6.4zm-19.9 75.4c-1.2 2.3-3.1 4.1-5.4 5.1s-5 1.2-7.4.5c-2.5-.7-4.6-2.2-6.1-4.3s-2.2-4.6-2.1-7.2c.2-2.5 1.2-5 2.9-6.9s4.1-3.1 6.6-3.5 5.1.1 7.3 1.4 3.9 3.3 4.8 5.7l-7 5.7 7.7-1.8c0 2-.5 3.7-1.3 5.3zm-5.5-21.6c-1.5.1-2.9-.2-4.3-.6s-2.6-1.3-3.7-2.2c-1.1-1-2-2.2-2.6-3.5s-1-2.8-1-4.2c-.1-1.7.2-3.5 1-5.1.7-1.5 1.7-2.8 2.9-3.9s2.7-1.9 4.3-2.3l-.1 4.6 2.5-5c1.5-.1 2.9.2 4.3.6 1.4.5 2.6 1.3 3.7 2.2 1.1 1 2 2.2 2.6 3.5s1 2.8 1 4.2c.1 1.5-.2 2.9-.6 4.3-.5 1.4-1.3 2.6-2.2 3.7-1 1.1-2.2 2-3.5 2.6-1.4.6-2.8 1-4.3 1.1zm27.1-18c-1.5.1-3-.1-4.4-.6s-2.7-1.2-3.8-2.2-2-2.2-2.6-3.5-1-2.8-1.1-4.3.2-3 .7-4.4 1.3-2.7 2.3-3.8 2.2-2 3.6-2.6 2.8-.9 4.3-1c2.1-.1 4.2.4 6 1.4l-2 5.4 4.1-3.9c2.2 2 3.5 4.7 3.6 7.7 0 1 0 2.1-.3 3.1-.6 2.4-1.9 4.5-3.7 6-1.9 1.6-4.2 2.5-6.7 2.7z" fill="#f16c7d"/><path d="m638.4 223.4c-2.6.3-5.1 1.1-7.7 1.2-2.6.2-5.4-.5-7.1-2.5-.9-1.1-1.3-2.4-2.1-3.6-.7-1.1-1.7-2-2.8-2.6-.7 1.4-1.1 3-1.2 4.5-.1 1.6.2 3.2.8 4.6.6 1.5 1.5 2.8 2.6 3.9s2.5 1.9 4 2.5c1.5.5 3.1.7 4.7.6s3.1-.6 4.5-1.4 2.6-1.8 3.5-3.1 1.6-2.7 1.9-4.3c-.2.2-.6.2-1.1.2zm3.2 32.9c-1.9.1-3.8-.3-5.6-1.2-1.7-.9-3.2-2.2-4.3-3.8s-1.7-3.4-1.8-5.4c-.1-1.9.2-3.8 1-5.6.9.6 1.6 1.4 2.2 2.2.8 1.2 1.3 2.6 2.2 3.7 1.7 2 4.7 2.7 7.4 2.6s5.3-.9 8-1.1c.4 0 .8-.1 1.1-.1-.6 2.4-1.9 4.5-3.7 6-1.7 1.6-4 2.5-6.5 2.7zm-27.1 18c-1.5.1-2.9-.2-4.3-.6s-2.6-1.3-3.7-2.2c-1.1-1-2-2.2-2.6-3.5s-1-2.8-1-4.2c-.1-1.7.2-3.5 1-5.1.9.6 1.7 1.4 2.4 2.3.9 1.2 1.4 2.6 2.4 3.8 1.9 2.1 5.1 2.8 7.9 2.8 2.8-.1 5.4-.7 8.2-.9-.7 2.2-2 4.1-3.8 5.5-2 1.1-4.2 1.9-6.5 2.1zm5.5 21.6c-1.3 2.5-3.5 4.5-6.2 5.5s-5.7.8-8.3-.3c-2.6-1.2-4.7-3.3-5.8-5.9s-1.1-5.6-.1-8.3c.9.6 1.7 1.3 2.5 2.2 1.1 1.3 1.8 2.8 3 4 2.3 2.2 6 3.2 9.3 3.2 1.8-.1 3.7-.2 5.6-.4z" opacity=".1"/><path d="m63.1 309.9c-2.4-4.4.3-9.7 3.4-13.6s6.9-8 6.8-12.9c-.1-7.1-7.7-11.4-13.8-15.1-4.5-2.8-8.7-6.1-12.4-9.9-1.6-1.5-2.8-3.2-3.8-5.1-1.3-2.8-1.2-6-1.1-9 .3-10.2.8-20.4 1.5-30.6" fill="none" stroke="#3f3d56" stroke-miterlimit="10" stroke-width="4"/><path d="m32.1 213c.1-1.9.6-3.7 1.6-5.3s2.3-2.9 4-3.9l2.5 4.9-.1-6c1.2-.3 2.4-.5 3.7-.4 2.2.1 4.3.9 6.1 2.2s3.1 3.1 3.9 5.2c.7 2.1.9 4.3.3 6.5-.5 2.1-1.7 4.1-3.3 5.6s-3.7 2.5-5.9 2.8-4.4 0-6.4-.9-3.7-2.4-4.8-4.3c-1.1-2-1.7-4.2-1.6-6.4zm19.9 75.5c1.2 2.3 3.1 4.1 5.4 5.1s5 1.2 7.4.5c2.5-.7 4.6-2.2 6.1-4.3s2.2-4.6 2.1-7.2c-.2-2.5-1.2-5-2.9-6.9s-4.1-3.1-6.6-3.5-5.1.1-7.3 1.4-3.9 3.3-4.8 5.7l7 5.7-7.7-1.8c.1 1.9.5 3.7 1.3 5.3zm5.6-21.7c1.5.1 2.9-.2 4.3-.6 1.4-.5 2.6-1.3 3.7-2.2 1.1-1 2-2.2 2.6-3.5s1-2.8 1-4.2c.1-1.7-.2-3.5-1-5.1-.7-1.5-1.7-2.8-2.9-3.9s-2.7-1.9-4.3-2.3l.1 4.6-2.5-5c-3-.1-5.9.9-8 2.9-2.2 2-3.5 4.8-3.6 7.7-.1 3 .9 5.8 2.9 8 2 2.1 4.8 3.5 7.7 3.6zm-27.2-18c1.5.1 3-.1 4.4-.6s2.7-1.2 3.8-2.2 2-2.2 2.6-3.5 1-2.8 1.1-4.3-.2-3-.7-4.4-1.3-2.7-2.3-3.8-2.2-2-3.6-2.6-2.8-.9-4.3-1c-2.1-.1-4.1.4-6 1.4l2 5.4-4.1-3.9c-2.2 2-3.5 4.7-3.6 7.7-.1 1 0 2.1.3 3.1.6 2.4 1.9 4.5 3.7 6 2 1.7 4.3 2.6 6.7 2.7z" fill="#f16c7d"/><path d="m33.6 216c2.6.3 5.1 1.1 7.7 1.2 2.6.2 5.4-.5 7.1-2.5.9-1.1 1.3-2.4 2.1-3.6.7-1.1 1.7-2 2.8-2.6.7 1.4 1.1 3 1.2 4.5.1 1.6-.2 3.2-.8 4.6-.6 1.5-1.5 2.8-2.6 3.9s-2.5 1.9-4 2.5c-1.5.5-3.1.7-4.7.6s-3.1-.6-4.5-1.4-2.6-1.8-3.5-3.1-1.6-2.7-1.9-4.3c.3.1.7.2 1.1.2zm-3.2 32.8c1.9.1 3.8-.3 5.6-1.2 1.7-.9 3.2-2.2 4.3-3.8s1.7-3.4 1.8-5.4c.1-1.9-.2-3.8-1-5.6-.9.6-1.6 1.4-2.2 2.2-.8 1.2-1.3 2.6-2.2 3.7-1.7 2-4.7 2.7-7.4 2.6s-5.3-.9-8-1.1c-.4 0-.8-.1-1.1-.1.6 2.4 1.9 4.5 3.7 6 1.8 1.7 4.1 2.6 6.5 2.7zm27.2 18c1.5.1 2.9-.2 4.3-.6 1.4-.5 2.6-1.3 3.7-2.2 1.1-1 2-2.2 2.6-3.5s1-2.8 1-4.2c.1-1.7-.2-3.5-1-5.1-.9.6-1.7 1.4-2.4 2.3-.9 1.2-1.4 2.6-2.4 3.8-1.9 2.1-5.1 2.8-7.9 2.8-2.8-.1-5.4-.7-8.2-.9.7 2.2 2 4.1 3.8 5.5 2 1.2 4.2 2 6.5 2.1zm-5.6 21.7c1.3 2.5 3.5 4.5 6.2 5.5s5.7.8 8.3-.3 4.7-3.3 5.8-5.9 1.1-5.6.1-8.3c-.9.6-1.7 1.3-2.5 2.2-1.1 1.3-1.8 2.8-3 4-2.3 2.2-6 3.2-9.3 3.2-1.8-.1-3.7-.2-5.6-.4z" opacity=".1"/><path d="m386.5 256.3c0-1.4-.3-2.8-.9-4s-1.5-2.3-2.6-3.2c-.1-5.2-3.9-9.5-8.7-10.2-.4-1.8-1.2-3.4-2.4-4.8a9.49 9.49 0 0 0 -4.5-2.9c-.4-.1-.9-.2-1.3-.3h-1.4c-4.9 0-9 3.8-9.9 8.7-3.2-.7-6.1.2-6.6 2.2-.1.5-.1 1.1.1 1.6.5 1.6 2.3 3 4.7 3.8l.3.1c.2 0 .3.1.5.1h.1c-.9 1.9-1 4-.3 5.9.7 2 2 3.6 3.9 4.5-.1 0-.1.1-.2.1-.3.3-.5.6-.7 1-.6 1-1 2.1-1.3 3.2-.2 1-.3 2-.6 2.9-.5 1.7-1.9 3.2-2 5-.1.8.1 1.8-.5 2.3-.1.1-.3.2-.5.3-.4.3-.8.6-1 1.1-.2.3-.4.7-.7.9-.5.4-1.4.4-1.6 1-.3.6.4 1.3.3 2-.1.5-.7.8-1.1 1.1-.5.5-.8 1.2-1 1.8-.9.2-1.7.1-2.6-.1s-1.6-.6-2.3-1.2c.2.6.4 1.2.5 1.8-.7-.7-1.8-.9-2.6-1.3-1.1-.5-2-1.2-2.8-2.1l1.5-.2-6.7-10.1-2-.4 1.8 3.4c-.1.1-.3.2-.4.3s-.2.3-.2.4c-.1.4-.1.8-.1 1.1.1.9.2 1.8.5 2.7l.5 2.4c0 .2.1.4.2.7-.7 0-1.3.1-2 .2-1.3-.5-2.7-.8-4.1-1-.3-.1-.6 0-.9 0-.3.2-.6.4-.9.7-1.1 1.3-2.2 2.8-3 4.3-3.6 6.2-8.4 11.6-12.8 17.2-3.1 1.3-6.2 2.4-9.3 3.6l-6.7 2.5c-1.3.5-2.7 1-4.1.9-.6 0-1.4-.1-1.8.4-.2.3-.3.6-.4.9-.2 0-.5.1-.7.1-.4-1.1-.8-2.2-1.6-2.9-.2 0-.3.1-.5.2-.1.1-.2.2-.3.4-.2.3-.3.6-.4.9-.4.5-1 .8-1.4 1.2s-.7 1.1-1.2 1.6c-.7.5-1.5.8-2.3.9-1.2.3-2.4.7-3.6 1.4-.4.3-.9.5-1.3.6-.5.1-1 .1-1.5.1l-4.1-.1h-.9c-.4.1-.7.4-.9.7s-.3.7-.3 1.1.2.8.4 1.1.5.6.8.9c.6.4 1.3.8 2 1 3.1 1.2 6.3 2.1 9.5 2.8v.7c2.2 1.1 4.7 1.7 7.2 1.7.2 0 .4 0 .5-.1.2-.2.4-.4.5-.7.8-2.2 1.2-4.6 1.4-6.9.4 0 .9-.1 1.3-.3 1.2-.3 2.4.5 3.7.6 1.5.2 3-.7 4.5-1.3.2-.1.4-.1.6-.2-.4.5-.9 1-1.5 1.4s-1.3.8-1.9 1.2c-.5.5-1 .9-1.6 1.2-.4.2-.8.3-1.2.5-.6.2-1.2.5-1.7.9-.5.3-.9.7-1.2 1.1-.2.2-.2.5-.3.7 0 .3 0 .5.1.8.1.2.3.5.5.6.2.2.5.3.7.3.5.1 1 .1 1.5 0 1.9-.1 3.8-.3 5.7-.5l2.4-.3c.4-.1.8-.2 1.3-.3.7-.2 1.4-.3 2.2-.3.2 0 .4 0 .6.1.4.1.8.6 1.2.7.3 0 .6 0 .9-.1 1.4-.3 2.8-.5 4.3-.5.6 0 1.4-.2 1.7-.7.4-.7-.2-1.5-.5-2.3-.1-.5-.2-1-.2-1.5-.1-1.2-.5-2.5-1.1-3.6-.3-.5-.6-1.1-.8-1.6 2.7-1 5.4-2.4 7.8-4 1.4-.9 2.9-1.8 4.5-2.1 1.9-.4 3.8.1 5.6.6 4.4 1.3 8.7 2.8 12.9 4.5 2 .8 4 1.7 6.1 2.3.6.8 1.3 1.5 2.2 2.1 1.4.9 3.1 1.1 4.7 1.3 2.2.2 4.4.3 6.6.2 1.7 0 3.4-.1 4.9-.9.4-.2.7-.4 1-.7 1.1.2 2.3-.4 3.2-1.2 1.2-1 2.1-2.4 2.5-3.9.5-2.1.1-4.5 1.4-6.2.3-.5.8-.8 1.1-1.3.4-.6.6-1.3.6-2.1l.1-.1c.3-.7.5-1.4.6-2.1.2-.6.3-1.1.6-1.6.6-1.6 1.2-3.2 1.7-4.9.3-1.1.6-2.2.8-3.3l.3-2.7c.1-1.4.4-2.8.8-4.2 1.1-3.2 1.8-6.6 1.9-10v-.2c1.7-.2 3.2-1 4.3-2.2 1.1-1.3 1.7-2.9 1.7-4.5 0-1-.2-2-.6-2.9.4-1.4.9-3 .8-4.5zm-32.4 39.3c.1.3.2.7.3 1-.5-.5-1-1.1-1.6-1.6.2.1.4.1.6.2.3.2.5.3.7.4zm-2.6-1.7c-3.1-2.7-6.8-4.8-10-7.4 1.7.9 3.4 1.9 5.2 2.8 2 1.1 4 2.2 6.1 3.3-.3.5-.8.9-1.3 1.3zm1.4-6.9.1-.2v1.1c-.3-.1-.6-.2-.8-.3.2-.1.4-.4.7-.6zm-27.6 7.4c1.3-1.5 2.4-3.1 3.3-4.8 1.2 2.2 3.3 3.7 5 5.5-2.8-.3-5.5-.6-8.3-.7z" fill="url(#b)"/><path d="m329.7 268 2 .4 6.7 9.9-3 .4z" fill="#2f2e41"/><path d="m281.8 308.3c.5 1.8 1.2 3.5 2 5.2 2.2-.5 4.4-1.1 6.6-1.9-.4-.6-.9-1.3-1.4-1.8-.5-.6-1.2-1.1-1.9-1.4s-1.5-.1-2.3 0c-1-.1-2 0-3-.1z" fill="#fbbebe"/><path d="m287.1 311c-1.1-.3-1.8-1.5-2.2-2.6-.5-1.1-.8-2.3-1.7-3.1-.2 0-.3.1-.5.2-.1.1-.2.2-.3.4-.2.3-.3.6-.5.9-.4.5-1 .8-1.4 1.2-.5.4-.7 1.1-1.2 1.6-.7.5-1.5.8-2.3.9-1.3.3-2.5.7-3.6 1.3-.4.2-.9.4-1.3.6-.5.1-1 .1-1.6.1l-3.6-.3h-1c-.4.1-.7.4-.9.7s-.3.7-.3 1.1.2.7.4 1.1c.2.3.5.6.8.8.6.4 1.3.8 2 1 3.1 1.2 6.3 2.1 9.6 2.7v.7c2.3 1.1 4.8 1.7 7.3 1.7.2 0 .4 0 .6-.1.2-.2.4-.4.5-.7.9-2.5 1.4-5.1 1.5-7.8.1-.7 0-1.3-.1-2-.2-.5.5-.2-.2-.4" fill="#2f2e41"/><path d="m355.7 297.5c-10.6.6-21.1-2.5-31.7-2.8-1.3-.1-2.6 0-3.9.3-1.4.4-2.7.9-3.9 1.5-5.7 2.6-11.6 4.8-17.5 7l-6.8 2.5c-1.4.5-2.7 1-4.2.9-.6 0-1.4-.1-1.8.4-1.1 1.6-.6 4 .1 5.8.2.6.6 1.2 1.3 1.3.4 0 .9-.1 1.3-.3 1.2-.3 2.5.5 3.7.6 1.6.2 3-.7 4.5-1.3 2.4-.9 5.1-.9 7.7-1.3 4.3-.7 8.3-2.7 12.1-5 1.4-.9 2.9-1.8 4.5-2.1 1.9-.4 3.8.1 5.7.6 4.4 1.2 8.7 2.7 13 4.4 2.2 1 4.5 1.8 6.8 2.5 5 1.3 10.3 1 15.2-.9 1.7-.7 3.5-1.8 3.6-3.7.1-1-.8-2-1.3-2.9-.4-.6-.7-1.1-1.1-1.7-1.9-2.4-4.1-5.9-7.3-5.8z" fill="#2f2e41"/><path d="m355.7 297.5c-10.6.6-21.1-2.5-31.7-2.8-1.3-.1-2.6 0-3.9.3-1.4.4-2.7.9-3.9 1.5-5.7 2.6-11.6 4.8-17.5 7l-6.8 2.5c-1.4.5-2.7 1-4.2.9-.6 0-1.4-.1-1.8.4-1.1 1.6-.6 4 .1 5.8.2.6.6 1.2 1.3 1.3.4 0 .9-.1 1.3-.3 1.2-.3 2.5.5 3.7.6 1.6.2 3-.7 4.5-1.3 2.4-.9 5.1-.9 7.7-1.3 4.3-.7 8.3-2.7 12.1-5 1.4-.9 2.9-1.8 4.5-2.1 1.9-.4 3.8.1 5.7.6 4.4 1.2 8.7 2.7 13 4.4 2.2 1 4.5 1.8 6.8 2.5 5 1.3 10.3 1 15.2-.9 1.7-.7 3.5-1.8 3.6-3.7.1-1-.8-2-1.3-2.9-.4-.6-.7-1.1-1.1-1.7-1.9-2.4-4.1-5.9-7.3-5.8z" opacity=".1"/><path d="m302.1 308.8c1.7.6 3.3 1.1 5 1.6.9-1.6 2.7-2.6 3.1-4.4v-.2c0-.1-.1-.1-.2-.2-1.2-.7-2.6-1.1-3.9-1.1-1.1-.1-1.6 1.1-2.1 1.9-.1.2-1.4 2.6-1.9 2.4z" fill="#fbbebe"/><path d="m304.5 307.7c-.5-.1-1-.3-1.4-.5-.4-.3-.8-.6-1-1.1-.2-.4-.5-1-1-.9-.5 0-.6.5-.7 1-.3 1.6-.8 3.2-1.4 4.7s-1.6 2.9-2.9 3.8c-.6.4-1.3.7-1.9 1.2-.5.4-1 .9-1.6 1.2-.4.2-.8.3-1.2.5-.6.2-1.2.5-1.8.9-.5.3-.9.7-1.2 1.1-.1.2-.2.5-.3.8 0 .3 0 .6.1.8s.3.4.5.5.4.2.7.3c.5.1 1 .1 1.5 0 1.9-.1 3.9-.3 5.8-.5.8 0 1.6-.2 2.4-.3.4-.1.8-.2 1.3-.3.7-.2 1.5-.3 2.2-.3.2 0 .4 0 .6.1.4.1.8.6 1.2.7.3 0 .6 0 .9-.1 1.4-.3 2.8-.4 4.3-.4.6 0 1.4-.2 1.7-.7.4-.7-.2-1.5-.5-2.2-.1-.5-.2-1-.2-1.5-.1-1.2-.5-2.4-1.1-3.5-.5-.9-1.1-1.9-.8-2.9.2-.3.3-.6.3-1-.1-1.8-3.7-1.2-4.5-1.4z" fill="#2f2e41"/><path d="m339.8 280.6c-1.9-.8-3.4-2.3-4.2-4.2-.2-.4-.3-.8-.5-1.2-.6-1.3-1.4-2.5-2.5-3.5-.1-.1-.3-.2-.4-.3-.2-.1-.3-.1-.5-.1-.2.1-.3.1-.4.3s-.2.3-.2.5c-.1.4-.1.8-.1 1.1.1.9.3 1.8.5 2.6l.5 2.3c.1.4.2.7.3 1 .2.4.5.7.9 1 .5.4.9.9 1.4 1.3.3.2.6.5.9.6.5.2 1.1.4 1.6.5 2.1.4 4.2 1 6 2.3v-1.7c0-.5-.2-.9-.4-1.3-.9-.6-2.1-.8-2.9-1.2z" fill="#fbbebe"/><path d="m339.8 280.6c-1.9-.8-3.4-2.3-4.2-4.2-.2-.4-.3-.8-.5-1.2-.6-1.3-1.4-2.5-2.5-3.5-.1-.1-.3-.2-.4-.3-.2-.1-.3-.1-.5-.1-.2.1-.3.1-.4.3s-.2.3-.2.5c-.1.4-.1.8-.1 1.1.1.9.3 1.8.5 2.6l.5 2.3c.1.4.2.7.3 1 .2.4.5.7.9 1 .5.4.9.9 1.4 1.3.3.2.6.5.9.6.5.2 1.1.4 1.6.5 2.1.4 4.2 1 6 2.3v-1.7c0-.5-.2-.9-.4-1.3-.9-.6-2.1-.8-2.9-1.2z" opacity=".1"/><path d="m361.4 262.7c1.4 0 2.6-1.2 2.6-2.6s-1.2-2.6-2.6-2.6-2.6 1.2-2.6 2.6c0 1.5 1.1 2.6 2.6 2.6z" fill="#2f2e41"/><path d="m359.8 258.6c-.7-.2-1.4-.1-2 .3-.3.3-.5.6-.7.9-.6 1-1 2-1.3 3.1-.2.9-.3 1.9-.6 2.9-.5 1.7-1.9 3.2-2 5-.1.8.1 1.7-.5 2.3-.1.1-.3.2-.5.3-.4.3-.8.6-1 1s-.4.7-.7 1c-.5.4-1.4.4-1.7 1s.4 1.3.3 2c-.1.5-.7.8-1.1 1.1-.5.5-.8 1.1-1 1.8-.9.2-1.7.1-2.6-.1s-1.6-.6-2.3-1.2c.7 1.8.7 3.7.8 5.6.1.6-.1 1.2-.5 1.7 2.1 0 4.1.6 6.1 1 .9.3 1.8.3 2.6 0 .5-.2.9-.6 1.2-1 1.1-1.1 2.2-2.3 2.5-3.8.1-.9.1-1.7 0-2.6.1-1.1.3-2.1.7-3.2.6-2.1 1-4.3 1.1-6.5.1-1.4 1.3-2.4 1.9-3.7 1.1-2.3 2.4-4.7 2.4-7.2 0-.6-.3-1.6-1.1-1.7z" fill="#2f2e41"/><path d="m359.8 258.6c-.7-.2-1.4-.1-2 .3-.3.3-.5.6-.7.9-.6 1-1 2-1.3 3.1-.2.9-.3 1.9-.6 2.9-.5 1.7-1.9 3.2-2 5-.1.8.1 1.7-.5 2.3-.1.1-.3.2-.5.3-.4.3-.8.6-1 1s-.4.7-.7 1c-.5.4-1.4.4-1.7 1s.4 1.3.3 2c-.1.5-.7.8-1.1 1.1-.5.5-.8 1.1-1 1.8-.9.2-1.7.1-2.6-.1s-1.6-.6-2.3-1.2c.7 1.8.7 3.7.8 5.6.1.6-.1 1.2-.5 1.7 2.1 0 4.1.6 6.1 1 .9.3 1.8.3 2.6 0 .5-.2.9-.6 1.2-1 1.1-1.1 2.2-2.3 2.5-3.8.1-.9.1-1.7 0-2.6.1-1.1.3-2.1.7-3.2.6-2.1 1-4.3 1.1-6.5.1-1.4 1.3-2.4 1.9-3.7 1.1-2.3 2.4-4.7 2.4-7.2 0-.6-.3-1.6-1.1-1.7z" opacity=".1"/><path d="m357.4 299.8c-2.2-1-3.8-3-5.6-4.7-3.4-3.2-7.6-5.4-11.2-8.4-2.4-2-4.5-4.3-7.1-5.9-2.3-1.5-4.9-2.4-7.6-2.7-.3-.1-.6 0-.9 0-.3.2-.6.4-.9.7-1.2 1.3-2.2 2.7-3.1 4.2-4.5 7.7-11 14.1-16.3 21.3-.2.2-.3.4-.3.6s.1.5.2.7l1.1 2.1c.6 1.2 1.6 2.6 2.9 2.3.6-.2 1.1-.5 1.5-1l4.9-4.7 5.1-4.9c3-2.9 6-5.8 8-9.4 1.5 2.6 4.2 4.4 6.1 6.8.7.9 1.3 1.9 1.9 2.9 1 1.6 2.2 3 3.3 4.5l5.9 7.5c.7 1.1 1.7 2 2.7 2.7 1.4.9 3.1 1.1 4.7 1.3 2.2.2 4.4.3 6.6.2 1.7 0 3.4-.1 4.9-.9s2.8-2.3 2.7-4c-.1-.9-.4-1.7-.8-2.5-2.1-3.7-4.8-6.9-8.7-8.7z" fill="#2f2e41"/><path d="m362.9 263.9c1.1 0 2-.9 2-2s-.9-2-2-2-2 .9-2 2c.1 1.1.9 2 2 2z" fill="#e8e8f0"/><path d="m362.5 260.4c.4.9.5 1.9.2 2.9-.3.9-.7 1.8-1.3 2.6-.5.8-1 1.6-1.7 2.4 3.1.1 6-1 8.7-2.5 2.2-1.1 4.3-2.6 5.5-4.8-.3.1-.7.1-1.1 0s-.7-.2-1-.4c-.6-.4-1.1-.9-1.6-1.4l-1.5-1.7c-.4-.4-.7-.8-.9-1.2-.3-.6-.5-1.3-.4-2-.6.6-1.3 1.2-2 1.7-1.1.7-2.3 1.2-3.4 1.9-.4.3-1.3.7-1 1.1.3.5 1.2.9 1.5 1.4z" fill="#fbbebe"/><path d="m362.5 260.4c.4.9.5 1.9.2 2.9-.3.9-.7 1.8-1.3 2.6-.5.8-1 1.6-1.7 2.4 3.1.1 6-1 8.7-2.5 2.2-1.1 4.3-2.6 5.5-4.8-.3.1-.7.1-1.1 0s-.7-.2-1-.4c-.6-.4-1.1-.9-1.6-1.4l-1.5-1.7c-.4-.4-.7-.8-.9-1.2-.3-.6-.5-1.3-.4-2-.6.6-1.3 1.2-2 1.7-1.1.7-2.3 1.2-3.4 1.9-.4.3-1.3.7-1 1.1.3.5 1.2.9 1.5 1.4z" opacity=".1"/><path d="m362.5 260.7c-.3.4-.5 1-.5 1.5s.2 1.1.5 1.5c.1.1.4.8.6.8.1 0 .3-.1.4-.2.7-.7 1.3-1.5 1.9-2.3s1.5-1.4 2.5-1.6c1.2-.2 2.4.4 3.4 1.1.5.2.8.5 1.1.9.2.4.4.8.4 1.3.3 2.7.4 5.5.3 8.2.1 2-.1 4-.4 5.9-.2 1-.5 2-.6 3-.1.9-.1 1.8-.1 2.7v3.8c0 .7 0 1.4.2 2.1.2.8.5 1.6.8 2.4.3.9.5 1.9.6 2.9l.5 3.9c.2 1.2.3 2.6-.5 3.6-.3.5-.8.8-1.1 1.3-1.3 1.6-.9 4-1.4 6-.4 1.5-1.3 2.8-2.5 3.8-.9.8-2.1 1.4-3.3 1.1-1.6-.3-2.5-2-3-3.5s-.6-3.3-1.5-4.6c-.8-1.1-2-1.8-3-2.5-1.1-.8-2.1-1.8-2.4-3.1-.1-.6 0-1.1-.1-1.7-.1-.7-.4-1.4-.8-2s-1-1-1.7-1.3c-.8-.3-1.8-.4-2.3-1.1 1.2-.7 2-1.9 2.4-3.2s.5-2.7.6-4l.3-4.5c.1-2 .2-4 1.1-5.9.4-.8.9-1.6 1.3-2.4.6-1.1 1-2.3 1.4-3.5.6-1.9 1.3-3.7 1.9-5.6.2-.9.6-1.8 1-2.6.4-1 1.1-2 2-2.2z" fill="#e8e8f0"/><path d="m352.4 290.3h1.2l.3-1.8c0-.4.1-.7.3-1.1s.4-.7.7-1c1.2-1.7 1.1-3.9 1.4-5.9.4-2.7 1.5-5.2 2.7-7.7l2.3-5.2c.2-.4.4-.9.5-1.3.1-.5.1-1 .1-1.5 0-.8.3-3.7.3-4.5 0-.3-.7-.1-.8-.4-.3-.6-.7 1-1.2 1.3-.5.4-.9.9-1.1 1.6-.5 1.3-.8 2.7-1.3 4-.4 1.3-1.2 2.6-2.2 3.5l-1.5 1.2c-1.5 1.4-1.6 3.7-1.6 5.7-.1 1.2-.3 13.1-.1 13.1zm17.4-31.7c-1.1.5-1.8 1.7-2.1 2.9s-.5 2.5-1.1 3.6c-1.5 2.6-5.2 3.3-6.3 6.1-.3.9-.4 1.9-.4 2.9-.2 2-.8 3.9-1 5.9-.1 1.5-.1 3.1.1 4.6l1.3 15.6c.3 2.3.1 4.6-.4 6.9 1.3.2 2.7 0 3.9-.6s2.4-1.3 3.5-2c2-1.1 4.3-1.9 6.1-3.4.3-.3.6-.6.8-.9.3-.7.5-1.3.6-2.1.2-.6.3-1.1.6-1.6.7-1.6 1.2-3.2 1.7-4.8.3-1.1.6-2.2.8-3.3l.3-2.7c.1-1.4.4-2.8.8-4.1 1.1-3.2 1.8-6.5 1.9-9.9 0-.5 0-1-.1-1.5-.2-.6-.5-1.1-.8-1.6-.5-1-.9-2.2-1.4-3.2-1.1-2.3-3.2-4.1-5.4-5.6-1-.9-2.2-1.7-3.4-1.2z" fill="#2f2e41"/><path d="m342.4 284c-.9-.5-1.8-1.1-2.5-1.9l-.9-1.2c-.8-.9-1.9-1.5-3.1-1.8s-2.4-.4-3.6-.3c-.8-.1-1.6 0-2.4.3-.4.1-.7.4-1 .7s-.5.7-.6 1.1c-.2 1 .5 1.9 1.2 2.5s1.5 1 2.4 1.2c.7.1 1.5.2 2.2.3 4.3.5 8.2 2.8 12 5 3.3 1.9 6.7 3.6 10.2 5.3.1-1 .2-2.1.2-3.1 0-.8-.1-2-.8-2.4-.9-.5-2.3-.7-3.2-1-2.2-.7-4.4-1.6-6.5-2.6-1.4-.8-2.5-1.4-3.6-2.1zm19-24.5c4.3 0 7.7-3.5 7.7-7.8s-3.5-7.8-7.7-7.8c-4.3 0-7.7 3.5-7.7 7.8s3.4 7.8 7.7 7.8z" fill="#fbbebe"/><path d="m372 267.4c-.6.9-1.1 1.8-1.5 2.8-1 2-2.5 3.6-3.2 5.7-.8 2.2-.8 4.7-2.3 6.4-.3.3-.5.6-.7 1 0 .2 0 .5-.1.7-.2.6-1.2.6-1.4 1.3-.1.2 0 .4-.1.6-.2.4-.7.5-1.1.7-.8.5-.6 1.7-1.1 2.4-.2.3-.5.5-.9.6-.3.1-.7.1-1.1.1-.7-.1-1.4-.4-2-.8-.2-.1-.5-.2-.7-.2-.3 0-.6.1-.8.3-1.4.9-2.1 2.7-2.1 4.4.1 1.7.5 3.4 1.2 4.9.1.3.2.5.4.7.5.5 1.3.4 1.9.1s1.2-.6 1.9-.8c1.2-.2 2.4.6 3.6.5.9-.1 1.7-.5 2.4-1.1 1.2-.7 2.3-1.7 3.3-2.8.5-.7.9-1.5 1.4-2.2.6-.9 1.2-1.8 2-2.6l4.5-5.4c.4-.5.8-1.1 1.2-1.7.4-.8.7-1.6.9-2.5.5-1.4.8-2.9.9-4.4 0-1.2-.1-2.5-.3-3.7s-.5-2.4-1-3.5c-1-2-3.4-3.7-5.2-1.5z" fill="#2f2e41"/><path d="m387.5 257.3c0-1.4-.3-2.7-.9-4-.6-1.2-1.5-2.3-2.6-3.1 0-2.4-.9-4.8-2.5-6.6s-3.8-3.1-6.2-3.4c-.5-2.3-1.7-4.4-3.6-5.9s-4.2-2.2-6.5-2.2c-2.4.1-4.6 1-6.4 2.5-1.8 1.6-2.9 3.7-3.3 6-3.2-.7-6.2.2-6.7 2.2-.6 2.1 1.7 4.5 5.1 5.4 1.1.3 2.2.4 3.3.3.8 1.2 1.8 2.1 3 2.9 1.2.7 2.5 1.2 3.9 1.4.4 1.9 1.3 3.6 2.7 5 1.3 1.4 3 2.3 4.9 2.8.5 1.2 1.3 2.3 2.3 3.2v.7c0 .9.1 1.8.4 2.6s.8 1.6 1.4 2.2 1.3 1.1 2.2 1.5c.8.3 1.7.5 2.6.5s1.8-.2 2.6-.5 1.5-.9 2.2-1.5c.6-.6 1.1-1.4 1.4-2.2s.5-1.7.4-2.6c0-1-.2-2-.6-2.9.5-1.2.9-2.8.9-4.3z" fill="#f86d70"/><path d="m350.9 243.3c.5-2 3.4-2.9 6.7-2.2.4-2.4 1.6-4.5 3.4-6.1s4.1-2.4 6.5-2.5h.7c-.9-.3-1.9-.4-2.9-.4-2.4 0-4.7.9-6.5 2.5s-3 3.7-3.4 6.1c-3.2-.7-6.2.2-6.7 2.2-.6 2.1 1.7 4.5 5.1 5.4.6.2 1.3.3 1.9.3-3.2-1-5.4-3.3-4.8-5.3zm25.1 21.7v-.7c-1-.9-1.8-2-2.3-3.2-1.9-.5-3.5-1.4-4.9-2.8-1.3-1.4-2.3-3.1-2.7-5-1.4-.2-2.7-.7-3.9-1.4s-2.2-1.7-3-2.9c-.6.1-1.3 0-1.9-.1.8 1.1 1.8 2 2.9 2.6 1.1.7 2.4 1.1 3.7 1.3.4 1.9 1.3 3.6 2.7 5 1.3 1.4 3 2.3 4.9 2.8.5 1.2 1.3 2.3 2.3 3.2v.7c0 1.8.6 3.5 1.9 4.7 1.2 1.3 2.9 2 4.7 2-1.3-.5-2.4-1.4-3.2-2.5-.8-1-1.2-2.3-1.2-3.7z" opacity=".1"/><path d="m364.9 254.6c.5-.4.5-1.3 0-2s-1.4-.9-1.9-.5-.5 1.3 0 2 1.4.9 1.9.5z" fill="#fbbebe"/><path d="m180.1 293.2 7.6-4.5c-1-1.8-2.4-3.3-3.9-4.7l-14.4 4.5 11.3-6.6c-2.8-1.5-5.9-2.3-9.1-2.2s-6.3.9-9.1 2.6c-2.7 1.6-5 3.9-6.6 6.7s-2.4 5.9-2.4 9.1c0 10.1 8.2 10.5 18.4 10.5 10.1 0 18.4-.3 18.4-10.5 0-2.6-.5-5.1-1.6-7.4z" fill="#f16c7d"/><path d="m182 303.1c-.8-.8-1.7-1.5-2.7-2.1-1.4-.9-2.8-1.9-4.5-2.2-1.4-.3-2.9 0-4.4-.1-2.5-.2-4.9-1.2-6.7-3.1-1-1.1-1.9-2.4-3.1-3.2-1.4-.8-3.1-1.1-4.7-.9-.5.1-.9.2-1.4.3-.7 2-1.1 4.1-1.1 6.2 0 10.1 8.2 10.5 18.4 10.5 4.9 0 9.4-.1 12.7-1.3l-.6-1c-.4-1.2-1.1-2.2-1.9-3.1z" opacity=".1"/></g></svg>