<svg width="389" height="400" fill="none" xmlns="http://www.w3.org/2000/svg"><path d="M318.571 110.293s-7.292 4.213-5.048 10.111c0 0 7.572 2.247 10.656 7.864 3.085 5.617 26.923 25.84 26.923 25.84l17.388-8.707s-6.049-8.087-25.18-13.733c0 0-11.278-12.107-15.204-14.353-3.927-2.247-9.535-7.022-9.535-7.022z" fill="#CBCDDA"/><path opacity=".05" d="M318.571 110.293s-7.292 4.213-5.048 10.111c0 0 7.572 2.247 10.656 7.864 3.085 5.617 26.923 25.84 26.923 25.84l17.388-8.707s-6.049-8.087-25.18-13.733c0 0-11.278-12.107-15.204-14.353-3.927-2.247-9.535-7.022-9.535-7.022z" fill="#000"/><path opacity=".1" d="M66.478 379.152c-3.744.927-7.66-.155-11.516-.201-3.857-.046-8.356 1.578-9.3 5.322-1.27 5.029 4.6 8.821 9.627 10.074 19.509 4.863 40.16-1.449 60.099 1.126 8.403 1.084 16.574 3.739 25.022 4.372 19.337 1.449 38.231-7.761 57.594-6.723 9.701.52 19.13 3.606 28.832 4.101 23.214 1.184 46.116-12.464 68.841-7.574 6.417 1.381 12.441 4.196 18.8 5.827 16.074 4.122 32.997.448 49.179-3.228 3.213-.73 7.087-2.151 7.483-5.427.437-3.614-3.707-5.881-7.155-7.036-37.704-12.628-78.071-19.319-117.398-13.482-8.95 1.329-17.874 3.302-26.92 3.172-20.023-.289-38.421-10.749-58.078-14.575-37.247-7.25-74.487 9.664-108.68 26.138" fill="#F16C7D"/><path d="M118.101 271.989h-11.402v96.545s73.597 23.877 145.12 0v-96.545H118.101z" fill="#3F3D56"/><path d="M178.222 283.408c39.502 0 71.524-4.88 71.524-10.9 0-6.02-32.022-10.9-71.524-10.9-39.501 0-71.523 4.88-71.523 10.9 0 6.02 32.022 10.9 71.523 10.9z" fill="#3F3D56"/><path opacity=".1" d="M178.222 283.408c39.502 0 71.524-4.88 71.524-10.9 0-6.02-32.022-10.9-71.524-10.9-39.501 0-71.523 4.88-71.523 10.9 0 6.02 32.022 10.9 71.523 10.9z" fill="#000"/><path d="M261.364 156.639c-18.043 66.797-79.845 108.167-79.845 108.167s-32.548-66.931-14.504-133.729C185.058 64.279 246.859 22.91 246.859 22.91s32.548 66.93 14.505 133.729z" fill="#3F3D56"/><path d="M97.222 156.639c18.044 66.797 79.845 108.167 79.845 108.167s32.548-66.931 14.505-133.729C173.529 64.279 111.727 22.91 111.727 22.91S79.179 89.84 97.222 156.639z" fill="#F16C7D"/><path d="M123.735 142.283c49.511 48.269 55.558 122.469 55.558 122.469s-74.225-4.059-123.735-52.328C6.048 164.156 0 89.956 0 89.956s74.225 4.059 123.735 52.327zM234.851 142.283c-49.51 48.269-55.558 122.469-55.558 122.469s74.225-4.059 123.736-52.328c49.51-48.268 55.558-122.468 55.558-122.468s-74.225 4.059-123.736 52.327z" fill="#3F3D56"/><path d="M179.259 45.678c12.595 0 22.805-10.226 22.805-22.84C202.064 10.226 191.854 0 179.259 0c-12.595 0-22.805 10.225-22.805 22.839 0 12.613 10.21 22.839 22.805 22.839zM42.699 184.578c1.617 5.876 7.235 9.451 7.235 9.451s2.996-5.952 1.379-11.828c-1.617-5.876-7.235-9.451-7.235-9.451s-2.996 5.952-1.38 11.828zM72.965 217.304c-1.741 5.841 1.129 11.855 1.129 11.855s5.692-3.455 7.432-9.296c1.74-5.841-1.13-11.855-1.13-11.855s-5.691 3.455-7.431 9.296zM291.269 254.876c-4.272 4.342-4.552 11.002-4.552 11.002s6.645-.379 10.917-4.721c4.271-4.341 4.552-11.001 4.552-11.001s-6.645.379-10.917 4.72z" fill="#F16C7D"/><path d="M364.002 349.869s.842 12.358 2.244 13.763c1.402 1.404-12.62 2.247-12.62 2.247l1.963-16.01h8.413z" fill="#FFB9B9"/><path opacity=".05" d="M364.002 349.869s.842 12.358 2.244 13.763c1.402 1.404-12.62 2.247-12.62 2.247l1.963-16.01h8.413z" fill="#000"/><path d="M367.087 359.419s-1.963 0-8.974 3.651c0 0-4.767-.842-6.73-7.583 0 0-5.89 10.111-9.816 10.673-3.926.561-11.498 1.123-6.45 7.864 5.048 6.741 34.775 3.651 34.775 3.651s.841-16.29-2.805-18.256z" fill="#CBCDDA"/><path opacity=".05" d="M367.087 359.419s-1.963 0-8.974 3.651c0 0-4.767-.842-6.73-7.583 0 0-5.89 10.111-9.816 10.673-3.926.561-11.498 1.123-6.45 7.864 5.048 6.741 34.775 3.651 34.775 3.651s.841-16.29-2.805-18.256z" fill="#000"/><path d="M362.881 368.968l-1.963 5.336-12.901-3.651.735-5.297.177-1.278.49-3.536s10.938-2.808 10.938-1.404a21.69 21.69 0 00.718 3.421 180.024 180.024 0 001.391 4.991c.247.856.415 1.418.415 1.418z" fill="#FFB9B9"/><path d="M355.842 295.719c-.884 1.497-1.885 4.306-.026 7.816a13.616 13.616 0 002.017 2.801c6.169 6.74 7.852 21.907 7.852 21.907v24.435l-4.207.323-6.73.52-10.096-41.568s-5.89-30.333-3.085-35.67c2.804-5.336 5.328-38.759 5.328-38.759l2.328-2.415 5.525-5.73h15.985a10.752 10.752 0 013.11 3.483c2.684 4.449 5.093 13.7-2.269 30.782-11.498 26.682-14.863 30.895-14.863 30.895a6.435 6.435 0 00-.869 1.18z" fill="#4C4C78"/><path opacity=".05" d="M355.842 295.719c-.884 1.497-1.885 4.306-.026 7.816a13.616 13.616 0 002.017 2.801c6.169 6.74 7.852 21.907 7.852 21.907v24.435l-4.207.323-6.73.52-10.096-41.568s-5.89-30.333-3.085-35.67c2.804-5.336 5.328-38.759 5.328-38.759l2.328-2.415 5.525-5.73h15.985a10.752 10.752 0 013.11 3.483c2.684 4.449 5.093 13.7-2.269 30.782-11.498 26.682-14.863 30.895-14.863 30.895a6.435 6.435 0 00-.869 1.18z" fill="#000"/><path opacity=".1" d="M361.075 362.559l-12.146 1.519.491-3.536s10.937-2.808 10.937-1.404a21.69 21.69 0 00.718 3.421z" fill="#000"/><path d="M355.028 259.712s.699 22.11.814 36.007c.025 3.143.022 5.867-.026 7.816a17.386 17.386 0 01-.227 3.082c-.841 2.527.842 8.145.842 8.145 7.011 18.537 5.048 34.827 5.048 34.827v12.358l-13.462 1.685s2.244-1.685-3.926-17.975c-3.545-9.359-4.313-18.529-4.324-24.641a26.4 26.4 0 00-1.969-9.748 12.058 12.058 0 01-.718-3.247c-.561-5.617-3.085-12.639-3.085-12.639s-6.731-19.941-8.413-34.546a80.53 80.53 0 01.39-20.894 52.1 52.1 0 011.012-5.226s27.416-17.279 37.767-5.337a13.524 13.524 0 012.336 3.932 25.993 25.993 0 011.324 4.376c3.222 15.849-13.383 22.025-13.383 22.025z" fill="#4C4C78"/><path d="M354.187 136.694c7.899 0 14.303-6.413 14.303-14.324s-6.404-14.324-14.303-14.324c-7.899 0-14.303 6.413-14.303 14.324s6.404 14.324 14.303 14.324z" fill="#FFB9B9"/><path d="M346.335 131.358s5.889 16.571 0 25.278c-5.89 8.706 18.789 5.898 18.789 5.898l9.535-11.516s-11.217 0-11.778-19.66c-.561-19.661-16.546 0-16.546 0z" fill="#FFB9B9"/><path opacity=".1" d="M374.659 236.12a36.72 36.72 0 01-6.248 1.567c-3.491.539-7.611.559-10.017-1.567-1.428-1.261-4.945-1.416-9.171-1.011-8.901.854-20.949 4.179-23.251 4.833a52.1 52.1 0 011.012-5.226s27.416-17.279 37.767-5.337h5.982a10.752 10.752 0 013.11 3.483c.516 2.236.816 3.258.816 3.258zM362.881 368.968l-1.963 5.336-12.901-3.651.735-5.297c2.215 4.91 5.996 5.578 5.996 5.578 4.078-2.123 6.447-3.011 7.718-3.384.247.856.415 1.418.415 1.418z" fill="#000"/><path d="M363.722 367.564s-1.963 0-8.974 3.651c0 0-4.768-.842-6.731-7.583 0 0-5.889 10.111-9.815 10.673-3.927.561-11.499 1.123-6.451 7.864 5.048 6.741 34.775 3.651 34.775 3.651s.842-16.29-2.804-18.256z" fill="#CBCDDA"/><path d="M297.188 125.113s.547-10.938 12.026-9.868a1.963 1.963 0 011.778 1.95 1.97 1.97 0 01-.229.927l-2.354 4.437-11.221 2.554z" fill="#FFB9B9"/><path d="M363.442 154.389s-13.742-2.247-17.388-5.056c0 0-2.804 5.337-7.852 2.528-5.048-2.809-16.827-2.528-16.827-2.528s-9.816-5.336-11.779-17.413c0 0-1.963-7.303-1.402-9.269 0 0-7.291-7.583-10.937 2.528 1.402 7.021 2.524 6.46 2.243 12.077l4.487 12.358s.281 4.213 8.414 9.83 17.387 14.324 17.387 14.324-4.907 2.668-3.085 14.886c2.229 14.933-1.121 36.231-1.121 36.231v13.763s28.044-8.145 32.812-3.932c4.767 4.212 16.265 0 16.265 0s-1.402-4.775-3.365-16.291c-1.963-11.515.281-22.749.281-22.749s7.291-19.38 10.656-27.244c3.366-7.864-2.524-18.537-8.413-22.469-5.889-3.932-8.083-1.572-8.083-1.572s10.327 7.47-2.293 9.998z" fill="#CBCDDA"/><path opacity=".1" d="M338.719 118.867a4.987 4.987 0 00.29 1.716 5.423 5.423 0 001.316 1.637c2.1 2.055 3.942 4.498 4.681 7.344.501 1.927.474 3.946.444 5.937-.122 8.065-.46 16.769-5.433 23.112-1.828 2.332-4.178 4.186-6.387 6.158-.308.227-.541.54-.671.9-.06.384.013.777.208 1.112 1.025 2.135 3.187 3.444 5.233 4.632.935.543 1.921 1.101 3.001 1.136 2.55.083 4.235-2.614 6.556-3.676 3.378-1.544 7.169.606 10.523 2.204a37.024 37.024 0 007.597 2.654c3.589.829 7.647 1.033 10.669-1.077a8.16 8.16 0 003.324-5.209c.243-1.372.205-2.965 1.242-3.894.535-.479 1.264-.678 1.842-1.102.897-.658 1.324-1.766 1.706-2.812l3.454-9.459c.446-1 .676-2.083.676-3.177-.166-2.278-2.264-3.932-4.37-4.807-2.106-.876-4.435-1.308-6.287-2.64-3.131-2.254-4.098-6.462-4.379-10.314a49.68 49.68 0 01.056-7.943c.342-3.919 1.107-8.091-.633-11.617-1.859-3.766-6.029-5.688-9.891-7.329-1.483-.63-3.005-1.269-4.614-1.341-1.703-.075-3.361.492-4.972 1.051-2.559.889-5.155 2.039-7.797 2.642-1.484.339-3.11.085-4.541.623-5.259 1.975-2.843 9.299-2.843 13.539z" fill="#000"/><path d="M338.719 118.305a4.987 4.987 0 00.29 1.716 5.41 5.41 0 001.316 1.637c2.1 2.055 3.942 4.498 4.681 7.344.501 1.927.474 3.947.444 5.937-.122 8.065-.46 16.769-5.433 23.113-1.828 2.331-4.178 4.185-6.387 6.158-.308.226-.541.54-.671.9-.06.383.013.776.208 1.111 1.025 2.135 3.187 3.444 5.233 4.632.935.544 1.921 1.102 3.001 1.137 2.55.082 4.235-2.615 6.556-3.677 3.378-1.544 7.169.606 10.523 2.205a37.08 37.08 0 007.597 2.653c3.589.829 7.647 1.033 10.669-1.077a8.16 8.16 0 003.324-5.208c.243-1.373.205-2.966 1.242-3.895.535-.479 1.264-.678 1.842-1.102.897-.658 1.324-1.766 1.706-2.811l3.454-9.46c.446-1 .676-2.082.676-3.177-.166-2.278-2.264-3.931-4.37-4.807-2.106-.876-4.435-1.308-6.287-2.64-3.131-2.254-4.098-6.462-4.379-10.313a49.692 49.692 0 01.056-7.944c.342-3.919 1.107-8.091-.633-11.617-1.859-3.766-6.029-5.688-9.891-7.329-1.483-.63-3.005-1.269-4.614-1.34-1.703-.076-3.361.491-4.972 1.05-2.559.889-5.155 2.04-7.797 2.642-1.484.339-3.11.086-4.541.623-5.259 1.975-2.843 9.299-2.843 13.539z" fill="#B96B6B"/><path opacity=".05" d="M327.411 194.954s2.237-.542 13.455-2.228c11.218-1.685 30.849 2.247 30.849 2.247" fill="#000"/><path d="M19.167 241.138c1.617 5.876 7.235 9.451 7.235 9.451s2.996-5.952 1.38-11.828c-1.618-5.877-7.235-9.451-7.235-9.451s-2.997 5.952-1.38 11.828z" fill="#F16C7D"/></svg>