<svg width="491" height="388" fill="none" xmlns="http://www.w3.org/2000/svg"><g clip-path="url(#clip0)"><path d="M342.893 335.682h-1.148V210.073a3.437 3.437 0 00-1.27-2.671l.725-.89a4.566 4.566 0 011.693 3.561v125.609zM225.937 13.335c.297.677.519 1.386.66 2.112a48.288 48.288 0 00-.66-2.112zM236.121 48.427s0 .792-.855 3.65l.855-3.65z" fill="#3F3D56"/><path d="M340.938 167.99c-22.577 11.766-52.113 21.925-60.959 24.869 6.745-1.756 26.378-4.121 56.797 14.854 38.221 23.837 79.088 7.944 79.088 7.944s-9.081 17.408-28.381 18.539c-19.3 1.136-69.628-30.644-86.654-21.564-17.032 9.08-24.977-2.273-31.791 20.433-6.809 22.7-19.294 84.745-4.914 119.556l14.374 34.805h-81.734s29.518-78.696 13.243-127.121c-9.11-27.119-21.9-46.76-26.67-56.741-2.394-5-2.773-7.571.327-7.445 1.762.075 4.65 1.022 8.938 2.893 0 0-19.679-19.296-26.108-19.296-6.435 0-36.711-3.025-46.545-13.242 0 0-14.001-9.837-38.978 14.378-24.978 24.215-18.921 24.215-41.246 22.321C17.75 201.308.534 190.65 0 190.317c.637.258 26.303 10.515 41.992 5.292 15.896-5.298 29.518-25.352 43.52-32.159 14-6.813 22.325-15.893 41.246-6.056l-12.469-29.392-3.416-8.053-.005-.011S106.7 64.7 98.755 60.918c-7.945-3.789-3.025-13.62-17.784-15.515 0 0 18.163-2.273 21.567 10.217 3.41 12.483 26.872 79.832 26.872 79.832s14.374 28.75 30.27 21.942c15.895-6.813-6.057-45.021-6.057-45.021l-27.244-12.49s20.436-.757 32.922 10.975c12.486 11.726 13.243 49.561 13.243 49.561s31.407 4.54 38.979 21.57c0 0 4.919-15.136-4.541-24.216-2.365-2.273-4.851-6.222-7.245-10.865a95.967 95.967 0 01-9.38-57.81c1.407-9.676 2.274-19.14.729-21.373-3.404-4.92-17.784-35.184-18.921-43.133-1.13-7.944 1.137-24.589 1.137-24.589s.379 20.427 4.92 26.861c4.541 6.434 17.405 38.215 17.405 38.215s0 40.102 10.597 59.778c10.597 19.675 31.028 41.617 29.897 55.995v8.323s22.704-21.564 21.189-28.756c-1.516-7.186-3.405-24.215-17.785-34.426-14.38-10.216-23.84-26.488-13.622-49.946 5.746-13.195 8.261-20.284 9.363-23.963l-5.959 25.478s-3.783 26.104 6.814 35.184c.029.023.052.046.08.069 10.58 9.091 24.513 25.662 24.513 25.662l-.04-.729-2.986-53.752.655 1.435 4.719 10.343 4.466 9.786s21.188-27.24 46.165-36.32c24.972-9.08 40.489-40.86 40.489-40.86l21.194-16.65-17.411 20.81s-5.299 24.59-35.19 41.997c-29.897 17.403-49.191 43.128-50.328 59.021-1.136 15.893-2.273 29.892-2.273 29.892s56.005-1.894 68.491-26.489c12.491-24.588 22.71-25.724 22.71-25.724l-7.193 21.184-7.945 18.16s32.543.758 49.57 20.055c17.032 19.296 59.409 24.973 59.409 24.973l-23.835 6.428s-22.71-7.565-44.277-21.564c-21.568-13.999-19.3-26.482-46.166-12.483z" fill="#3F3D56"/><path opacity=".1" d="M353.005 116.366c-2.394 10.595-5.213 20.829-9.174 28.629-12.485 24.594-68.49 26.489-68.49 26.489s.264-3.249.665-8.375c14.22-1.17 53.089-6.17 63.233-26.149.93-1.825 1.791-3.788 2.606-5.855l11.16-14.739zM265.88 146.511s-14.001-16.651-24.592-25.731c-2.325-1.986-3.956-4.798-5.087-7.967a31.47 31.47 0 01-.264-.769c.247.241.494.477.758.701 9.271 7.949 21.16 21.701 23.978 25.001l.615.729-2.945-53.045 4.719 10.342 2.818 50.739zM273.985 98.738c-.083 9.316-1.292 14.856-1.292 14.856s21.182-27.23 46.15-36.315a144.032 144.032 0 014.505-2.745c29.895-17.404 35.193-41.996 35.193-41.996l17.407-20.81-21.191 16.648s-15.515 31.781-40.49 40.861c-17.024 6.19-32.287 20.815-40.282 29.501zM241.285 188.885v8.323s22.705-21.565 21.191-28.754c-1.157-5.497-2.543-16.746-9.56-26.304 3.163 7.223 4.125 14.269 4.968 18.269 1.085 5.155-10.283 17.702-16.802 24.389.229 1.346.297 2.715.203 4.077zM210.829 131.764c.18.383.365.761.562 1.126 5.803 10.774 14.551 22.228 21.096 32.748-5.29-10.418-14.496-22.332-21.658-33.874zM337.35 207.712c-12.448-7.763-23.088-11.953-31.78-14.075a572.715 572.715 0 01-20.397 7.245c6.772-1.752 26.39-4.081 56.769 14.865 23.835 14.865 48.699 14.279 64.04 11.733a39.646 39.646 0 0010.455-11.823s-40.868 15.891-79.087-7.945zM229.277 115.656c-3.051-7.475-3.554-16.37-.048-26.794a81.788 81.788 0 01.652-11.301l5.959-25.485c-1.099 3.675-3.612 10.765-9.364 23.971-7.282 16.719-4.565 29.783 2.801 39.609zM396.382 170.634c-11.81-13.382-31.078-17.846-41.781-19.326l-3.199 7.309s32.544.757 49.572 20.052c9.443 10.701 26.681 17.211 40.166 20.889l14.652-3.953s-42.382-5.675-59.41-24.971zM164.846 165.427c15.894-6.81-6.054-45.023-6.054-45.023l-.601-.275c5.472 11.543 13.408 32.402 2.063 37.263-10.616 4.549-20.555-6.768-25.986-14.786l.306.877s14.379 28.755 30.272 21.944zM216.688 190.02s4.789-14.759-4.207-23.872c2.206 7.85-.385 15.836-.385 15.836-5.855-13.17-25.972-18.868-34.783-20.774.341 4.385.399 7.244.399 7.244s31.408 4.54 38.976 21.566zM235.84 52.076c.853-2.852.853-3.648.853-3.648l-.853 3.648zM46.931 203.713c.077-.025.154-.047.23-.073 15.893-5.297 29.516-25.349 43.517-32.159 14.001-6.81 22.326-15.891 41.247-6.054 0 0-3.31-13.546-9.725-22.447a88.227 88.227 0 015.132 14.412c-18.92-9.837-27.245-.757-41.246 6.053-14.001 6.811-27.624 26.863-43.518 32.16-15.893 5.297-42.003-5.297-42.003-5.297s17.407 10.972 39.733 12.864c2.554.216 4.733.407 6.633.541zM116.034 127.972s-.62.011-1.745.028l-3.416-8.052c.373-.006.569-.012.569-.012s-2.63-34.84-7.693-51.076c.063.028.115.063.172.091 7.945 3.783 12.113 59.021 12.113 59.021zM204.695 387.426c6.933-21.251 23.608-80.016 10.48-119.089-5.67-16.873-10.925-27.633-15.367-34.498 3.322 6.498 6.954 15.094 10.774 26.463 16.272 48.428-13.244 127.124-13.244 127.124h7.357zM197.768 207.046a42.09 42.09 0 00-14.431-3.484c-2.394-4.999-2.773-7.57.327-7.444.861.155 1.728.339 2.589.551 6.085 5.051 11.515 10.377 11.515 10.377zM95.325 57.24a9.9 9.9 0 001.556 1.99 11.163 11.163 0 00-1.556-1.99zM164.468 118.891a18.4 18.4 0 011.64 1.768c-1.657-3.984-3.704-7.429-6.232-9.804-12.488-11.728-32.922-10.972-32.922-10.972l25.626 11.744a36.596 36.596 0 0111.888 7.264zM191.662 67.724c1.544 2.23.677 11.695-.733 21.375a95.951 95.951 0 009.383 57.806 67.552 67.552 0 004.032 6.92 96.052 96.052 0 01-8.823-56.69c1.41-9.68 2.278-19.145.733-21.376-3.405-4.918-17.785-35.186-18.92-43.131a55.047 55.047 0 01-.237-9.284C174.157 15.005 173.877 0 173.877 0s-2.271 16.647-1.136 24.593c1.136 7.945 15.515 38.213 18.921 43.13zM227.163 15.419a10.854 10.854 0 00-.687-2.177s.29.817.687 2.177zM93.507 53.523c3.335.409 7.171 1.432 10.097 3.804a88.333 88.333 0 01-.49-1.71c-3.406-12.485-21.57-10.215-21.57-10.215 8.21 1.052 10.33 4.562 11.963 8.121z" fill="#000"/><path d="M450.356 367.987c-5.644 8.653-4.098 19.659-4.098 19.659s10.697-3.024 16.34-11.677c5.644-8.653 4.098-19.659 4.098-19.659s-10.697 3.024-16.34 11.677z" fill="#3F3D56"/><path d="M454.595 369.517c-.446 10.321-8.109 18.372-8.109 18.372s-6.939-8.682-6.493-19.003c.446-10.32 8.109-18.372 8.109-18.372s6.939 8.682 6.493 19.003z" fill="#F16C7D"/><path d="M355.195 304.205s6.494-6.812 9.152-5.441c2.658 1.37-7.642 7.461-7.642 7.461l-1.51-2.02z" fill="#FFB9B9"/><path opacity=".1" d="M355.195 304.205s6.494-6.812 9.152-5.441c2.658 1.37-7.642 7.461-7.642 7.461l-1.51-2.02z" fill="#000"/><path d="M335.382 289.338s-2.387 4.278-1.762 8.89c.624 4.611 6.337 19.41 8.279 19.147 1.942-.263 16.328-10.862 16.328-10.862l-2.744-3.83-10.509 6.366s-1.601-22.77-9.592-19.711z" fill="#D0CDE1"/><path d="M374.35 299.752l-16.383 8.998a.785.785 0 01-.653.098.778.778 0 01-.494-.436l-4.014-8.388a1.049 1.049 0 01.537-1.257l13.602-7.01a.792.792 0 011.041.199l6.795 6.4a1.01 1.01 0 01-.431 1.396z" fill="#2F2E41"/><path d="M373.257 298.513l-15.359 8.778-4.087-7.365 13.176-7.165 6.27 5.752z" fill="#F16C7D"/><path d="M360.37 295.976c.08-.096.079-.229-.003-.297-.082-.068-.213-.045-.293.05-.08.096-.078.229.003.297.082.069.213.046.293-.05zM366.024 303.47c.053-.064.052-.152-.002-.198-.055-.045-.142-.03-.196.034-.053.064-.052.152.003.198.054.045.141.03.195-.034z" fill="#F2F2F2"/><path opacity=".1" d="M335.382 289.338s-2.387 4.278-1.762 8.89c.624 4.611 6.337 19.41 8.279 19.147 1.942-.263 16.328-10.862 16.328-10.862l-2.744-3.83-10.509 6.366s-1.601-22.77-9.592-19.711z" fill="#000"/><path d="M350.805 305.506s7.349-5.878 9.799-4.164c2.45 1.715-8.574 6.369-8.574 6.369l-1.225-2.205zM341.006 281.992a7.104 7.104 0 10-7.104-7.103 7.103 7.103 0 007.104 7.103zM365.503 324.366s7.595.98 7.35 5.633c-.245 4.654-5.88 24.004-5.88 24.004l-.49 7.593s.49 12.737-.98 12.492c-1.47-.245-4.899-9.063-4.899-9.063s-4.165-2.694-2.205-5.144c1.96-2.449 3.43-2.204 2.94-4.898-.49-2.695-.245-13.961 1.225-17.391 1.469-3.429 2.326-5.32 2.326-5.32l-4.776-.313 5.389-7.593z" fill="#FFB9B9"/><path opacity=".1" d="M365.503 324.366s7.595.98 7.35 5.633c-.245 4.654-5.88 24.004-5.88 24.004l-.49 7.593s.49 12.737-.98 12.492c-1.47-.245-4.899-9.063-4.899-9.063s-4.165-2.694-2.205-5.144c1.96-2.449 3.43-2.204 2.94-4.898-.49-2.695-.245-13.961 1.225-17.391 1.469-3.429 2.326-5.32 2.326-5.32l-4.776-.313 5.389-7.593z" fill="#000"/><path d="M365.994 325.591s7.349 1.714 8.084 6.613c.735 4.899 4.409 19.35 4.409 19.35l3.92 9.062s6.124 11.022 3.43 10.777c-2.695-.245-6.37-5.633-7.595-5.633-1.225 0-4.899-1.47-4.654-2.45.245-.979 1.96-3.918 1.96-3.918l-5.927-10.323a25.044 25.044 0 01-2.571-6.361c-.609-2.418-1.301-5.379-1.301-6.34 0-1.715-4.9-2.45-4.9-2.45l5.145-8.327z" fill="#FFB9B9"/><path d="M341.986 309.915l3.429 9.797s5.39 1.47 9.309 2.695c3.92 1.224 11.269-.49 12.004 2.449.735 2.939-1.47 8.083-3.674 9.307-2.205 1.225-3.43 2.45-10.534.49-7.105-1.959-24.008-2.449-24.008-2.449a12.272 12.272 0 01-5.389 1.714c-3.185.245-3.92.49-4.9-.245-.98-.734.49-.734.98-2.694.49-1.959.735-1.224 2.94-3.429 2.205-2.204 3.919-8.818 5.144-11.022 1.225-2.204 1.96-6.613 1.96-6.613h12.739z" fill="#2F2E41"/><path d="M341.496 280.768a7.171 7.171 0 00-2.94 5.633c0 3.674-7.349-3.919-7.349-3.919s3.919-4.898 3.919-6.368c0-1.47 6.37 4.654 6.37 4.654z" fill="#FFB9B9"/><path d="M332.187 279.298s4.409 1.715 5.389 4.164c.98 2.449 4.655 7.593 4.655 7.593s5.144 5.388 3.429 11.267c-1.714 5.878-3.184 7.348-3.184 8.328 0 .979-2.45 2.694-4.41 2.449-1.96-.245-9.309-1.225-9.799-2.204-.49-.98-3.429-14.941-1.47-20.085a118.814 118.814 0 015.39-11.512z" fill="#D0CDE1"/><path d="M343.066 275.213c1.59.377 3.15-.636 4.453-1.64.74-.57 1.554-1.383 1.327-2.301-.201-.814-1.16-1.275-1.3-2.103-.097-.575.239-1.134.267-1.717a2.422 2.422 0 00-1.426-2.08c-.775-.417-1.654-.591-2.449-.964-1.215-.57-2.225-1.597-3.523-1.926-1.773-.45-3.578.507-5.401.631-1.103.075-2.22-.157-3.311.024a4.728 4.728 0 00-3.787 4.461c-.014.78.141 1.649-.324 2.268a3.44 3.44 0 01-.623.564c-1.621 1.311-2.357 3.5-2.441 5.61-.041 1.038.176 2.271 1.098 2.713a4.066 4.066 0 001.536.213 1.601 1.601 0 011.355.647c.42.741-.209 1.834.34 2.48.413.485 1.217.324 1.698-.09.482-.413.782-1.008 1.239-1.45.888-.86 2.205-1.015 3.422-1.146a1.739 1.739 0 001.004-.329c.221-.232.365-.527.412-.844a5.24 5.24 0 00.006-2.216 1.226 1.226 0 01-.028-.702.988.988 0 01.359-.402c.754-.567 2.076-1.392 3.056-1.236 1.088.173 1.944 1.274 3.041 1.535z" fill="#2F2E41"/><path d="M333.167 288.116s-2.94 3.919-2.94 8.572c0 4.654 3.675 20.085 5.634 20.085 1.96 0 17.639-8.573 17.639-8.573l-2.205-4.164-11.269 4.899s1.47-22.779-6.859-20.819z" fill="#D0CDE1"/><path d="M366.43 332.326h-56.258v10.905h56.258v-10.905z" fill="#F16C7D"/><path d="M338.301 343.805a4.595 4.595 0 01-4.593-4.592V210.072a4.598 4.598 0 012.621-4.146 4.59 4.59 0 014.871.586l-.725.89a3.446 3.446 0 00-3.653-.44 3.44 3.44 0 00-1.965 3.11v129.141a3.445 3.445 0 003.444 3.444v1.148zM491 386.852H28.31V388H491v-1.148z" fill="#3F3D56"/><path d="M329.62 271.681c.247-.199-.035-.961-.631-1.702-.595-.741-1.278-1.182-1.526-.983-.247.198.036.96.631 1.702.596.741 1.279 1.181 1.526.983z" fill="#F16C7D"/><path d="M280.435 367.987c-5.644 8.653-4.097 19.659-4.097 19.659s10.696-3.024 16.34-11.677c5.643-8.653 4.097-19.659 4.097-19.659s-10.696 3.024-16.34 11.677z" fill="#3F3D56"/><path d="M284.674 369.517c-.446 10.321-8.108 18.372-8.108 18.372s-6.94-8.682-6.494-19.003c.446-10.32 8.109-18.372 8.109-18.372s6.939 8.682 6.493 19.003z" fill="#F16C7D"/><path d="M187.559 371.261c2.698 9.971 11.939 16.147 11.939 16.147s4.867-9.991 2.169-19.963c-2.698-9.972-11.939-16.148-11.939-16.148s-4.867 9.992-2.169 19.964z" fill="#3F3D56"/><path d="M191.523 369.117c7.404 7.206 8.308 18.283 8.308 18.283s-11.099-.606-18.502-7.812c-7.404-7.205-8.308-18.282-8.308-18.282s11.099.606 18.502 7.811zM166.985 98.748c-.643 10.31-8.459 18.213-8.459 18.213s-6.772-8.813-6.128-19.123c.644-10.31 8.459-18.214 8.459-18.214s6.772 8.814 6.128 19.124zM85.517 33.568c8.74 5.51 11.928 16.156 11.928 16.156S86.462 51.44 77.722 45.93c-8.74-5.51-11.928-16.157-11.928-16.157s10.983-1.714 19.723 3.795zM66 159.265c8.74 5.51 11.927 16.157 11.927 16.157s-10.982 1.714-19.723-3.795c-8.74-5.51-11.927-16.157-11.927-16.157s10.982-1.714 19.722 3.795zM243.681 51.944c-2.636 9.988-11.838 16.222-11.838 16.222s-4.929-9.961-2.294-19.95c2.636-9.988 11.839-16.222 11.839-16.222s4.929 9.961 2.293 19.95zM326.825 59.732c-3.098 9.855-12.581 15.654-12.581 15.654s-4.46-10.18-1.362-20.035 12.581-15.654 12.581-15.654 4.46 10.18 1.362 20.035zM416.69 169.414c-5.611 8.674-16.297 11.737-16.297 11.737s-1.586-11 4.025-19.673c5.612-8.674 16.297-11.737 16.297-11.737s1.587 11-4.025 19.673z" fill="#F16C7D"/></g><defs><clipPath id="clip0"><path fill="#fff" d="M0 0h491v388H0z"/></clipPath></defs></svg>