<svg width="384" height="319" fill="none" xmlns="http://www.w3.org/2000/svg"><path opacity=".1" d="M222.846 42.324c-24.589-.855-48.007-8.791-70.37-17.476-22.362-8.685-44.511-18.309-68.511-22.91-15.437-2.96-33.092-3.377-45.527 4.898-11.97 7.978-15.839 21.712-17.917 34.47-1.565 9.597-2.485 19.7 1.801 28.68 2.979 6.239 8.26 11.482 11.915 17.458 12.715 20.789 3.727 46.427-10.05 66.726-6.458 9.525-13.962 18.616-18.95 28.745-4.988 10.129-7.295 21.751-2.93 32.092 4.324 10.258 14.632 17.948 25.797 23.362 22.678 10.999 49.39 14.144 75.457 15.926 57.684 3.948 115.672 2.238 173.508.528 21.404-.634 42.901-1.276 63.956-4.585 11.694-1.839 23.764-4.753 32.255-11.797 10.775-8.94 13.446-24.076 6.224-35.287-12.112-18.803-45.591-23.472-54.067-43.65-4.658-11.109.125-23.479 6.899-33.783 14.528-22.096 38.878-41.484 40.158-66.74.881-17.348-10.824-34.722-28.924-42.932-18.969-8.602-45.279-7.523-59.268 6.72-14.418 14.666-39.743 20.308-61.456 19.555zM183.691 312.34c63.781 0 115.485-6.995 115.485-15.623s-51.704-15.622-115.485-15.622-115.486 6.994-115.486 15.622 51.705 15.623 115.486 15.623z" fill="#F16C7D"/><path d="M246.713 110.11h-1.627a.87.87 0 00-.87.87v26.002c0 .481.39.87.87.87h1.627a.87.87 0 00.87-.87V110.98a.87.87 0 00-.87-.87zM133.374 88.375h-.148a.87.87 0 00-.87.87v7.393c0 .48.389.87.87.87h.148c.48 0 .87-.39.87-.87v-7.393a.87.87 0 00-.87-.87zM133.545 105.099h-.388a.87.87 0 00-.87.87v14.156c0 .481.39.87.87.87h.388a.87.87 0 00.87-.87v-14.156a.87.87 0 00-.87-.87zM133.476 126.557h-.285a.87.87 0 00-.87.87v14.293c0 .48.39.87.87.87h.285a.87.87 0 00.87-.87v-14.293a.87.87 0 00-.87-.87z" fill="#3A3768"/><path d="M231.219 58.194h-82.983c-8.181 0-14.813 6.632-14.813 14.813v199.236c0 8.181 6.632 14.813 14.813 14.813h82.983c8.182 0 14.814-6.632 14.814-14.813V73.007c0-8.181-6.632-14.813-14.814-14.813z" fill="#3A3768"/><path d="M230.148 64.14h-12.917v1.553a7.368 7.368 0 01-4.548 6.804c-.894.37-1.852.56-2.819.56h-41.081a7.366 7.366 0 01-7.367-7.364V64.14h-12.093a8.943 8.943 0 00-8.943 8.943v199.069a8.945 8.945 0 008.943 8.943h80.825a8.944 8.944 0 008.943-8.943V73.098a8.935 8.935 0 00-2.614-6.334 8.935 8.935 0 00-6.329-2.624z" fill="#F16C7D"/><path d="M193.12 65.028h-12.784a1.47 1.47 0 00-1.47 1.47v.251c0 .812.658 1.47 1.47 1.47h12.784a1.47 1.47 0 001.471-1.47v-.25a1.47 1.47 0 00-1.471-1.47zM198.781 68.436a1.813 1.813 0 100-3.625 1.813 1.813 0 000 3.625z" fill="#E6E8EC"/><path d="M285.02 48.156s-31.989-1.93-28.221 20.485c0 0-.759 3.963 2.842 5.76 0 0 .057-1.66 3.283-1.094 1.148.19 2.315.246 3.476.167a7.243 7.243 0 004.248-1.736s8.992-3.716 12.488-18.411c0 0 2.587-3.207 2.484-4.031l-5.398 2.306s1.846 3.894.38 7.131c0 0-.175-6.99-1.212-6.839-.209.03-2.804 1.35-2.804 1.35s3.172 6.78.779 11.712c0 0 .908-8.358-1.771-11.223l-3.799 2.219s3.708 7.006 1.193 12.724c0 0 .646-8.769-1.995-12.185l-3.442 2.687s3.484 6.903 1.36 11.644c0 0-.277-10.205-2.104-10.976 0 0-3.013 2.66-3.473 3.746 0 0 2.386 5.015.904 7.66 0 0-.908-6.801-1.652-6.84 0 0-3.002 4.507-3.313 7.6 0 0 .129-4.594 2.587-8.025 0 0-2.903.498-4.597 2.379 0 0 .467-3.184 5.338-3.465 0 0 2.481-3.42 3.142-3.625 0 0-4.84-.406-7.777.897 0 0 2.583-3.005 8.666-1.638l3.4-2.777s-6.375-.87-9.08.091c0 0 3.112-2.66 9.996-.721l3.7-2.212s-5.437-1.17-8.673-.76c0 0 3.419-1.842 9.76.156l2.659-1.189s-3.981-.782-5.148-.908c-1.166-.125-1.227-.444-1.227-.444a13.812 13.812 0 017.481.832s5.615-2.094 5.52-2.447zM252.206 38.187s-14.437-.87-12.75 9.258c0 0-.338 1.79 1.284 2.603 0 0 .027-.76 1.486-.498a6.654 6.654 0 001.569.076 3.252 3.252 0 001.918-.79s4.066-1.68 5.646-8.32c0 0 1.166-1.448 1.121-1.82l-2.439 1.04s.832 1.76.178 3.223c0 0-.079-3.158-.547-3.086-.095 0-1.269.612-1.269.612s1.436 3.066.354 5.293c0 0 .41-3.777-.802-5.072l-1.717 1.018s1.675 3.165.539 5.748c0 0 .293-3.963-.9-5.505l-1.554 1.216s1.573 3.119.615 5.262c0 0-.129-4.613-.953-4.962 0 0-1.36 1.2-1.569 1.694 0 0 1.079 2.28.41 3.461 0 0-.41-3.073-.76-3.088 0 0-1.356 2.036-1.497 3.419a7.417 7.417 0 011.17-3.625 4.09 4.09 0 00-2.078 1.076s.213-1.44 2.413-1.566c0 0 1.14-1.546 1.421-1.64 0 0-2.189-.183-3.515.406 0 0 1.167-1.357 3.914-.741l1.519-1.254s-2.883-.38-4.103.042c0 0 1.406-1.2 4.517-.327l1.672-1s-2.458-.527-3.921-.337c0 0 1.547-.832 4.411.068l1.197-.536s-1.801-.353-2.329-.41c-.528-.057-.555-.201-.555-.201a6.23 6.23 0 013.382.38s2.568-.958 2.522-1.117z" fill="#F16C7D"/><path opacity=".1" d="M328.32 295.54c5.651 0 10.232-.774 10.232-1.729 0-.955-4.581-1.728-10.232-1.728-5.65 0-10.231.773-10.231 1.728s4.581 1.729 10.231 1.729zM34.609 309.726c5.65 0 10.231-.774 10.231-1.729 0-.955-4.58-1.728-10.231-1.728-5.65 0-10.231.773-10.231 1.728s4.58 1.729 10.231 1.729zM74.185 319c5.651 0 10.232-.774 10.232-1.729 0-.955-4.58-1.729-10.232-1.729-5.65 0-10.23.774-10.23 1.729 0 .955 4.58 1.729 10.23 1.729z" fill="#F16C7D"/><path d="M305.923 314.919c8.438 0 15.277-1.156 15.277-2.583 0-1.427-6.839-2.584-15.277-2.584-8.437 0-15.276 1.157-15.276 2.584s6.839 2.583 15.276 2.583z" fill="#F16C7D"/><path d="M312.242 308.111a4.439 4.439 0 001.455-2.199c.19-.87-.182-1.9-1.018-2.238-.934-.357-1.934.292-2.69.946-.756.653-1.626 1.402-2.617 1.261a3.975 3.975 0 001.234-3.727 1.572 1.572 0 00-.345-.76c-.517-.554-1.459-.319-2.079.122-1.975 1.387-2.526 4.073-2.537 6.485-.202-.87-.031-1.778-.038-2.659-.008-.882-.247-1.9-1.003-2.367a3.016 3.016 0 00-1.52-.357c-.889-.034-1.877.057-2.485.706-.76.806-.554 2.158.099 3.04.653.881 1.653 1.447 2.572 2.059a5.697 5.697 0 011.835 1.751c.057.1.103.206.137.316h5.551a15.572 15.572 0 003.449-2.379zM74.713 274.788s2.09 2.732-.96 6.839c-3.052 4.107-5.567 7.598-4.56 10.17 0 0 4.605-7.655 8.359-7.762 3.753-.106 1.284-4.642-2.839-9.247z" fill="#F16C7D"/><path opacity=".1" d="M74.714 274.788c.182.264.325.554.425.859 3.655 4.293 5.604 8.301 2.09 8.4-3.272.095-7.196 5.946-8.138 7.424.03.114.068.224.11.338 0 0 4.605-7.656 8.358-7.762 3.754-.107 1.277-4.654-2.845-9.259z" fill="#000"/><path d="M78.593 278.268c0 .961-.107 1.74-.24 1.74s-.24-.779-.24-1.74.134-.509.267-.509.213-.452.213.509z" fill="#FFD037"/><path d="M79.926 279.416c-.843.459-1.58.737-1.641.619-.061-.118.566-.585 1.41-1.045.843-.46.512-.125.573 0 .06.125.501-.034-.342.426z" fill="#FFD037"/><path d="M63.692 274.788s-2.09 2.732.961 6.839c3.05 4.107 5.566 7.598 4.56 10.17 0 0-4.602-7.655-8.36-7.762-3.757-.106-1.29-4.642 2.839-9.247z" fill="#F16C7D"/><path opacity=".1" d="M63.692 274.788a3.426 3.426 0 00-.43.859c-3.654 4.293-5.6 8.301-2.09 8.4 3.276.095 7.2 5.946 8.143 7.424-.031.114-.07.227-.114.338 0 0-4.601-7.656-8.359-7.762-3.757-.107-1.28-4.654 2.85-9.259z" fill="#000"/><path d="M59.809 278.268c0 .961.11 1.74.243 1.74s.24-.779.24-1.74-.134-.509-.267-.509-.216-.452-.216.509z" fill="#FFD037"/><path d="M58.48 279.416c.843.459 1.576.737 1.64.619.066-.118-.569-.585-1.412-1.045-.844-.46-.51-.125-.574 0-.065.125-.498-.034.346.426z" fill="#FFD037"/><path d="M60.474 291.452s5.835-.183 7.598-1.433 8.978-2.75 9.411-.741c.433 2.01 8.772 9.989 2.184 10.042-6.587.053-15.31-1.026-17.066-2.094-1.755-1.067-2.127-5.774-2.127-5.774z" fill="#A8A8A8"/><path opacity=".2" d="M79.781 298.621c-6.587.053-15.31-1.026-17.066-2.093-1.333-.817-1.869-3.739-2.048-5.084h-.193s.38 4.704 2.123 5.775c1.744 1.072 10.479 2.147 17.067 2.094 1.9 0 2.557-.692 2.522-1.695-.266.616-.991.992-2.405 1.003z" fill="#000"/><path d="M107.228 168.953a.351.351 0 00.414.053 1.48 1.48 0 01-.414-.053z" fill="url(#paint0_linear)"/><path d="M152.754 93.348c-.802-.235-1.941-.619-3.321-1.102a17.775 17.775 0 003.078-6.28l-.118.046c.038-.14.08-.277.118-.418-2.637 1.087-5.559-.76-7.416-3.12-1.858-2.359-3.123-5.295-5.156-7.472a23.818 23.818 0 00-2.732-2.382c-.6-.472-1.25-.962-1.983-.984-1.185-.035-2.116 1.14-3.259 1.493a4.416 4.416 0 01-2.28-.084c-2.952-.688-5.798-1.953-8.795-2.28a10.163 10.163 0 00-4.772.544c-1.52.585-2.204 1.744-3.419 2.66-1.319.995-3.944.972-5.498 1.14a39.369 39.369 0 01-5.676.238 12.875 12.875 0 00-3.267.122c-2.257.502-4.07 2.318-5.76 4.065a3.04 3.04 0 00-.954 1.52c-.02.166-.02.335 0 .501-.017.455.06.908.228 1.33a17.63 17.63 0 002.166 4.43c.691 1.003 1.493 1.945 1.9 3.13.186.584.285 1.193.292 1.805-.021.651-.088 1.3-.201 1.942a24.69 24.69 0 01-1.463 5.163c-.357.881-.76 1.759-.855 2.724a4.915 4.915 0 000 .577c-.114 2.975 2.853 5.122 3.42 8.081.044.245.072.493.083.741-.065 1.847-1.102 3.651-2.629 4.366.133.053.27.098.406.148a4.44 4.44 0 01-.406.228c.277.106.562.197.851.281a19.985 19.985 0 00-4.335 5.387c-5.114 9.7-39.968 28.726-39.968 28.726s.198.11.517.3c-.13.08-.266.171-.418.274-3.017 2.036-10.099 7.978-3.697 15.47 0 0 4.996-7.997 8.495-11.397.16-.152.312-.293.46-.426a1.038 1.038 0 01.137.821l22.92-13.058s8.146-5.783 10.418-7.09c.783-.448 2.777-1.694 5.163-2.245l-.266.118c.857-.24 1.74-.367 2.63-.38 4.057.064 8.449 3.077 9.9 15.011 1.942 15.979 1.041 18.859.418 19.254a1.116 1.116 0 01-.228-.042.337.337 0 00.061.046 1.078 1.078 0 01-.251-.046.35.35 0 00.335.084.335.335 0 00.254-.03h.308c0 .144-.023.296-.034.444-.031 0-.183.087 0 .099-.046.9-.042 1.9 0 2.906-2.018.114-4.031.236-5.798.346l.16-.847.072-.38c1.546-.125 3.016-.585 3.187-1.862.38-2.796-3.419-4.289-6.63-4.475-3.21-.186-22.54 1.121-22.54 1.121s-2.899 3.799 6.291 4.98c.274.145.559.304.848.471 3.597 2.082 8.483 5.912 10.82 7.8l.326.262-1.048.848c5.699 1.307 11.177 23.319 14.205 33.391 3.028 10.072 9.662 9.7 15.155 8.21 5.148-1.402 5.806-16.557 5.866-18.46v-.194l9.153 11.44.695.87c.27.14.532.273.79.399 6.934 3.347 14.593-3.066 12.412-10.361-2.199-7.371-5.619-18.263-7.898-22.868-1.9-3.856-4.373-10.258-5.87-14.277.194-.08.383-.171.566-.274l-.095-.509.095-.049s-2.203-11.607-2.325-19.847v-.434-.269a37.408 37.408 0 012.705-.532l.03-.357-.193.041.919-10.691s3.381-7.29.794-10.33a6.457 6.457 0 01-1.52-3.157c-.433-2.796 0-7.45 6.03-11.322 9.281-5.968 12.883-10.82 12.883-10.82s.198-3.563-5.486-5.243zm-18.434 7.416v-4.939c1.721-.083 3.48.118 5.209 0 .85-.06 1.692-.202 2.515-.425l.418.292a45.83 45.83 0 01-8.142 5.072zm-26.313 77.433c.68.478 1.363.976 2.036 1.474.418 2.435.786 4.156.813 4.274a34.274 34.274 0 00-2.849-5.748z" fill="url(#paint1_linear)"/><path d="M122.884 175.077l-.41 2.226-.315 1.703-.574 3.115-5.562 3.894s-.502-.429-1.33-1.105c-2.28-1.877-7.07-5.699-10.588-7.751a11.828 11.828 0 00-2.911-1.341l21.69-.741z" fill="#FFBDC6"/><path opacity=".1" d="M122.884 175.077l-.41 2.226a17.404 17.404 0 01-3.67-.189l-12.978.186a39.366 39.366 0 01-1.721-.141 11.828 11.828 0 00-2.911-1.341l21.69-.741z" fill="#000"/><path d="M118.804 176.734s6.485 1.113 6.865-1.657c.38-2.769-3.34-4.266-6.489-4.452-3.15-.186-22.062 1.113-22.062 1.113s-3.336 4.449 8.711 5.193l12.975-.197z" fill="#474463"/><path opacity=".1" d="M122.884 175.077l-.41 2.226-.315 1.703-.574 3.115-5.562 3.894s-.502-.429-1.33-1.105c-2.28-1.877-7.07-5.699-10.588-7.751a11.828 11.828 0 00-2.911-1.341l21.69-.741z" fill="#000"/><path opacity=".1" d="M122.884 175.077l-.41 2.226a17.404 17.404 0 01-3.67-.189l-12.978.186a39.366 39.366 0 01-1.721-.141 11.828 11.828 0 00-2.911-1.341l21.69-.741z" fill="#000"/><path opacity=".1" d="M118.804 176.726s6.489 1.11 6.861-1.671c.372-2.781-3.339-4.263-6.489-4.449-3.149-.187-22.062 1.113-22.062 1.113s-3.336 4.449 8.712 5.19l12.978-.183z" fill="#000"/><path d="M132.986 85.34H99.059v40.229h33.927v-40.23z" fill="#474463"/><path opacity=".1" d="M132.986 85.522H99.059v40.23h33.927v-40.23z" fill="#000"/><path d="M59.296 154.208c-.558.141-1.272.68-2.066 1.463C53.81 159.056 48.913 167 48.913 167c-6.261-7.458.669-13.35 3.62-15.375.719-.491 1.201-.76 1.201-.76l5.562 3.343zM122.512 98.036s1.667 11.679 7.416 14.46c5.748 2.781-7.416 7.978-7.416 7.978l-17.982-6.679s10.197-3.339 8.157-13.164l9.825-2.595zM103.231 168.299l-.407 2.219-.33 1.71-.574 3.115-5.562 3.891s-.502-.426-1.33-1.102c-2.28-1.877-7.07-5.699-10.592-7.751a11.818 11.818 0 00-2.91-1.341l21.705-.741z" fill="#FFBDC6"/><path opacity=".1" d="M103.23 168.299l-.406 2.219a17.34 17.34 0 01-3.67-.19l-12.978.186a39.753 39.753 0 01-1.725-.14 11.747 11.747 0 00-2.91-1.341l21.689-.734z" fill="#000"/><path d="M99.154 169.967s6.489 1.11 6.858-1.667c.368-2.778-3.336-4.267-6.49-4.453-3.153-.186-22.058 1.113-22.058 1.113s-3.34 4.449 8.712 5.194l12.978-.187z" fill="#474463"/><path opacity=".1" d="M102.493 172.228l-.573 3.115-5.562 3.891s-.502-.426-1.33-1.102l7.355-6.033.11.129z" fill="#000"/><path d="M139.228 214.669c-.254-.125-.509-.255-.76-.38l-.683-.862-8.97-11.375v.197c-.061 1.9-.707 16.953-5.745 18.343-5.376 1.482-11.861 1.854-14.817-8.157-2.956-10.011-8.358-31.887-13.905-33.186l8.252-6.767s5.463 6.391 7.69 12.507c-.084-.38-3.857-18.008-.76-21.127h27.069s4.179 11.903 7.044 17.799c2.23 4.578 5.577 15.402 7.731 22.727 2.136 7.234-5.36 13.621-12.146 10.281z" fill="#474463"/><path opacity=".1" d="M138.457 167.186c-4.179 2.474-22.525 1.467-28.494 1.064l-1.626-.118c-.175 0 .026-.098.026-.098l.168-1.683 4.449-11.307 23.821-13.814c-.483 1.455-.642 3.681-.604 6.231.11 8.191 2.26 19.725 2.26 19.725z" fill="#000"/><path d="M138.457 166.628c-4.179 2.473-22.526 1.466-28.494 1.063l-1.626-.114-.27-.022.296-.076 1.467-.38 3.149-12.606 23.822-13.81c-.483 1.455-.643 3.681-.605 6.23.111 8.184 2.261 19.715 2.261 19.715z" fill="#F2F1F2"/><path opacity=".1" d="M136.181 146.906c-4.844 1.117-15.504 4.395-19.6 12.309-2.732 5.27-5.03 7.53-6.633 8.476l-1.626-.114c.01-.032.019-.065.026-.098l1.467-.38 3.149-12.606 23.821-13.81c-.478 1.447-.642 3.673-.604 6.223zM53.734 150.872l5.562 3.336c-.558.14-1.273.68-2.067 1.463-.463-1.353-3.373-3.241-4.695-4.047.718-.482 1.2-.752 1.2-.752zM107.33 167.794a.328.328 0 01-.38-.053c.123.036.251.054.38.053z" fill="#000"/><path d="M119.917 111.756s-5.007.554-8.529-3.154c0 0-14.817 4.267-19.836 13.905-5.019 9.639-39.132 28.552-39.132 28.552s5.934 3.335 5.376 5.003l22.434-12.978s7.978-5.744 10.194-7.044c2.214-1.299 14.463-9.27 17.058 12.42 2.595 21.69 0 19.095 0 19.095s3.708 1.299 9.084-9.084c5.376-10.383 22.058-12.792 22.058-12.792l.927-10.934s3.31-7.249.76-10.258a6.457 6.457 0 01-1.485-3.138c-.422-2.778 0-7.405 5.904-11.25 9.084-5.934 12.606-10.752 12.606-10.752s.186-3.525-5.376-5.193c-5.562-1.668-28.179-10.752-28.179-10.752l-.76 3.153 17.845 12.595s-8.898 7.218-15.957 7.043c0 0 1.311 5.376-4.992 5.563z" fill="#FF748E"/><path opacity=".1" d="M123.351 103.12a36.204 36.204 0 01-1.025-4.53l-9.825 2.596a10.77 10.77 0 01-.224 5.668 10.567 10.567 0 0011.074-3.734z" fill="#000"/><path d="M115.191 106.657c5.835 0 10.565-4.731 10.565-10.566 0-5.835-4.73-10.566-10.565-10.566-5.836 0-10.566 4.73-10.566 10.566 0 5.835 4.73 10.566 10.566 10.566z" fill="#FFBDC6"/><path opacity=".1" d="M120.81 72.06c2.933.331 5.718 1.593 8.605 2.28.721.226 1.49.256 2.226.088 1.121-.35 2.033-1.52 3.195-1.486.715 0 1.349.51 1.938.977a23.57 23.57 0 012.66 2.37c1.99 2.162 3.225 5.072 5.041 7.424 1.816 2.352 4.681 4.18 7.26 3.1-1.755 6.839-7.503 12.048-13.722 12.473-2.481.167-5.023-.35-7.424.38a6.566 6.566 0 01-1.873.456c-1.383 0-2.496-1.269-3.359-2.504-2.021-2.902-3.62-6.2-5.896-8.848-.76-.874-1.638-1.706-2.701-1.866-1.064-.16-2.041.346-2.987.836-1.561.81-3.157 1.65-4.369 3.04-1.212 1.39-1.975 3.457-1.474 5.319.27 1.01.885 1.922.897 2.978.023 1.683-1.467 2.918-1.759 4.559-.066.69-.09 1.382-.072 2.075-.13 2.249-1.6 4.091-3.135 5.505-.6.551-1.261 1.139-1.436 1.991-.118.577 0 1.192-.076 1.778-.224 1.458-1.679 2.199-2.967 2.393a8.637 8.637 0 01-4.453-.528c1.801-.855 2.91-3.275 2.493-5.448-.574-3.009-3.598-5.167-3.34-8.233a9.586 9.586 0 01.836-2.709 24.717 24.717 0 001.428-5.129c.228-1.36.338-2.8-.087-4.092-.38-1.181-1.174-2.116-1.846-3.111a17.655 17.655 0 01-2.14-4.385 3.04 3.04 0 01-.205-1.447c.148-.59.473-1.12.931-1.52 1.653-1.736 3.42-3.544 5.635-4.038a12.507 12.507 0 013.198-.126c1.857.06 3.714-.018 5.559-.235 1.519-.179 4.088-.152 5.376-1.14 1.2-.923 1.877-2.074 3.354-2.66a9.812 9.812 0 014.689-.516zM126.683 181.183s6.117 12.051 4.263 15.755l-4.263-15.755zM137.773 213.412l-8.958-11.36v.198s-.517-3.678 1.189-2.443c3.738 2.705 9.718 7.138 9.848 7.902.129.764-1.212 3.815-2.079 5.703z" fill="#000"/><g opacity=".1" fill="#000"><path opacity=".1" d="M125.107 106.193s.76 3.131-1.687 4.696c3.761-.642 3.928-3.571 3.799-4.844-.698.112-1.405.161-2.112.148zM54.661 150.314s34.11-18.909 39.132-28.548c3.59-6.918 12.245-11.067 16.842-12.86-3.35 1.14-14.642 5.436-18.882 13.601-5.003 9.639-39.132 28.551-39.132 28.551l2.04-.744zM131.748 104.719c5.805-1.805 11.352-6.31 11.352-6.31l-17.811-12.614.406-1.725-1.705-.684-.741 3.154 17.799 12.605a42.995 42.995 0 01-9.3 5.574zM131.851 147.441a44.311 44.311 0 016.975-1.763l.03-.357a47.419 47.419 0 00-7.005 2.12zM110.279 166.863h-.164a.33.33 0 01-.198.033.33.33 0 01-.182-.086c.124.036.252.054.38.053.608-.353 1.52-3.123-.38-19.148-2.044-17.097-10.087-15.763-14.486-13.795 4.498-1.239 10.687-.167 12.446 14.536 1.919 16.025 1.003 18.794.38 19.148a4.112 4.112 0 002.204-.741zM108.075 167.608a1.316 1.316 0 01-.38-.053.333.333 0 00.38.053z"/></g><path d="M120.81 71.689c2.933.334 5.717 1.591 8.605 2.279.721.224 1.49.253 2.226.084 1.121-.346 2.033-1.52 3.195-1.486.715.023 1.349.51 1.938.977a23.855 23.855 0 012.659 2.37c1.991 2.162 3.226 5.072 5.042 7.424 1.816 2.352 4.681 4.18 7.26 3.1-1.755 6.839-7.503 12.047-13.723 12.473-2.48.171-5.022-.346-7.423.38a6.437 6.437 0 01-1.873.456c-1.383 0-2.496-1.27-3.359-2.504-2.021-2.903-3.62-6.196-5.896-8.845-.76-.877-1.638-1.71-2.701-1.869-1.064-.16-2.041.35-2.987.84-1.561.81-3.157 1.645-4.369 3.04-1.212 1.394-1.975 3.453-1.474 5.318.27 1.01.885 1.923.897 2.979.023 1.687-1.467 2.918-1.759 4.559a17.3 17.3 0 00-.073 2.074c-.129 2.249-1.599 4.088-3.134 5.505-.6.548-1.261 1.14-1.436 1.987-.118.582 0 1.193-.076 1.782-.224 1.459-1.679 2.2-2.967 2.39a8.563 8.563 0 01-4.453-.528c1.801-.851 2.91-3.275 2.492-5.444-.573-3.009-3.598-5.171-3.34-8.233.143-.94.425-1.853.837-2.709a24.821 24.821 0 001.428-5.133c.228-1.356.338-2.796-.087-4.092-.38-1.177-1.174-2.116-1.847-3.111a17.692 17.692 0 01-2.139-4.38 3.08 3.08 0 01-.205-1.452 2.994 2.994 0 01.931-1.5c1.653-1.737 3.42-3.542 5.634-4.04a12.677 12.677 0 013.199-.121 37.78 37.78 0 005.559-.236c1.519-.178 4.088-.155 5.376-1.14 1.2-.919 1.876-2.074 3.354-2.659a9.88 9.88 0 014.689-.535z" fill="#474463"/><path d="M190.415 196.736c11.765 0 21.303-9.537 21.303-21.302 0-11.765-9.538-21.302-21.303-21.302s-21.302 9.537-21.302 21.302c0 11.765 9.537 21.302 21.302 21.302z" fill="#fff"/><path d="M218.404 172.627a28.467 28.467 0 01-17.576 26.304 28.467 28.467 0 01-31.027-6.172 28.467 28.467 0 01-6.172-31.028 28.47 28.47 0 0154.775 10.896zm-31.761 15.071l21.12-21.12a1.836 1.836 0 000-2.598l-2.599-2.58a1.832 1.832 0 00-2.595 0l-17.226 17.226-8.043-8.062a1.838 1.838 0 00-2.598 0l-2.599 2.614a1.843 1.843 0 000 2.598l11.941 11.938a1.845 1.845 0 002.003.399c.223-.093.425-.229.596-.399v-.016z" fill="#3ACC6C"/><defs><linearGradient id="paint0_linear" x1="107.436" y1="169.051" x2="107.436" y2="168.953" gradientUnits="userSpaceOnUse"><stop stop-color="gray" stop-opacity=".25"/><stop offset=".54" stop-color="gray" stop-opacity=".12"/><stop offset="1" stop-color="gray" stop-opacity=".1"/></linearGradient><linearGradient id="paint1_linear" x1="41152.9" y1="92418.5" x2="41152.9" y2="32655.1" gradientUnits="userSpaceOnUse"><stop stop-color="gray" stop-opacity=".25"/><stop offset=".54" stop-color="gray" stop-opacity=".12"/><stop offset="1" stop-color="gray" stop-opacity=".1"/></linearGradient></defs></svg>