<svg width="100" height="49" fill="none" xmlns="http://www.w3.org/2000/svg"><g clip-path="url(#clip0)"><path d="M0 48.439h48.447V-.001H0v48.44zM98.552.007H51.56v48.44H100V.007h-1.448z" fill="#0055A5"/><path d="M54.463 45.544H97.09V2.91H54.462v42.634zM4.436 26.546v10.1H6.1v-2.932c.326.282.684.452 1.068.452.55 0 1.003-.29 1.358-.869.398-.644.597-1.596.597-2.841 0-.87-.16-1.651-.47-2.317l-.055-.109-.054-.09-.037-.09-.054-.073-.055-.09-.072-.09-.055-.073-.054-.073-.073-.072-.054-.072-.072-.073-.073-.054-.072-.072-.073-.055-.072-.055-.072-.054-.09-.036-.073-.054-.072-.036-.09-.036-.091-.037-.09-.036-.091-.036-.09-.018-.09-.018-.091-.018-.108-.036h-.09l-.109-.018h-.09l-.11-.018H4.437zm1.575 1.43h.162c.42 0 .746.243.977.706.232.463.345 1.18.345 2.172 0 .536-.066.96-.218 1.249-.144.29-.333.434-.542.434-.203 0-.37-.137-.507-.398-.137-.254-.217-.619-.217-1.104v-3.059zm37.6-1.92l-.137.136s-3.482 3.635-3.742 3.91V26.54h-1.63v10.12h1.63v-4.155c.043-.05 2.135-2.266 2.374-2.519l.239 6.675h1.665l-.398-10.606zm-7.942.137l-.007.014-.015.007-.014.022-.022.022-.03.029-.028.029-.037.036-.036.037-.043.043-.043.051-.051.05-.05.05-.052.059-.058.058-.065.065-.13.137-.137.145-.145.152-.152.16-.159.166-.167.166-.166.174-.167.181-.34.355-.166.174-.166.166-.16.166-.151.167-.152.153-.138.145-.13.137-.065.065-.058.065-.058.058-.05.058-.051.05-.044.052-.043.043-.043.044-.036.036-.03.03-.028.028-.022.029-.022.014-.015.023v-3.562h-1.636v10.12h1.636v-4.155c.043-.05 2.136-2.266 2.374-2.52.015.37.24 6.676.24 6.676h1.657L35.8 26.055l-.13.138zm-9.47 7.956l-.1-.123-.087-.123-.087-.137-.073-.138-.072-.145-.066-.144-.065-.152-.05-.152-.044-.166-.043-.16-.037-.174-.029-.173-.022-.182-.014-.18-.008-.19-.007-.187c0-1.064.26-1.912.767-2.534.558-.68 1.369-1.02 2.426-1.02h.079v-1.767h-.08c-1.65 0-2.917.506-3.778 1.527-.782.92-1.18 2.201-1.18 3.808 0 1.55.434 2.83 1.281 3.794.898 1.013 2.136 1.535 3.7 1.535h.08v-1.774h-.08c-1.027 0-1.838-.348-2.41-1.043zm-13.094-7.856c-.875 0-1.574.496-2.081 1.466-.492.956-.742 2.226-.742 3.782 0 1.608.235 2.908.706 3.856.478.97 1.19 1.465 2.117 1.465.95 0 1.698-.524 2.227-1.538.492-.948.742-2.23.742-3.801 0-1.55-.254-2.817-.76-3.764l-.055-.09-.055-.091-.036-.09-.072-.073-.037-.072-.072-.073-.055-.072-.054-.073-.055-.072-.072-.072-.055-.055-.072-.054-.055-.055-.072-.054-.054-.055-.073-.054-.072-.037-.072-.036-.073-.035-.072-.036-.073-.037-.072-.036-.072-.018-.09-.037-.073-.018-.09-.018-.073-.018h-.072l-.09-.017-.091-.018h-.18zm0 1.629c.464 0 .804.33 1.014.995.203.601.29 1.477.29 2.607 0 1.093-.102 2.001-.326 2.696l-.037.073-.017.054-.018.054-.018.055-.018.054-.036.055-.018.054-.037.037-.018.054-.036.037-.018.054-.018.037-.036.035-.036.037-.018.035-.036.018-.018.036-.037.036-.035.018-.037.036-.037.018-.036.018-.018.018-.036.018h-.037l-.037.018-.035.018h-.037l-.036.018h-.128c-.398 0-.698-.34-.923-1.014-.232-.702-.344-1.604-.344-2.66 0-1.079.112-1.97.344-2.643.212-.643.519-.976.924-.976zm6.818 6.227l-.043-.058-.051-.065-.095-.123-.079-.137-.08-.138-.072-.145-.065-.144-.058-.152-.058-.152-.043-.166-.044-.16-.029-.174-.029-.173-.021-.182-.014-.18-.015-.19v-.187c0-1.064.253-1.912.768-2.534.55-.68 1.36-1.02 2.418-1.02h.086v-1.767h-.087c-1.643 0-2.917.506-3.771 1.527-.79.92-1.18 2.201-1.18 3.808 0 1.55.427 2.83 1.281 3.794.89 1.013 2.136 1.535 3.7 1.535h.08v-1.774h-.08c-1.036 0-1.847-.348-2.419-1.043zM4.452 11.699v10.172h1.875v-8.485h2.317v8.485h1.868V11.699h-6.06zm11.802-.265c-.992 0-1.788.499-2.352 1.484-.558.963-.833 2.237-.833 3.8 0 1.614.26 2.936.796 3.892.543.977 1.347 1.466 2.39 1.466 1.063 0 1.903-.51 2.497-1.539.558-.955.85-2.247.85-3.819 0-1.563-.303-2.845-.868-3.8l-.055-.09-.054-.09-.055-.091-.072-.073-.054-.09-.073-.072-.054-.073-.073-.072-.072-.072-.055-.055-.072-.072-.072-.055-.073-.054-.072-.055-.09-.054-.073-.037-.072-.054-.073-.037-.09-.036-.072-.036-.09-.037-.091-.036-.072-.018-.09-.036-.091-.018-.09-.018-.09-.018-.091-.018h-.2l-.09-.018h-.109zm.019 1.719c.506 0 .865.326 1.104.978.217.593.325 1.458.325 2.588 0 1.078-.127 1.98-.38 2.66-.246.667-.586.978-1.05.978h-.162l-.037-.018-.037-.018H16l-.037-.018-.035-.018-.037-.018-.036-.018-.037-.018-.036-.037-.036-.017-.037-.036-.036-.018-.018-.037-.037-.036-.036-.036-.018-.037-.037-.036-.036-.055-.018-.036-.037-.037-.017-.054-.036-.055-.018-.036-.018-.072-.037-.055-.018-.054-.018-.055-.036-.054c-.253-.703-.38-1.593-.38-2.643 0-1.078.127-1.958.38-2.624.242-.643.579-.958 1.035-.958zm13.525-1.454v1.687h1.557v8.485h1.875v-8.485h1.578V11.7h-5.01zm-4.105 3.54h-1.02c-.42 0-.739-.094-.935-.282-.145-.13-.21-.312-.21-.543v-2.715h-1.875v2.903c0 .666.268 1.238.79 1.687.513.441 1.15.666 1.881.666h1.368v4.915h1.876V11.699h-1.876v3.54h.001zm11.556-3.534l-.344 10.172h1.864s.174-4.753.181-4.977h2.335l.543 4.977h1.882l-.869-7.439v-.27l-.018-.091v-.09l-.018-.073v-.09l-.018-.073-.018-.09-.018-.072-.018-.073-.018-.072-.018-.073-.036-.072-.018-.072-.018-.073-.036-.072-.037-.055-.036-.072-.018-.055-.037-.072-.036-.054-.055-.055-.036-.072-.037-.037-.054-.072-.037-.037-.054-.054-.055-.054-.054-.037-.037-.054-.072-.055c-.47-.37-1.108-.543-1.918-.543h-2.767v.001zm1.792 1.683h.67c.485 0 .81.156 1.013.453.167.246.279.716.344 1.375h-2.081v-.29l.018-.054v-.723l.018-.073v-.525l.017-.037v-.126h.001z" fill="#fff"/><path d="M66.235 15.659l.065.151.08.146.079.151.094.16.05.072.059.08.05.08.058.08.066.078.064.08.065.08.072.08.08.086.08.08.08.087.087.087.094.087.094.087.101.087.11.094.108.087.115.093.116.094.123.102.138.094.13.101.145.094.145.101c.354.247.76.76.456 1.477-.304.724-.869 1.738-.529 2.136.34.398 1.542.6 2.527.21 0 0 .21.623.572 1.02 0 0-.174.34-.738.167 0 0 .21.514-.08 1.064 0 0-.659-.116-.949-.724 0 0-.26.478-.788.644 0 0-.435-.224-.34-1.093 0 0-.319.775-1.304.906 0 0-.564-.717.174-1.68 0 0-.536.47-1.491.246 0 0-.16-.492.717-1.173 0 0-.985-.043-1.361-.868 0 0 .412-.514 1.433-.399 0 0-.948-.21-1.158-1.34 0 0 .68-.434 1.766.261 0 0-.188-.362-.644-.724-.457-.346-1.007-1.352-.811-2.83zm3.953 11.403l-.03-.036-.02-.036-.03-.037-.021-.036-.022-.036-.022-.036-.022-.029L70 26.78l-.022-.036-.021-.037-.015-.036-.022-.036-.014-.029-.022-.036-.015-.036-.014-.037c.173 1.376.231 2.303.97 3.193 0 0 .456-.593.159-2.041a1.495 1.495 0 01-.398-.188s.173.586.065 1.18c0-.001-.268-.197-.463-1.58zm-1.289-.145l-.007-.007-.007-.015-.007-.014-.014-.007-.007-.015-.015-.014-.007-.014-.015-.015-.007-.014-.015-.022-.022-.029-.021-.036-.03-.037-.02-.036-.023-.036-.029-.036-.021-.036-.022-.029-.022-.036-.006-.021-.008-.015-.014-.014-.007-.015c-.065.797-.275 2.896.434 3.555 0 0 .478-.355.652-3.417-.102.174-.283.355-.37.456 0 0 .116.97-.232 1.657 0 0-.348-.269-.138-1.738zm-1.673 1.607l.051-.065.05-.08.052-.087.05-.093.044-.095.043-.101.037-.109.044-.108.036-.116.036-.116.029-.116.029-.123.058-.239.021-.116.029-.116.022-.115.014-.109.023-.108.014-.109.014-.101.015-.094.014-.087.008-.08.007-.08.008-.065.007-.029v-.029l.006-.029v-.043l.008-.014v-.058c.08-.05.166-.116.246-.181.037-.03.066-.051.102-.087 0 .08 0 .16.006.24-.087 1.273-.188 2.59-.586 3.25-.39.644-1.108.977-1.108.977-.673-1.202.138-2.809.818-3.93.09-.03.177-.067.26-.11-.246.861-.695 1.882-.507 2.671zm-1.672-3.685v.101l.008.022v.043l.007.007v.036l.007.014v.022l.007.007v.022l.008.007v.022l.007.007c.007.015.014.05.029.087-.565.543-.985 1.078-1.817 2.237-.84 1.165-2.165 1.209-2.165 1.209.13-.942.384-1.688 1.093-2.484.702-.803 1.615-1.535 2.28-2.02.174.08.398.13.681.095.014 0 .044-.008.066-.008a1.013 1.013 0 00-.174.34c-.507.29-1.97 1.036-2.563 2.23 0 .002.926-.288 2.526-1.996zm-1.05-1.166l.058-.108a.577.577 0 01.058-.087c-.55.21-2.49.941-3.12 1.267-.623.326-1.535 1.064-2.028 2.57 0 0 1.311.116 2.397-.782 1.078-.89 2.338-2.142 2.874-2.54a.696.696 0 01-.123-.138s-1.462 1.297-3.012 1.854c0 0 .334-.594.942-1.035.745-.53 1.303-.704 1.954-1zm-1.107-.89l.007-.015.007-.021.008-.022.007-.014.007-.022.007-.022.008-.007v-.008l.007-.007.007-.015c-.644.138-2.245.326-2.961.544-.717.217-2.006.745-2.773 2.208 0 0 1.13.348 3.25-.652 2.13-.999 2.795-1.209 3.2-1.317a1.476 1.476 0 01-.673-.203c-.847.377-1.976.825-3.105.854 0 0 .557-.39 1.136-.637a14.718 14.718 0 011.86-.644zm.05-1.057l.037.021.036.015.036.014.043.022.036.007.036.015.036.014.036.008.037.014.043.008.037.007.043.008.022.007h.021l.022.008h.043l.03.007h.02l.023.008a1.815 1.815 0 00-.413.376c-.753.217-2.027.45-4.134.601-2.107.16-3.228-.231-3.228-.231.73-.45 1.903-.906 2.693-1.057.796-.153 2.874-.13 3.779-.26.014.014.13.1.311.21-.775.072-2.403.144-3.25.564 0-.002 1.557.207 3.606-.386zm-.159-1.209l.022-.014.021-.008.022-.014.021-.007.022-.015.022-.007.022-.015.029-.014.021-.008.022-.014.03-.008.028-.014.022-.015.029-.007.029-.014.028-.008c-1.064-.318-2.526-.84-4.727-.984-1.614-.109-2.787-.015-3.388.144 0 0 1.47 1.036 3.157 1.405 1.68.362 3.047.13 4.04.137.072-.101.144-.203.26-.318-1.166.007-3.113-.29-3.808-.522 0 .001 1.694-.36 4.076.32zm0-1.253v.015l.008.007v.015l.007.014v.022l.007.022.007.022.014.029.007.022.015.036.014.03.015.028.014.037.022.036.022.037.021.036.03.036.021.043.03.037.035.036.036.044.037.036.035.044.044.036.043.036.05.037.051.043.059.029.05.037.065.035.065.03c-1.499-.652-4.452-1.029-6.03-1.695-2.144-.883-2.535-1.998-2.535-1.998 1.854-.05 3.352.406 4.504.76 1.36.413 3.416 1.18 4.133 1.506-.268.008-.565.08-.81.254-1.007-.383-1.478-.55-2.397-.81-.717-.203-1.253-.24-1.701-.283 0 0 .637.42 1.68.753 1.036.33 1.485.387 2.332.546zm-.116-1.636l.008.008.007.014.007.015.007.007.008.015.007.014.006.015.015.014.007.015.007.014.015.021.006.015.022.036.03.03.02.035.023.03.007.021.014.015.007.014.015.015.007.014.015.015.007.014.008.015.007.007.007.015.007.007.008.015c-2.368-.399-4.974-2.187-5.777-3.302-.804-1.107-.573-2.765-.573-2.765.782.159 2.476 1.622 2.91 2.063.442.434 1.774 1.73 2.694 2.454l.282.826a93.427 93.427 0 00-2.303-1.774c-.448-.34-1.121-.81-1.78-1.042 0 0 .608.796 1.107 1.187.573.456 1.151.847 1.63 1.108.428.23.645.368 1.506.78z" fill="#0055A5"/><path d="M69.847 24.26l.015-.015.014-.014.007-.008.014-.014.015-.015.014-.007.008-.014.014-.008.008-.014.014-.015.007-.007.015-.015.007-.007.015-.015.008-.007.014-.015c.109.145.47.602.651 1.057.138.384.283.913.356 1.209.072.312.282.934.42 1.15 0 0-.58.08-1.007-.426-.42-.485-.558-.977-.63-1.484a5.686 5.686 0 01.021-1.316zm-.912.073l.014.014.007.015.015.007.007.015.007.014.014.007.007.007.007.015.014.006.007.007.007.008.008.014.014.007.007.008h.007l.008.007.008.007.006.007.007.008h.008v.007h.007l.007.007h.007v.007h.008v.007h.007v.008l.087.036.08-.022c.072-.029.138-.058.195-.08.087.226.116.341.145.544.022.26.08.674-.021 1.014-.123.413-.37.659-.507.825 0 0-.377-.42-.485-.76a1.94 1.94 0 01-.014-1.202 1.97 1.97 0 01.305-.564zm-1.296.036l.036-.008h.036l.03-.008.035-.007.065-.014.065-.014.066-.022.065-.014.057-.022.059-.022.05-.029.05-.021.059-.029.043-.022.05-.029.044-.029.044-.029.043-.029c.05.13.123.319.072.572-.065.26-.239.558-.5.76-.39.312-.905.6-1.483.507 0 0-.13-.427 1.014-1.491zm-.434-.718l.008.037v.037l.007.028.007.037.007.029.008.029.007.037.007.028.014.03.008.021.007.03.014.028.008.022.014.022.007.022.008.022.014.021.007.022.008.015.014.014.007.021.008.015.007.008.007.014.007.015.008.007.007.007.007.008.007.007v.008h.008v.007c-.138.16-.623.992-1.636.854 0 0-.276-.572.398-1.02.455-.315.68-.372.991-.482zm.087-.716l-.05.015-.051.014-.058.008-.058.007-.058.008-.058.007h-.065l-.065.007h-.065l-.072-.007h-.065l-.036-.007h-.036l-.043-.008h-.036l-.036-.007-.037-.008-.035-.008-.044-.007-.036-.008-.043-.014-.116-.021-.037-.116c-.513.427-1.136.499-1.346.883 0 0 .26.478.933.391a2.24 2.24 0 001.543-.847c.004-.065.033-.188.07-.282zm-1.166-.593l.014-.03.022-.029.015-.028.014-.037.022-.029.014-.036.022-.036.014-.037.022-.036.022-.044.014-.021.015-.014.007-.023.015-.021.014-.022.014-.015.015-.021.014-.022.022-.021.015-.022.022-.022.014-.014a3.349 3.349 0 00-1.368.014c-.623.116-1.26.26-1.578 1.202 0 0 .398.348 1.129.196.608-.123 1.144-.391 1.455-.832zm-.268-1.028l-.029-.03-.028-.021-.03-.029-.028-.029-.022-.029-.03-.036-.028-.03-.022-.028-.029-.037-.021-.036-.03-.037-.021-.036-.022-.044-.022-.036-.021-.044-.022-.043-.05-.116c-.536-.217-1.1-.333-1.651-.13-.55.21-.695.449-.833.651 0 0 .608.514 1.31.536.703.016 1.347-.187 1.63-.396zm.167-1.108l.014-.008.022-.007.014-.008h.021l.015-.006.022-.008.014-.008.022-.007h.022l.022-.008.021-.007h.015l.021-.008.022-.007h.022l.022-.008a1.942 1.942 0 01-.587-1.013c-.246.058-.84.058-1.093-.037-.26-.101-.767-.109-1.166.16 0 0 .13.688 1.028.926.848.227 1.16.17 1.507.053zm-.326-1.354l.116-.08c.014-.007.217-.13.565-.152-.29-.224-.985-.803-1.47-1.072-.529-.296-1.412-.702-1.868-.76 0 0 .427 1.107.912 1.556.514.464.869.638 1.745.508zm.905-.514l-.036-.051-.036-.058-.043-.058-.037-.058-.029-.066-.036-.064-.036-.066-.029-.072-.029-.072-.036-.073-.029-.072-.021-.08-.03-.08-.029-.08-.02-.086-.022-.08c-.11-.377-.34-1.289-.478-1.535-.137-.24-.637-1.064-1.607-1.325 0 0-.254 1.078.231 1.947.419.74 1.28 1.522 2.352 2.029zm5.394 5.053l.028.022.022.021.022.022.021.015.022.022.022.014.022.022.021.015.022.014.03.022.014.008.014.007.015.008.014.014.015.008.014.008.022.006.015.015.014.007.021.008.022.014.014.008s.312.594-.065 1.303a17.78 17.78 0 00-.84 1.853s-.202-.029-.426-1.15c-.152-.753-.34-.949-.543-1.202.217.108.391.137.413.137l.145.037.072-.145c.111-.218.168-.459.166-.703 0-.072 0-.137-.007-.196a.724.724 0 00.608-.253c.007-.014.015-.014.015-.021l.035.04z" fill="#0055A5"/><path d="M63.744 14.82v.34l.022.268c-.58-.731-1.267-1.614-1.918-2.432-.45-.557-.826-.89-1.253-1.166.362 1.035 1 1.86 1.448 2.266.449.413 1.1 1.108 1.737 1.535l.058.203c.051.201.127.396.224.579.168.274.362.53.58.767a8.07 8.07 0 00-.609-.282l-.202-.087c-1.745-.919-3.483-2.845-4.177-4.177-.702-1.34-.413-2.888-.232-3.72.797.673 1.948 1.997 2.44 2.714.616.884 1.398 2.143 1.882 3.164v.027zm24.52 5.697l-.02-.015-.015-.007-.022-.015-.022-.007-.021-.014-.029-.008-.022-.014-.021-.015-.022-.007-.03-.015-.02-.007-.03-.015-.029-.014-.029-.007-.029-.014-.029-.008c1.072-.318 2.534-.84 4.743-.985 1.614-.108 2.772-.014 3.38.145 0 0-1.477 1.036-3.156 1.405-1.68.362-3.048.13-4.047.137a1.784 1.784 0 00-.254-.319c1.166.007 3.106-.29 3.808-.52 0 0-1.694-.362-4.083.319zm.008-1.253v.015l-.007.007v.015l-.007.014-.008.022v.022l-.014.022-.007.028-.008.022-.014.037-.015.029-.014.029-.022.036-.015.037-.021.036-.022.037-.03.036-.028.043-.029.037-.029.036-.036.044-.036.036-.044.044-.043.036-.044.036-.043.036-.058.044-.05.029-.058.036-.058.036-.065.03c1.498-.652 4.445-1.029 6.038-1.695 2.136-.883 2.527-1.998 2.527-1.998-1.854-.05-3.36.405-4.51.76-1.354.413-3.41 1.18-4.134 1.506.275.008.572.08.818.254 1.007-.383 1.477-.55 2.39-.81.723-.204 1.251-.24 1.7-.284 0 0-.63.42-1.672.753-1.044.33-1.493.388-2.332.547zm.116-1.636v.007l-.007.015-.008.014-.007.008-.014.014-.007.015-.008.014-.007.015-.014.014-.008.015-.021.036-.022.037-.03.029-.02.036-.023.029-.007.022-.014.014-.007.015-.015.014-.007.015-.015.014-.006.015-.008.014-.007.008-.007.014-.015.008-.007.014c2.367-.398 4.973-2.186 5.777-3.301.811-1.108.58-2.766.58-2.766-.782.16-2.476 1.622-2.918 2.063-.434.435-1.766 1.73-2.685 2.455l-.283.825c.782-.63 1.716-1.332 2.295-1.773.455-.34 1.115-.811 1.788-1.043 0 0-.616.797-1.108 1.187-.572.457-1.158.848-1.636 1.108-.42.23-.645.368-1.499.78zm-.572-2.809v.341l-.022.268c.572-.732 1.26-1.614 1.911-2.433.456-.557.832-.89 1.252-1.166-.355 1.035-.992 1.861-1.44 2.267-.45.412-1.101 1.107-1.738 1.534l-.058.203c-.058.196-.13.391-.232.58-.151.26-.347.514-.572.767.198-.104.401-.198.608-.282l.196-.087c1.745-.92 3.482-2.845 4.177-4.177.717-1.34.42-2.889.232-3.721-.797.673-1.94 1.998-2.433 2.715-.615.883-1.397 2.143-1.882 3.164v.027zM65.98 25.374l-.072.073-.073.072-.08.08-.079.087-.087.087-.087.094-.086.1-.087.102-.094.11-.094.108-.087.115-.094.116-.086.123-.094.13-.087.13-.087.13-.08.139-.079.137-.08.138-.072.145-.073.145-.057.152-.058.145-.058.159-.044.152-.043.152-.03.16-.028.158-.015.16-.007.166-.006.16.014.166s1.405-.442 1.99-1.477c.58-1.028.935-1.687 1.18-1.919-.153.023-.309.023-.462 0l-.13-.021c-.363.652-1.072 1.723-1.71 2.092 0 0-.159-.868 1.717-2.62.029-.073.065-.152.116-.24a1.503 1.503 0 01-.587.087l-.024.007zm19.344-9.715l-.072.151-.08.145-.08.152-.093.16-.05.072-.051.08-.058.08-.058.08-.058.078-.066.08-.072.08-.072.08-.073.086-.08.08-.08.087-.086.087-.094.087-.094.087-.102.087-.108.093-.108.087-.116.094-.116.094-.123.101-.13.095-.137.101-.145.094-.145.101c-.362.246-.76.76-.456 1.477.304.724.869 1.738.528 2.136-.34.398-1.55.6-2.534.21 0 0-.21.622-.564 1.02 0 0 .173.34.738.167 0 0-.21.514.08 1.064 0 0 .658-.116.94-.724 0 0 .261.478.79.644 0 0 .44-.224.34-1.093 0 0 .318.775 1.31.905 0 0 .565-.716-.174-1.68 0 0 .528.471 1.492.247 0 0 .151-.492-.717-1.173 0 0 .984-.043 1.36-.869 0 0-.42-.513-1.44-.398 0 0 .949-.21 1.159-1.34 0 0-.681-.434-1.76.26 0 0 .188-.36.645-.723.448-.346.999-1.352.81-2.83zm-3.952 11.403l.029-.036.022-.036.021-.037.029-.036.022-.036.022-.036.02-.03.023-.035.021-.037.015-.036.022-.036.014-.036.022-.029.014-.036.015-.036.014-.037c-.166 1.376-.225 2.303-.97 3.193 0 0-.449-.593-.16-2.041.143-.04.278-.104.4-.188 0 0-.167.586-.066 1.18 0-.001.268-.197.47-1.58zm1.281-.145l.015-.007.007-.015.007-.014.008-.007.014-.015.007-.014.015-.015.007-.014.015-.015.007-.021.029-.029.021-.037.022-.036.03-.036.02-.036.022-.036.022-.036.022-.03.021-.035.015-.021.007-.015.007-.014.008-.015c.065.796.275 2.896-.428 3.555 0 0-.484-.355-.651-3.417.101.174.282.354.362.456 0 0-.116.97.231 1.657 0 0 .355-.269.138-1.738zm1.68 1.607l-.058-.066-.05-.079-.051-.087-.044-.094-.05-.094-.036-.101-.043-.109-.037-.109-.036-.115-.036-.116-.03-.116-.036-.123-.05-.24-.03-.115-.021-.116-.022-.116-.014-.108-.022-.108-.014-.11-.015-.1-.014-.094-.014-.087-.008-.08-.007-.08-.007-.065-.007-.029v-.029l-.008-.029v-.043l-.007-.015v-.057a1.98 1.98 0 01-.246-.181c-.037-.03-.072-.051-.101-.087 0 .08 0 .16-.015.24.094 1.273.196 2.59.594 3.25.39.644 1.108.977 1.108.977.673-1.202-.138-2.809-.826-3.93a1.952 1.952 0 01-.253-.11c.238.86.687 1.881.506 2.67zm1.672-3.685v.1l-.008.022v.044l-.006.007v.028l-.008.008v.028l-.007.008v.021l-.008.008v.029l-.006.007c-.008.015-.015.05-.03.087.565.543.985 1.078 1.817 2.237.833 1.165 2.165 1.208 2.165 1.208-.13-.94-.39-1.687-1.1-2.483-.703-.803-1.614-1.535-2.273-2.02-.174.08-.398.13-.68.095-.03 0-.044-.008-.066-.008.087.116.145.232.174.34.5.29 1.97 1.036 2.563 2.23 0 .002-.927-.288-2.527-1.996zm1.05-1.166l-.058-.108a.583.583 0 00-.058-.087c.544.21 2.483.941 3.113 1.267.63.326 1.535 1.064 2.027 2.57 0 0-1.31.116-2.389-.782-1.079-.89-2.338-2.143-2.881-2.54a.57.57 0 00.13-.138s1.463 1.296 3.012 1.854c0 0-.333-.594-.949-1.035-.738-.53-1.296-.704-1.947-1zm1.107-.89l-.007-.015-.007-.021-.008-.022-.014-.014-.007-.022-.008-.022-.007-.014-.007-.022c.637.138 2.244.326 2.96.544.71.217 2.006.745 2.774 2.208 0 0-1.13.348-3.258-.652-2.121-.999-2.787-1.209-3.192-1.317.325-.022.557-.13.672-.203.848.377 1.977.825 3.107.854 0 0-.558-.39-1.144-.637a14.09 14.09 0 00-1.854-.645zm-.05-1.057l-.036.021-.036.014-.044.015-.036.022-.036.007-.037.014-.036.015-.036.007-.036.015-.043.007-.036.008-.044.007-.043.008-.022.008h-.05l-.022.007h-.022l-.03.008c.16.103.301.23.42.376.747.217 2.02.449 4.128.601 2.106.16 3.228-.231 3.228-.231-.731-.45-1.903-.906-2.693-1.057-.789-.153-2.867-.13-3.779-.261a1.822 1.822 0 01-.304.21c.767.073 2.403.145 3.243.565 0-.002-1.55.207-3.598-.386z" fill="#0055A5"/><path d="M81.706 24.26l-.023-.03-.014-.007-.014-.014-.015-.015-.007-.007-.014-.014-.008-.008-.014-.014-.007-.015-.015-.007-.007-.015-.015-.007-.007-.015-.015-.007-.007-.015c-.115.145-.478.602-.659 1.057-.13.384-.282.913-.347 1.209-.08.312-.29.934-.42 1.15 0 0 .572.08.999-.426.42-.485.572-.977.63-1.484a5.3 5.3 0 00-.022-1.316zm.912.073l-.007.014-.015.015-.007.007-.007.015-.015.014-.007.007-.007.007-.015.015-.007.006-.007.007-.008.008-.014.014-.007.007-.008.008h-.006l-.008.007-.007.007-.007.007-.008.008h-.007l-.007.007h-.007l-.008.007-.006.007h-.008v.007h-.014v.008l-.073.036-.087-.022c-.065-.029-.13-.058-.195-.08-.08.226-.116.341-.138.544-.03.26-.08.674.022 1.014.123.413.362.659.499.825 0 0 .383-.42.485-.76.116-.354.159-.774.014-1.202a1.628 1.628 0 00-.303-.564zm1.303.036l-.036-.008h-.036l-.036-.008-.036-.007-.066-.014-.065-.014-.064-.022-.058-.014-.058-.022-.058-.022-.058-.029-.05-.021-.051-.029-.05-.022-.044-.029-.051-.029-.044-.029-.036-.029c-.05.13-.13.319-.072.572.058.26.24.558.5.76.383.312.904.6 1.476.507 0 0 .137-.427-1.007-1.491zm.434-.718l-.007.037-.007.037-.007.028v.037l-.008.029-.007.029-.014.037-.008.028-.007.03-.007.021-.015.03-.007.028-.007.022-.014.022-.008.022-.014.022-.008.021-.007.022-.014.015-.007.014-.008.021-.007.015-.014.008-.008.014-.007.015-.008.007v.007l-.006.008-.008.007v.008h-.007v.007c.13.16.623.992 1.636.854 0 0 .268-.572-.405-1.02-.456-.315-.673-.372-.985-.482zm-.094-.716l.05.015.059.014.058.008.058.007.057.008.058.007h.065l.065.007h.065l.072-.007h.066l.072-.007.037-.008h.043l.036-.007.036-.008.037-.008.043-.007.036-.008.036-.014.116-.021.043-.116c.514.427 1.137.499 1.347.883 0 0-.26.478-.934.391a2.24 2.24 0 01-1.542-.847 2.15 2.15 0 00-.079-.282zm1.173-.593l-.007-.015-.007-.015-.022-.029-.015-.028-.014-.037-.022-.029-.014-.036-.022-.036-.022-.037-.014-.036-.022-.044-.014-.021-.014-.014-.008-.023-.014-.021-.015-.022-.014-.015-.015-.021-.014-.022-.022-.021-.015-.022-.021-.022-.015-.014c.442-.08.847-.095 1.368.014.623.116 1.26.26 1.579 1.202 0 0-.406.348-1.13.196-.608-.123-1.15-.391-1.455-.832zm.261-1.028l.029-.03.029-.021.029-.029.029-.029.029-.029.029-.036.022-.03.029-.028.021-.037.029-.036.022-.037.021-.036.022-.044.022-.036.021-.044.022-.043.05-.116c.543-.217 1.101-.333 1.651-.13.55.21.695.449.832.651 0 0-.608.514-1.302.536-.703.016-1.354-.187-1.636-.396zm-.16-1.108l-.036-.015-.021-.008h-.015l-.022-.006-.014-.008-.022-.008-.022-.007h-.021l-.015-.008-.021-.007h-.022l-.022-.008-.022-.007h-.021l-.022-.008c.246-.21.47-.528.587-1.013.26.058.84.058 1.1-.037.26-.101.768-.109 1.166.16 0 0-.13.688-1.035.926-.84.227-1.16.17-1.5.053zm.32-1.354l-.117-.08c-.014-.007-.217-.13-.558-.152.29-.224.978-.803 1.463-1.072.536-.296 1.419-.702 1.868-.76 0 0-.42 1.107-.912 1.556-.507.464-.862.638-1.745.508zm-.906-.514l.043-.051.037-.058.036-.058.036-.058.036-.066.036-.064.037-.066.029-.072.028-.072.036-.073.03-.072.028-.08.022-.08.029-.08.022-.086.029-.08c.094-.377.333-1.289.47-1.535.137-.24.637-1.064 1.607-1.325 0 0 .254 1.078-.232 1.947-.426.74-1.288 1.522-2.36 2.029zm-5.386 5.053l-.03.022-.021.021-.022.022-.022.015-.021.022-.022.014-.022.022-.021.015-.029.014-.029.022-.007.008-.015.007-.015.008-.014.014-.021.008-.015.008-.014.006-.015.015-.021.007-.015.008-.022.014-.021.008s-.304.594.065 1.303c.376.717.695 1.448.846 1.853 0 0 .203-.029.428-1.15.151-.753.347-.949.543-1.202a1.462 1.462 0 01-.413.137l-.145.037-.072-.145a1.455 1.455 0 01-.16-.899c-.347.015-.542-.166-.607-.253-.008-.014-.008-.014-.022-.021l-.03.04z" fill="#0055A5"/><path d="M85.579 25.375l.073.072.072.072.08.08.078.087.087.087.08.094.094.101.087.102.094.108.087.109.095.116.094.115.087.123.086.13.095.13.079.131.087.138.08.137.079.138.072.145.065.145.065.152.058.145.05.16.051.15.037.153.035.16.03.159.014.159.007.166v.16l-.007.166s-1.412-.442-1.99-1.477c-.58-1.028-.935-1.687-1.18-1.918.151.022.31.022.463 0l.13-.022c.362.652 1.065 1.723 1.702 2.093 0 0 .166-.87-1.709-2.621a1.305 1.305 0 00-.123-.24c.174.066.37.095.594.087l.022.008zM74.676 11.388v-.014l.007-.015.008-.007.007-.015.014-.007.015-.015.014-.007.022-.015.021-.007.022-.015.029-.007.029-.008.029-.014.036-.008.036-.007.036-.007.037-.008.035-.007.044-.007.043-.008.044-.007.05-.007.043-.008h.051l.051-.007.05-.008h.109l.05-.007h.167c.608 0 1.1.108 1.1.239 0 .122-.492.231-1.1.231-.607.003-1.099-.105-1.099-.228zm-3.743 1.267v-.008l.007-.007v-.007l.007-.008.007-.007.015-.007h.007l.014-.008.015-.007.014-.008h.015l.022-.007.021-.008.015-.007h.029l.022-.008h.021l.03-.007.028-.007h.022l.028-.008h.065l.03-.007h.065l.036-.008h.18c.384 0 .71.058.71.13 0 .073-.326.123-.71.123-.396.004-.715-.047-.715-.12zm5.06-.76v.05l-.006.008v.015l-.008.007v.015l-.007.007v.008l-.007.007-.007.015-.008.007-.007.008-.007.007-.007.008-.008.007-.007.008-.007.008-.007.007-.008.007h-.007l-.014.007-.007.007h-.008l-.014.008h-.022l-.007.007h-.036a.22.22 0 01-.218-.224.221.221 0 01.3-.197.21.21 0 01.135.193zm-1.397-.738l-.036-.087-.029-.08-.035-.072-.03-.08-.028-.072-.03-.08-.036-.072-.021-.065-.03-.072-.028-.066-.022-.065-.029-.065-.022-.066-.021-.058-.022-.057-.022-.058-.02-.058-.015-.05-.015-.052-.022-.05-.014-.044-.015-.044-.007-.043-.014-.043-.008-.037-.007-.036-.007-.036-.007-.03-.007-.028v-.073c.007-.13.16-.224.304-.268.151-.043.275-.058.376.015.189.151.37 1.324.427 1.817-.181.037-.29.066-.508.175zm.674-.19l.014-.007h.05l.037-.007h.109l.072-.008a14.012 14.012 0 00-.319-1.556c-.094-.312-.217-.528-.42-.587 0 0 .16.428.247.869.086.443.144.877.21 1.297zm-1.166 1.564l.043-.007.036-.015.036-.014.037-.015.036-.014.043-.022.036-.014.037-.022.035-.022.03-.022.036-.022.036-.022.029-.021.036-.022.028-.022.03-.029.028-.022.023-.021.029-.022.021-.015.022-.021.022-.022.021-.014.022-.021.015-.015.014-.007.007-.015.015-.014.007-.007h.007v-.008c-.65.095-.817.53-.817.53z" fill="#0055A5"/><path d="M74.712 12.496l-.058.029-.05.022-.051.028-.058.023-.051.021-.05.022-.058.014-.05.022-.052.014-.05.008-.05.014-.052.015-.043.007-.05.007-.044.008-.043.007h-.043l-.036.008h-.036l-.037.008h-.231c.122-.225.239-.435.586-.681.355-.254.927-.319 1.151-.29-.052.172-.283.534-.544.694zm-.124.295c-.42.196-1.723.217-2.426.254h-.452l-.055-.018h-.072l-.055-.018h-.054l-.055-.018-.054-.018h-.054l-.055-.018h-.054l-.055-.018h-.035l-.055-.018-.036-.018h-.035l-.037-.018-.036-.018h-.054l-.018-.018h-.018l-.036-.018h-.019c.08 1.535 1.123 1.63 1.123 1.63-.015-.123 0-.327 0-.327.325.305.995.525.995.525a1.114 1.114 0 00-.072-.344c.283.166.453.163.453.163-.03-.217-.163-.47-.163-.47.195.253.434.271.434.271.044-.123-.037-.434-.037-.434.102.123.29.449.87.579.593.123.85-.217.85-.217-.565.036-1.104-.507-1.104-.507a.808.808 0 00.417-.325c-.181-.153-.362-.163-.362-.163.332-.155.416-.419.416-.419zm-1.992.58v.054s-.904.003-.94.452c-.146-.095-.218-.268-.254-.47 0 0 .645.036 1.194-.037zm-1.989-.441l.008.066.007.057.007.066.007.058.008.065.014.057.014.059.015.057.014.058.015.058.014.05.022.052.015.05.022.052.021.043.022.043s-.412-.304-.513-.571c-.102-.269-.131-.443.288-.32zm-1.214.295a.602.602 0 00-.452.254c-.21.311-.134.905.307 1.158 0 0 .663-.576 1.466-.018 0 0 .177-.105.597-.2v-.017h-.018v-.018l-.018-.018-.018-.018h-.017v-.018l-.018-.018-.018-.018-.018-.018-.018-.018-.018-.018h-.02l-.017-.036h-.018l-.018-.037h-.018l-.018-.018-.036-.018-.018-.018-.018-.018-.036-.018-.018-.018-.018-.018-.037-.018h-.019l-.036-.018-.018-.018c-.246-.108-.753-.26-.905-.723a1.453 1.453 0 00-.489-.039zm.38.615a.19.19 0 01.182.182v.036h-.018v.036h-.018v.036h-.018v.017h-.018v.018h-.036v.018h-.037l-.019.018h-.017c-.094 0-.163-.087-.163-.181 0-.093.068-.18.162-.18zm1.63.683l.008.007.007.007v.008h.007l.008.014.007.008.014.014.008.022.014.015.015.014.014.022.015.022.022.014.014.022.022.021.014.03.022.021.043.043.037.044.043.05.022.023.021.021.022.022.022.022.021.014.022.022.022.015.021.021s-1.086-.014-1.353.927c0 0-.37-.58-.102-.949.29-.399.565-.456.949-.536z" fill="#0055A5"/><path d="M72.591 14.747l.008.008h.014l.007.007h.022l.015.008.014.007h.015l.021.007.015.008h.022l.014.007.022.008.036.007.036.014.044.007.014.008.022.007.014.008h.022l.014.007.015.008h.014l.014.007h.015l.014.008s0-.203-.006-.297c.108.022.231.058.347.073 0 0 .348.767.623 1.078 0 0 .014.181-.138.434 0 0-.202-.448-.55-.825-.196-.206-.326-.314-.739-.604zm-.92-.16h.008l.014.008h.022l.014.008.022.007.022.007.029.008.022.007.029.014.029.007.029.008.036.014.03.008.035.014.029.015.036.014.072.03.073.028.072.029.065.029.036.022.037.014.028.015.036.021.03.015.028.014.03.022.02.014c.341.246.573.522.536 1.006 0 0-.268-.383-.572-.557-.237-.13-.672-.507-.897-.84zm.008-3.518h.022l.008.008h.035l.015.007h.022l.014.008h.015l.007.008h.014l.015.007.014.008.007.006.015.008.007.008.015.007.007.008.014.007.008.008.007.007.007.015.007.007.008.015.007.006v.016l.007.006v.023l.007.008v.022c0 .167-.26.565-.333.739-.072-.174-.326-.572-.326-.739 0-.166.196-.217.297-.217h.058v-.006zm-.225 1.296l-.007-.029-.007-.02v-.03l-.007-.029-.008-.029-.007-.029-.007-.036v-.03l-.007-.036-.008-.035-.014-.073-.022-.072-.014-.08-.014-.073-.015-.036-.007-.036-.008-.029-.014-.037-.007-.028-.014-.03-.008-.028-.014-.03-.015-.028-.007-.022-.014-.022-.015-.022-.014-.014-.008-.015a.645.645 0 00-.441-.13c-.102.008-.21.109-.166.246.044.137.492.811.55.89.1-.013.079-.013.34-.027zm.391 0l.007-.029.008-.02v-.03l.007-.029.007-.029.007-.029.008-.036.007-.03.007-.036.007-.035.014-.073.015-.072.015-.08.022-.073.007-.036.007-.036.014-.029.007-.037.015-.028.007-.03.014-.028.008-.03.014-.028.007-.022.015-.022.014-.022.015-.014.007-.015a.635.635 0 01.442-.13.192.192 0 01.166.246c-.043.137-.492.811-.55.89-.1-.013-.086-.013-.34-.027zm.29-2.106h-.348v-.384h-.282v.384h-.347v.246h.347v.448h.282v-.448h.348v-.246zm-4.22 2.483v-.108l.006-.03v-.05l.007-.015v-.014c.022-.189.03-.355.008-.485-.254.094-.428.16-.768.717 0 0 .55-.341.746-.015zm.477.89v-.014l.008-.022v-.051l.007-.022v-.021l.007-.03.007-.02v-.03l.008-.022.007-.029v-.029l.007-.029.007-.036.008-.029.014-.058.015-.065.021-.066.014-.065.022-.065.022-.066.022-.064.007-.03.014-.028c.145-.377.05-.927-.115-1.252-.16-.326-.254-.63-.225-.964 0 0-.326.11-.514.225-.029.391.196.775.304.992.124.261.102.594.073.804-.044.355.028.732.26 1.086zm.036-2.96v-.023h-.007v-.118l.007-.007v-.037l.007-.007v-.015l.007-.007s.514-.5.941-.587a.608.608 0 01.529.13s-.16-.014-.385.174c-.231.181-.513.413-.738.471-.209.054-.26.04-.36.025zm1.52-.623l.036.036.037.037.036.036.03.036.035.037.03.036.006.015.015.021.014.014.014.022.008.022.014.014.008.023.015.014.007.014.007.022.007.015.008.022.006.014.008.021.007.015v.022l.007.014v.051c-.007.181-.217.644-.332.818-.11.174-.269.405-.254.68.007.145.108.29.225.406 0 0-.63-.152-.702-.536-.073-.347.072-.594.173-.789.094-.181.391-.6.456-.775.073-.16.102-.29.08-.377zm3.678 4.373l.022.079.03.087.028.08.029.08.029.078.037.08.035.08.036.073.037.072.036.08.036.072.036.065.044.073.035.065.037.065.043.058c.189.296.305.79.29.955 0 0 .282-.63.137-1.071-.108-.348-.42-.854-.977-1.072zm.703.144h.058l.014.008h.08l.022.007h.043l.029.008h.021l.03.008h.021l.03.007.028.007.022.007.028.008h.022l.029.014.022.008.029.007.021.008.022.014.022.008.021.014.022.008c.26.173.507.543.601.992 0 0-.442-.073-.651-.29-.217-.213-.478-.539-.586-.843zm-2.23.782h-.044l-.014.007h-.022l-.014.008h-.029l-.014.007-.03.007-.028.008h-.03l-.028.007-.03.008-.028.007-.015.008h-.014l-.014.007h-.015l-.007.008h-.029l-.007.007s.369.109.55.254c.152.13.29.333.355.666.094.47.37.977.449 1.13l.036-.007c-.058-.326.145-.992.203-1.086 0 0-.297-.189-.427-.377-.102-.14-.27-.372-.754-.669zm1.911 1.006l.015.022.007.022.015.03.014.028.015.022.007.03.014.036.022.029.014.029.015.036.029.065.029.066.007.036.015.036.014.044.007.036.015.037.007.036.007.043.008.037.007.043.007.043v.123l-.007.043v.037l-.007.044-.008.043-.014.043c-.13.456-.42.652-.608 1.035 0 0-.145-.695-.116-1.23.036-.545.231-.748.47-.944zm.832.015v.007l.007.008v.007l.008.008v.007l.007.007.007.007v.015l.007.014.015.022.014.029.015.036.021.037.015.035.022.044.021.037.022.043.015.05.021.044.022.043.029.051.043.101.037.095.021.05.022.043.022.044.014.051.015.043.014.037.015.043.014.037.007.036.015.03c.072.325 0 .535-.145.73-.145.196-.391.413-.623.819 0 0-.26-.348-.296-.529-.03-.188.021-.622.079-.803.058-.182.283-.777.478-1.378zm.218 2.657l-.007.008h-.008v.006l-.007.008-.007.008-.007.014-.022.014-.015.022-.021.022-.022.029-.022.022-.021.029-.022.029-.029.036-.029.03-.022.035-.028.029-.058.072-.05.065-.03.037-.022.036-.029.037-.021.029-.022.036-.022.029-.02.029-.023.029-.021.029-.015.028-.014.022-.008.021-.007.015-.007.007v.008l-.007.007c-.065.182-.181.507-.03.739.167.231.514.601.826.76 0 0-.333-.528-.304-.963.022-.282.239-.528.282-.695.035-.168.007-.457-.11-.718zm-.985-.333l.007.008.008.014.007.008.007.014.014.014.008.015.007.014.007.015.007.022.015.014.007.022.007.015.007.022.007.014.022.044.015.043.014.044.015.043.014.043.015.044v.029l.007.022.007.021v.051l.007.022c.015.247-.021.45-.16.818-.165.456-.433.97-.557 1.202 0 0-.24-.34-.37-.637 0 0 .37-.507.522-.862.19-.422.261-.813.334-1.138zm-.166-.203v.007l-.008.008v.044l-.007.029-.007.029-.007.043-.008.043-.014.051-.007.05-.015.059-.014.065-.022.065-.014.066-.022.072-.021.08-.03.072-.021.079-.03.087-.035.08-.03.086-.035.087-.037.087-.043.087-.043.087-.051.086-.044.087-.058.094-.05.087-.059.08-.058.086-.064.087c-.47.594-.855.804-1.108.804-.384 0-.767-.326-.898-.688-.13-.362-.087-.934.16-1.13 0 0 .231.71.716.739.557.03 1.267-.593 1.984-1.795z" fill="#0055A5"/><path d="M73.337 17.998l.007.022v.021l.007.022v.022l.014.043.008.051v.05l.007.052.007.05v.167l-.007.058-.007.058v.058l-.015.058-.007.058-.014.058c-.058.232-.203.535-.47.71-.24.144-.79.18-1.007-.348 0-.001 1.013.079 1.477-1.21zm1.658 4.778l.014.029.015.037.021.036.015.036.022.037.021.036.029.036.021.037.051.072.05.073.059.072.05.072.051.073.029.029.022.036.02.036.023.037.021.029.022.036.015.029.014.036.015.029.014.029.008.029.007.029v.029l.007.022c-.014.738-.34 1.187-.412 1.433 0 0-.587-.47-.688-1.006-.058-.277 0-1.102.464-1.508zm-.66.521l.008-.021.007-.022.008-.022.014-.022.008-.029.014-.021.007-.029.014-.029.015-.029.014-.036.015-.029.014-.029.03-.065.036-.065.036-.072.036-.066.022-.029.014-.029.022-.029.022-.029.021-.029.022-.029.022-.028.021-.023.022-.021.021-.022.023-.022.02-.022s.327-.941-.701-1.52c0 0-.428.557-.536 1.093-.116.529.449.848.71 1.325zm-1.288-2.389l-.037.043-.035.037-.03.044-.035.043-.037.036-.036.043-.043.044-.037.036-.035.037-.036.043-.022.015-.022.014-.014.022-.022.015-.015.014-.021.015-.015.014-.021.008-.015.014-.022.014-.014.008-.022.007s-.065.42-.022.702c.052.413.319.84.435 1.158 0 0 .449-.593.499-.94.051-.348.043-.63.058-.797 0-.001-.246-.407-.384-.689zm-1.194 2.027l-.015-.021-.014-.022-.015-.03-.014-.021-.022-.037-.015-.028-.021-.037-.022-.036-.022-.043-.022-.037-.021-.043-.021-.051-.022-.044-.022-.05-.029-.044-.022-.05-.043-.102-.043-.108-.037-.109-.015-.05-.021-.051-.014-.058-.015-.051-.008-.05-.014-.059-.007-.05-.008-.051v-.05l-.007-.052s.514.275.941.073c0 0 .051.68-.029.905-.065.19-.151.298-.361.457zm.116.145l.014-.007.008-.007.007-.015.014-.007.007-.008.015-.008.007-.014.015-.008.014-.014.008-.008.028-.029.023-.021.028-.03.03-.021.02-.03.03-.021.014-.015.007-.007.015-.014.014-.015.008-.007.007-.015.014-.007.008-.015.007-.007.007-.015s.34.623.398.804c0 0-.166.037-.355-.094a2.368 2.368 0 01-.412-.345zm1.57-.37l-.007.008v.008l-.007.014v.008l-.007.014-.008.008-.007.014-.007.015-.015.029-.014.029-.022.035-.021.03-.023.036-.021.043-.029.037-.022.043-.029.037-.029.043-.058.08-.058.087-.029.037-.029.043-.021.036-.029.036-.029.037-.022.036-.021.03-.03.028-.014.03-.021.02-.008.008-.007.015-.007.007-.007.008-.008.007-.007.008-.007.007-.007.007s.043.275.246.666c.203.399.485.674.637.811 0 0 .333-.587.434-.84.116-.296.102-.593.05-.702-.115-.257-.506-.626-.68-.952zm.819 1.985l.007.029.014.021.014.03.015.021.022.03.014.028.022.022.015.029.02.029.023.037.043.057.037.065.043.058.044.065.043.065.037.065.014.036.022.03.014.035.014.03.015.028.015.037.007.028.007.037.014.028v.03c.04.208.019.424-.058.622-.072.166-.29.5-.434.753 0 0-.5-.47-.608-.803-.08-.254-.05-.608.072-.84.116-.225.377-.463.493-.702zm-1.412-.066l.014.03.015.028.014.022.014.029.015.029.014.022.037.05.036.058.036.05.043.052.036.05.037.05.035.052.037.05.014.021.014.03.015.021.014.03.015.02.014.022.008.03.014.021.007.022.008.03c.08.282.108.47-.03.81-.13.297-.274.47-.325.652 0 0-.406-.522-.478-.739-.065-.225-.087-.579-.007-.803.088-.232.232-.529.334-.738zm1.99 1.998v.008h-.007v.006l-.007.008-.007.008-.007.006-.007.007-.008.015-.007.007-.014.015-.007.014-.015.015-.021.029-.022.036-.03.037-.028.036-.03.043-.028.043-.037.044-.029.051-.036.05-.029.05-.035.052-.03.05-.029.058-.028.05-.03.051-.028.058-.022.05-.022.051-.021.058-.015.05-.022.051-.007.044-.007.05-.007.021v.066c.021.558.39.92.441 1.267 0 0 .37-.412.507-.687.152-.319.275-.58.231-.934-.043-.354-.137-.579-.5-.933zm-1.281-.086l.007.014.014.022.015.022.014.021.015.022.014.029.015.029.014.029.022.029.015.029.014.036.022.029.014.035.015.037.029.073.014.043.015.037.014.036.015.036.007.043.014.036.008.037.007.035.007.044.007.037v.136l-.007.037-.008.029c-.086.326-.434.782-.55.984 0 0-.275-.564-.333-.825-.057-.26-.006-.68.551-1.201zm6.965-13.886v-.007l-.008-.008v-.007l-.007-.007-.007-.008-.007-.007h-.015l-.014-.008-.015-.007-.014-.008h-.015l-.022-.007-.014-.008-.022-.007h-.021l-.029-.008h-.022l-.029-.007-.021-.007h-.03l-.028-.008h-.058l-.036-.007h-.066l-.029-.008h-.18c-.391 0-.71.058-.71.13 0 .073.319.123.71.123.39.004.709-.046.709-.119zm-4.837-2.179l.007-.029.008-.036.008-.037.007-.036.014-.036.014-.037.015-.043.015-.043.014-.044.014-.043.036-.087.036-.094.037-.095.036-.086.036-.095.015-.043.021-.044.014-.043.008-.043.014-.037.015-.043.007-.037.007-.036.007-.037.007-.036v-.058a.42.42 0 00-.84 0c0 .297.37.977.413 1.296h.016v.002zm1.173.68l.036-.086.037-.08.029-.072.036-.08.03-.072.028-.079.03-.072.028-.066.029-.072.022-.066.029-.065.021-.065.03-.065.021-.058.022-.058.022-.058.014-.058.022-.05.015-.051.014-.051.015-.044.014-.043.015-.044.007-.043.014-.037.008-.036.007-.036V9.52l.007-.029v-.072c0-.13-.16-.225-.297-.269-.16-.043-.283-.057-.384.015-.188.152-.362 1.325-.434 1.818.188.036.304.065.513.174zm-.666-.188l-.022-.008h-.05l-.037-.007h-.108l-.036-.008h-.029c.058-.47.218-1.245.312-1.556.101-.312.217-.528.42-.587 0 0-.152.428-.239.87s-.153.876-.21 1.296zm.34 1.036h.008v.007h.007v.007h.008l.007.014.014.015.015.008.014.014.022.021.014.015.022.021.022.022.029.014.022.022.028.022.03.022.029.029.028.021.037.022.029.021.036.023.029.022.036.02.036.023.036.022.037.014.035.022.036.015.044.014.036.015.036.014.036.008c0-.001-.165-.436-.817-.53z" fill="#0055A5"/><path d="M76.298 11.8h.043l.03-.007h.086l.03.008h.071l.036.007h.036l.037.008.036.007h.043l.036.008.044.007.036.014.043.008.044.007.037.014.043.015.043.007.037.015.043.014.043.015.037.022.035.014.044.022.036.021.036.015.03.029.035.021c.355.246.471.456.594.68 0 0-.637.051-1.195-.274-.267-.16-.499-.523-.55-.697zm.679.99s.072.265.397.417c0 0-.177.011-.343.163 0 0 .108.21.397.325 0 0-.532.544-1.103.507 0 0 .264.34.85.217.587-.13.76-.456.869-.579 0 0-.072.311-.037.435 0 0 .25-.018.453-.272 0 0-.152.253-.181.47 0 0 .162.004.452-.163 0 0-.065.156-.072.345 0 0 .68-.221 1.013-.525v.234l-.018.018v.072s1.043-.095 1.122-1.63c0 0-.684.254-1.393.218-.694-.034-1.994-.056-2.406-.251zm1.972.58c.55.072 1.213.037 1.213.037v.035h-.018v.037l-.018.036v.037l-.018.018v.036l-.018.018v.036h-.018v.018l-.018.017v.018l-.018.018-.017.018v.018H80l-.017.018v.018h-.02l-.018.018v.018h-.018l-.018.018-.018.018c-.036-.449-.941-.452-.941-.452v-.053zm2.004-.44l-.008.065-.007.058-.007.066-.007.058-.015.065-.007.057-.015.058-.014.058-.015.058-.014.058-.022.05-.014.051-.022.051-.014.051-.022.044-.022.043s.413-.304.514-.572c.102-.268.123-.443-.29-.32zm.874.295l-.036.018h-.036l-.037.018h-.036c-.151.464-.67.616-.923.724-.268.13-.525.434-.525.434.42.095.616.2.616.2a1.198 1.198 0 011.466.018c.434-.254.525-.848.308-1.159l-.036-.036-.018-.036-.018-.018-.037-.018-.018-.018-.036-.018-.017-.018-.037-.018-.035-.018-.018-.018h-.036l-.036-.018h-.037l-.018-.018h-.4zm-.054.615h.054v.018h.035v.018h.019l.017.018v.018h.018v.018h.018v.072l.018.018a.19.19 0 01-.181.181c-.094 0-.163-.087-.163-.181.002-.093.071-.18.165-.18zm-1.617.683h-.007v.007h-.007v.007l-.008.007-.007.015-.014.008-.007.014-.014.022-.015.014-.007.015-.022.021-.014.022-.015.015-.022.022-.014.021-.022.03-.014.02-.044.044-.043.043-.036.052-.022.022-.022.021-.022.022-.021.021-.021.015-.022.022-.022.014-.022.022s1.08-.015 1.354.927c0 0 .37-.58.102-.95-.29-.398-.566-.456-.95-.535z" fill="#0055A5"/><path d="M78.969 14.747h-.007v.007h-.022v.008h-.029l-.007.007-.014.008h-.022l-.015.007-.014.007h-.022l-.015.008-.021.007-.037.007-.043.015-.036.007-.022.007-.014.008-.022.007h-.014l-.022.008-.014.007h-.015l-.014.008h-.015l-.007.008s-.007-.203.007-.297c-.108.021-.239.058-.355.072 0 0-.34.768-.615 1.079 0 0-.014.181.137.434 0 0 .196-.449.55-.825.196-.206.327-.315.739-.604zm.92-.16h-.015l-.014.008h-.015l-.021.008-.022.007-.022.007-.022.008-.028.007-.03.014-.029.007-.029.007-.028.015-.037.007-.029.015-.036.014-.036.015-.073.029-.072.029-.065.029-.072.029-.036.022-.03.014-.036.015-.029.021-.029.015-.029.014-.028.022-.023.014c-.34.246-.572.521-.542 1.006 0 0 .275-.383.579-.557.239-.131.673-.507.898-.84zm-.008-3.518h-.022l-.007.008h-.036l-.015.007h-.021l-.015.008h-.014l-.007.007h-.014l-.015.008-.014.007-.008.007-.014.008-.008.007-.014.008-.007.007-.015.008-.007.007-.007.008-.007.014-.008.008-.007.014-.007.007v.015l-.007.007v.023l-.008.007v.023c0 .166.26.565.333.738.073-.173.326-.571.326-.738 0-.167-.196-.217-.305-.217h-.05v-.006zm.225 1.296l.007-.029v-.021l.007-.03.007-.028v-.03l.007-.028.008-.037.007-.028.007-.037.007-.036.015-.072.014-.073.015-.08.022-.072.007-.036.014-.036.008-.03.007-.036.014-.029.008-.029.014-.029.014-.029.008-.029.015-.021.014-.022.007-.022.015-.015.014-.014c.137-.123.34-.138.442-.13a.192.192 0 01.166.246c-.043.137-.492.81-.55.89-.102-.013-.087-.013-.34-.028zm-.398 0v-.029l-.007-.021-.008-.03-.007-.028v-.03l-.008-.028-.007-.037-.007-.028-.007-.037-.007-.036-.015-.072-.014-.073-.022-.08-.014-.072-.015-.036-.007-.036-.007-.03-.015-.036-.007-.029-.014-.029-.008-.029-.014-.029-.015-.029-.007-.021-.014-.022-.015-.022-.007-.015-.015-.014c-.137-.123-.333-.138-.441-.13a.188.188 0 00-.16.246c.037.137.486.81.551.89.1-.013.08-.013.332-.028zm-.283-2.106h.34v-.384h.29v.384h.347v.246h-.347v.448h-.29v-.448h-.34v-.246zm-4.192-2.28h.355v-.384h.276v.383h.354v.246h-.355v.45h-.275v-.45h-.354v-.246zm8.413 4.763v-.05l-.007-.03v-.087l-.008-.007v-.043a1.606 1.606 0 01-.014-.485c.254.094.427.16.767.716 0 0-.55-.34-.738-.014z" fill="#0055A5"/><path d="M83.168 13.632l-.007-.014v-.051l-.007-.022v-.022l-.007-.021v-.03l-.007-.02v-.03l-.008-.022-.007-.029-.007-.029-.007-.029-.008-.036-.007-.029-.014-.058-.015-.065-.014-.066-.022-.065-.015-.065-.021-.066-.022-.064-.007-.03-.015-.028c-.137-.377-.057-.927.109-1.252.166-.326.26-.63.224-.964 0 0 .333.11.514.225.029.391-.196.775-.297.992-.13.261-.108.594-.072.804.043.355-.03.732-.261 1.086zm-.036-2.96v-.148l-.007-.008v-.036l-.007-.008v-.014s-.522-.5-.95-.587a.566.566 0 00-.513.13s.145-.014.377.174c.231.181.513.413.731.471.217.054.26.04.369.025zm-1.528-.623l-.036.036-.036.037-.03.036-.035.036-.029.037-.029.036-.015.015-.014.021-.014.014-.008.022-.014.022-.015.014-.007.023-.007.014-.015.014-.007.022-.007.015-.008.022-.007.014v.021l-.007.015-.007.022v.065c0 .181.217.644.325.818.11.174.283.405.26.68-.014.145-.108.29-.224.406 0 0 .63-.152.702-.536.073-.347-.08-.594-.181-.789-.094-.181-.383-.6-.456-.775-.064-.16-.1-.29-.079-.377zm-3.67 4.373l-.029.079-.029.087-.022.08-.036.08-.029.078-.029.08-.036.08-.036.073-.036.072-.037.08-.035.072-.044.065-.036.073-.036.065-.044.065-.036.058c-.195.296-.318.79-.29.955 0 0-.289-.63-.144-1.071.115-.348.42-.854.984-1.072zm-.71.144h-.05l-.015.008h-.08l-.021.007h-.05l-.022.008h-.029l-.022.008h-.029l-.022.007-.028.007-.03.007-.02.008h-.03l-.029.014-.022.008-.021.007-.03.008-.02.014-.022.008-.022.014-.022.008c-.254.173-.507.543-.594.992 0 0 .435-.073.652-.29.209-.213.477-.539.579-.843zm2.237.782h.05l.008.007h.022l.014.008h.029l.014.007h.015l.014.007.03.008h.029l.028.007.03.008.028.007.015.008h.014l.015.007h.014l.008.008h.021l.015.007s-.37.109-.558.254c-.152.13-.29.333-.347.666-.094.47-.37.977-.456 1.13l-.03-.007c.051-.326-.151-.992-.202-1.086 0 0 .29-.189.427-.377.095-.14.269-.372.753-.669zm-1.911 1.006l-.014.022-.007.022-.015.03-.014.028-.015.022-.014.03-.015.036-.014.029-.015.029-.014.036-.03.065-.028.066-.015.036-.014.036-.014.044-.007.036-.015.037-.008.036-.007.043-.007.037-.007.043-.007.043v.203l.007.044.014.043.007.043c.138.456.435.652.623 1.035 0 0 .145-.695.108-1.23-.029-.545-.224-.748-.463-.944zm-1.766 1.268v-.023l.006-.029.015-.029.007-.036.021-.029.015-.037.022-.036.021-.037.022-.043.022-.036.029-.043.029-.043.029-.044.021-.044.058-.086.058-.087.029-.044.029-.05.021-.044.03-.043.021-.044.022-.043.021-.044.015-.036.014-.043.014-.037.008-.043.007-.036v-.066c-.036-.347-.492-.593-.608-.644h-.007c-.116.05-.58.297-.608.644-.029.348.587.992.601 1.253h.016v.002zm.934-1.253l-.007.007v.015l-.008.008-.007.007v.007l-.007.007-.007.015-.008.014-.007.022-.014.029-.022.036-.014.037-.022.035-.014.044-.023.037-.021.043-.022.05-.021.044-.022.043-.022.051-.043.101-.044.095-.021.05-.015.043-.021.044-.014.051-.023.043-.014.037-.014.043-.007.037-.015.036-.007.03c-.073.325-.007.535.138.73.151.196.397.413.622.819 0 0 .268-.348.297-.529a2.33 2.33 0 00-.08-.803c-.051-.183-.276-.777-.471-1.378zm-.934 3.222l.035-.037.037-.036.036-.036.029-.037.036-.036.03-.037.035-.036.03-.044.02-.036.03-.036.007-.021.015-.015.014-.022.007-.014.007-.022.014-.014.007-.015.007-.022.008-.014.007-.015.007-.014.007-.015c.051-.152.066-.37-.065-.535-.151-.196-.347-.42-.362-.601h-.014c-.007.181-.203.405-.362.6-.13.167-.116.384-.058.536.058.145.232.399.427.572h.008v.002zm.717-.565l.006.008.007.006.008.008.007.008.008.014.014.014.014.022.022.022.022.029.021.022.022.029.03.029.02.036.03.03.029.035.021.029.058.072.051.065.029.037.029.036.022.037.021.029.03.036.021.029.022.029.014.029.022.029.014.028.014.022.015.021.007.015v.007l.008.008v.007c.072.182.18.507.028.739-.151.231-.513.601-.825.76 0 0 .34-.528.304-.963-.022-.282-.231-.528-.275-.695-.043-.168-.014-.457.11-.718zm.977-.333l-.007.008-.008.014-.007.008-.007.014-.007.014-.015.015-.007.014-.007.015-.007.022-.008.014-.014.022-.007.015-.008.022-.007.014-.022.044-.014.043-.014.044-.015.043-.014.043-.015.044-.007.029v.022l-.007.021v.022l-.008.03v.021c-.014.247.03.45.167.818.166.456.427.97.558 1.202 0 0 .231-.34.361-.637 0 0-.369-.507-.528-.862-.181-.422-.254-.813-.326-1.138zm.173-.203v.015l.007.022v.022l.008.029.007.029.007.043.007.043.008.051.014.05.015.059.014.065.015.065.021.066.022.072.022.08.021.072.029.079.029.087.029.08.036.086.036.087.036.087.044.087.043.087.044.086.05.087.05.094.059.087.058.08.058.086.065.087c.47.594.854.804 1.108.804.383 0 .767-.326.897-.688.123-.362.087-.934-.16-1.13 0 0-.23.71-.723.739-.55.03-1.266-.593-1.976-1.795z" fill="#0055A5"/><path d="M78.224 17.998l-.008.022-.007.021v.022l-.007.022-.007.022v.022l-.008.05-.007.05-.007.052v.276l.007.057.007.058.008.058.014.058.015.058c.057.232.195.536.47.71.231.144.789.18.999-.348 0-.002-1.013.078-1.47-1.21zm-2.447 3.518l.029-.014.021-.015.029-.007.021-.015.03-.014.021-.015.015-.007.014-.015.015-.007.007-.008.015-.014.014-.008.015-.014.014-.008.015-.014.014-.015.007-.014.015-.015.014-.014.015-.022.014-.014.014-.022.015-.015.014-.021.015-.022.022-.03c.122-.194.246-.556.18-.817-.087-.318-.267-.449-.369-.652-.08.08-.13.138-.239.203h-.007c-.101-.065-.16-.123-.246-.202-.109.202-.275.333-.362.651-.065.26.05.623.181.818.16.262.283.306.428.378zm0 1.99l.007-.028.014-.03.014-.036.015-.036.022-.037.022-.036.02-.036.03-.037.029-.043.029-.043.029-.037.029-.043.058-.087.064-.087.058-.087.03-.043.028-.044.03-.043.02-.037.023-.043.021-.044.022-.036.014-.043.014-.037.015-.036.008-.036v-.094c-.094-.5-.413-.399-.66-.601h-.007c-.246.202-.572.1-.659.6-.063.322.588.93.66 1.24zm.781-.73l-.007.029-.02.036-.015.037-.022.036-.021.036-.022.037-.022.036-.022.037-.05.072-.058.072-.05.073-.058.072-.05.073-.023.029-.029.035-.021.037-.022.036-.022.03-.014.035-.021.03-.015.036-.014.029-.008.029-.007.029-.007.029-.007.029v.022c.014.738.333 1.187.405 1.433 0 0 .594-.47.695-1.006.056-.277-.01-1.103-.473-1.508zm.666.521l-.007-.021-.007-.022-.007-.022-.015-.022-.007-.029-.014-.021-.008-.03-.014-.028-.015-.03-.014-.035-.015-.029-.014-.029-.03-.065-.035-.065-.036-.073-.037-.065-.021-.03-.022-.028-.022-.029-.02-.029-.023-.029-.021-.029-.022-.029-.022-.022-.022-.022-.021-.021-.022-.022-.028-.022s-.32-.941.709-1.52c0 0 .427.557.543 1.093.115.529-.45.847-.71 1.325zm1.29-2.39l.028.044.036.037.037.043.035.044.036.036.037.043.036.043.036.037.044.037.036.043.014.014.022.015.022.022.014.014.022.015.014.014.022.015.014.007.022.015.014.014.022.007.014.008s.066.42.03.702c-.051.413-.326.84-.435 1.158 0 0-.456-.594-.5-.941-.057-.348-.05-.63-.064-.796 0-.002.253-.407.391-.69zm1.187 2.028l.014-.021.014-.022.015-.03.021-.021.015-.037.021-.029.022-.036.015-.036.021-.044.022-.036.022-.044.028-.05.022-.044.022-.05.022-.044.022-.05.043-.102.043-.108.036-.11.022-.05.014-.05.015-.059.014-.05.015-.05.007-.059.007-.05.008-.051V21.5s-.507.275-.927.072c0 0-.058.68.022.906.065.19.16.298.363.457zm-.116.145l-.008-.008-.007-.007-.014-.014-.007-.008-.015-.007-.007-.008-.015-.014-.007-.008-.014-.014-.015-.008-.007-.014-.015-.015-.029-.022-.028-.029-.022-.022-.029-.029-.021-.022-.015-.014-.014-.007-.008-.015-.014-.014-.015-.008-.007-.014-.007-.008-.015-.014-.007-.008-.007-.014s-.333.623-.391.804c0 0 .166.036.347-.094a2.17 2.17 0 00.413-.345zm-1.564-.37l.007.008v.007l.007.015v.007l.008.015.007.007v.015l.007.014.015.03.021.028.015.036.022.03.021.036.03.043.02.037.03.043.029.037.021.043.058.08.058.087.03.036.028.044.03.036.02.036.03.037.022.036.029.029.021.029.022.029.014.021.007.008.015.014.007.008.008.007.006.008v.007l.008.008.007.007s-.043.275-.239.666c-.21.398-.485.674-.637.81 0 0-.333-.586-.434-.839-.116-.297-.11-.594-.051-.703.109-.257.5-.626.68-.952zm-2.237 4.496l.006-.022.008-.021.008-.021.007-.022.014-.015.007-.021.014-.022.015-.022.014-.022.015-.022.022-.029.014-.022.036-.043.036-.051.037-.05.043-.05.036-.059.036-.058.022-.029.014-.029.022-.029.014-.029.015-.029.014-.036.015-.028.014-.036c.073-.21.073-.464-.014-.637-.094-.196-.45-.689-.493-.826-.043.138-.39.63-.492.826-.087.173-.087.426-.007.637.13.362.442.608.492.817h.016zm1.412-2.511l-.008.029-.014.02-.015.03-.014.022-.015.029-.021.029-.015.022-.022.029-.021.029-.022.036-.036.058-.043.065-.044.058-.043.065-.037.065-.036.065-.022.036-.014.029-.015.036-.021.029-.007.029-.015.036-.014.03-.008.035-.007.03-.007.028c-.043.246 0 .449.058.623.072.166.29.499.434.753 0 0 .5-.47.608-.804.08-.253.058-.608-.065-.84-.123-.224-.383-.463-.5-.701zm1.419-.066l-.015.03-.014.028-.015.021-.014.03-.015.028-.014.022-.036.05-.037.059-.043.05-.036.052-.044.05-.035.05-.037.051-.036.05-.014.022-.015.03-.014.021-.015.03-.014.02-.015.022-.007.029-.007.022-.015.022-.007.029c-.08.283-.101.47.036.81.123.297.275.471.326.652 0 0 .406-.52.47-.738.073-.225.094-.58.008-.803-.08-.232-.225-.53-.326-.739zm-2.838 6.595l.007-.029.006-.029.008-.029.014-.036.015-.036.014-.036.015-.043.021-.05.022-.044.022-.051.022-.05.021-.059.03-.058.02-.057.03-.058.022-.065.029-.058.029-.065.021-.072.022-.065.029-.073.022-.072.021-.072.022-.073.022-.072.014-.073.015-.08.014-.072.015-.08.007-.08.007-.072v-.079c.022-.42-.362-1.086-.572-1.332h-.014c-.21.246-.58.912-.573 1.332.03.831.559 1.627.58 1.888zm.846-4.597v.007h.007v.007l.008.008.007.007.007.007.007.007.008.015.007.007.014.015.007.014.008.015.029.029.021.036.029.036.029.036.029.044.029.043.036.044.029.05.029.051.036.05.03.051.035.05.029.059.029.05.029.051.022.058.028.05.022.05.022.059.014.05.015.051.014.043.007.05v.088c-.014.557-.383.92-.441 1.267 0 0-.362-.412-.5-.688-.159-.318-.282-.579-.231-.933.037-.355.131-.58.5-.934zm1.282-.087l-.014.015-.008.022-.014.022-.015.021-.014.022-.015.029-.014.029-.022.029-.014.029-.015.029-.014.035-.022.03-.014.035-.015.037-.036.072-.015.044-.014.036-.014.037-.007.036-.015.043-.007.036-.014.036-.008.036-.007.044v.036l-.007.036v.065l.007.036v.036l.015.03c.079.325.426.781.542.984 0 0 .275-.565.34-.825.058-.26.007-.68-.55-1.202z" fill="#0055A5"/><path d="M76.254 32.57l.008-.057.007-.058.007-.058.007-.058.015-.058.007-.051.015-.05.014-.051.022-.051.015-.05.014-.044.022-.05.022-.044.014-.043.044-.087.036-.08.043-.08.036-.072.036-.072.015-.037.014-.036.015-.036.014-.036.015-.03.007-.035.007-.03.007-.028c.073-.377.05-.732-.246-1.166a11.065 11.065 0 01-.688 1.796c-.008.014-.014.021-.021.035 0-.014-.008-.022-.015-.035a10.38 10.38 0 01-.695-1.796c-.29.435-.318.789-.246 1.166.066.333.434.73.478 1.383.043.659-.695.905-.695.905.254.087.535.13.984-.297.08-.08.145-.16.189-.253.05.093.115.173.188.253.456.427.738.384.984.297 0 0-.731-.246-.695-.905zm-2.324-4.35l.008.021.014.03.007.021.008.03.014.028.015.03.007.028.014.029.022.058.028.058.03.065.022.058.028.066.015.029.007.029.014.02.015.03.007.029.007.022.015.029.007.022.007.021.007.015.008.021.007.015v.022l.007.007c.058.26-.022.579-.492.912 0 0-.304-.217-.427-.5-.116-.26-.043-.448.073-.579.115-.145.398-.457.506-.666zm1 .97v.05l-.008.03v.05l-.007.037v.029l-.007.036-.007.036-.008.043-.007.044-.007.043-.007.044-.007.043-.007.044-.023.094-.021.093-.029.102-.014.043-.008.043-.021.05-.015.044-.014.044-.015.043-.021.044-.015.036-.022.036-.014.036c-.297.514-.731.905-1.115.905-.347 0-.42-.21-.6-.296 0 0 .086-.45.484-.565.485-.152 1.23-.73 1.534-1.281z" fill="#0055A5"/><path d="M73.663 30.131l-.015-.014-.014-.007-.03-.022-.014-.015-.014-.007-.022-.015-.015-.007-.014-.014-.015-.015-.007-.007-.007-.007-.007-.008-.008-.007-.014-.007-.008-.007-.007-.008-.007-.007-.007-.014-.014-.008-.008-.006-.007-.015s-.37.137-.688.348c-.304.21-.608.564-.767.745 0 0 .455.116.753-.014 0 0 .108-.441.434-.637.08-.044.304-.117.522-.225zm-.391-.376l-.008-.007-.007-.015-.007-.007-.007-.015-.008-.014-.007-.015-.007-.014-.007-.015-.008-.014-.014-.015-.007-.022-.008-.014-.007-.015-.007-.021-.007-.021-.008-.015-.014-.021-.007-.022v-.022l-.008-.022-.007-.021-.006-.022-.008-.03v-.02l-.007-.022v-.058l-.007-.022v-.058l.007-.029v-.029s-.652.413-.847.565c-.196.16-.6.579-.695.717 0 0 .492-.109.875-.232.413-.138.695-.326.848-.413zm-1.1.702l-.03.014-.036.007-.043.014-.037.015-.043.008-.043.014-.05.007-.044.014-.05.015-.052.008-.1.02-.102.03-.109.022-.1.021-.11.022-.1.022-.044.007-.05.014-.044.007-.05.015-.044.007-.036.007-.044.015-.036.007-.035.008-.03.014c-.332.102-.572.26-.883.608 0 0 .478.13.739.217 0 0 .412-.282.861-.448.295-.116.433-.427.744-.731zm-.732 2.324l.014-.015.015-.014.014-.022.015-.014.007-.008.007-.014.007-.008.008-.007v-.015l.007-.007.007-.015.007-.007v-.014l.008-.007v-.029l.007-.007v-.087l-.007-.014v-.015l-.008-.022v-.014l-.007-.022c-.05-.138-.34-.297-.513-.377-.283-.137-1.065-.347-1.318-.427 0 0-.13.152-.195.312-.037.065.007.123.115.137.225.044.746-.058.876.03.138.086.087.209.087.325 0 0 .24-.145.391-.108.21.043.34.144.456.485zm-.695-1.086h.014l.007.008h.008l.014.006h.015l.014.007.015.008h.014l.015.007.021.007.014.007.022.008.022.007.022.007.022.015.02.007.023.007.029.015.021.007.03.015.02.014.03.008.029.014.021.015.03.014.029.015.028.014.022.015.029.021.029.014.029.015s.13-.05.195-.174c.066-.116.334-.514.58-.565 0 0-.21-.014-.333-.057 0 0-.246.065-.435.144-.18.065-.405.181-.665.355zm2.02-.5h-.008l-.014.007-.008.007h-.014l-.007.008H72.7l-.008.007h-.014l-.007.007h-.023l-.006.007h-.022l-.007.008h-.037l-.014.007h-.044l-.014.007h-.051s-.688.478-.768.949c-.072.412.145.608.246.659.109.058.587.246.898-.391 0 0-.528.174-.68-.08-.138-.26.094-.637.239-.738.196-.145.536-.246.745-.203 0 0-.173-.16-.368-.261z" fill="#0055A5"/><path d="M68.254 36.662l.03-.13.035-.131.037-.137.014-.065.022-.065.021-.066.022-.072.022-.065.022-.065.028-.065.022-.065.029-.065.029-.065c.31-.66 1.079-2.418 2.671-2.722.145-.036-.174-.406-.319-.384-.144.014-.426.202-.55.282 0 0 0-.376-.007-.441 0-.065-.058-.094-.123-.094-.058.007-.449 0-.565.145-.37.42-.978 1.55-1.325 2.389-.347.84-.587 1.1-.956.97-.361-.13-.579-.55-1.223-.42-.217.044-.463.196-.659.413.058.102.123.232.42.232s.876.123 1.187.34c.32.222.653.302 1.116.346zm6.357-5.445l.007.05.007.051.015.051.014.05.015.051.022.05.014.044.022.051.021.051.022.05.022.052.028.043.023.05.028.051.022.05.029.051s-.478 2.237-2.237 2.404c0 0 .036-.464.55-.811.522-.355 1.303-.905 1.246-1.738 0 0-.145.03-.391.341-.247.312-.797 1.216-1.637 1.223 0 0 .123-.427.5-.666.37-.246.847-.557 1.064-.933.217-.37.442-.543.594-.615zm-.833 8.152l1.072 1.498.81-1.44-.289-.521c-.21.383-.442.79-.564 1.021-.094-.145-.362-.521-.717-1.021l-.312.463z" fill="#0055A5"/><path d="M73.51 38.101l-.195-.275-.203-.282-.202-.282-.203-.282-.203-.283-.196-.275-.093-.13-.095-.13-.094-.131-.086-.123-.087-.123-.08-.116-.08-.116-.08-.108-.072-.102-.072-.094-.065-.094-.058-.08-.058-.08-.05-.072-.044-.065-.036-.058-.037-.043-.029-.044-.021-.029-.015-.021.406-.29-1.274-.485.021 1.383.434-.312 2.563 3.606.304-.464zm-8.774-8.173l.029-.029.036-.029.029-.021.036-.022.036-.014.036-.015.036-.007.036-.008.037-.007h.043l.037.007h.043l.044.015.043.007.043.014.044.015.044.022.05.021.044.022.05.022.044.03.051.028.05.036.044.029.051.036.05.036.05.043.052.036.05.043.043.044.051.043.05.044c.536.492.876.999.565 1.346-.29.312-.854.044-1.383-.448-.542-.492-.875-.999-.564-1.339z" fill="#0055A5"/><path d="M65.605 36.01l-.007-.007-.007-.008-.008-.007h-.007v-.007h-.007v-.007h-.007v-.008h-.008a1.412 1.412 0 01-.448-1.057c0-.81.658-1.47 1.462-1.47.81 0 1.47.66 1.47 1.47 0 .11-.022.283-.022.283.065-.123.311-.68.355-.782a1.868 1.868 0 00-1.803-1.369c-.739 0-1.368.428-1.68 1.05.116-.738.485-1.404.746-1.65.311-.297.846-.391.846-.391-.354.05-.803-.16-1.325-.63-.484-.449-.73-.84-.753-1.165.03.463.022.716-.108 1.1-.181.507-.666 1.448-.492 2.513.093.587.514 1.455 1.23 2.164.145.16.203.399.225.521 0 0 1.043 0 1.296.022 0 0 .246-.022.232-.181 0-.153-.137-.189-.253-.189-.131 0-.652.007-.927-.195zm5.777.354l-.123.043-.13.044-.123.036-.123.037-.13.036-.123.036-.123.029-.123.029-.13.029-.123.022-.123.021-.123.021-.239.044-.246.036a6.17 6.17 0 01-1.202.073.36.36 0 01-.029.21s.073.086.073.195c.398.008.81-.007 1.223-.08.695-.108 1.426-.245 2.157-.52l-.24-.34zm1.1-.05l.166-.095.167-.101.166-.108.166-.116.16-.123.166-.13.159-.138.166-.144.16-.152.151-.166.16-.167.151-.18.16-.197.151-.195.145-.21.08-.109.072-.116.137-.231c-.21.093-.485.029-.485.029-.014.02-.05.079-.072.1-.724 1.08-1.535 1.767-2.368 2.216l.242.333zm-5.878.376h-.073l-.022-.007h-.238l-.05.007h-.059l-.05.008h-.058l-.05.007h-.051l-.03.007h-.021l-.022.007h-.022c-.26.036-.55.094-.586.232-.022.137.065.282.195.485.087.122.276.057.377.014.109-.043.717-.362.81-.47.095-.102.131-.254-.05-.29zm.615.406l-.007-.007-.008-.008h-.007l-.007-.007h-.007l-.008-.007-.007-.007h-.014l-.007-.008h-.015l-.008-.007h-.014l-.007-.007h-.029l-.007-.007h-.029l-.014-.008h-.102l-.014.008h-.015l-.014.007h-.015l-.014.007h-.014c-.167.065-.76.42-.804.58-.036.166.044.253.137.289.094.036.203.072.29.08.145.007.29-.08.37-.174.072-.094.347-.427.39-.507.036-.066.065-.182 0-.217zm.073.362l-.007.007-.007.015-.015.007-.007.015-.014.014-.014.015-.007.014-.015.014-.014.015-.015.021-.014.015-.015.014-.021.036-.03.037-.014.014-.014.022-.015.015-.014.014-.008.015-.014.014-.015.015-.007.014-.015.015-.007.014-.008.008-.007.014-.007.008v.007h-.007v.007l-.008.007c-.029.043.015.123.087.109.08-.008.485-.051.724-.21.232-.16.391-.463.232-.579-.167-.118-.413-.06-.688.238zm.13-.891h-.014l-.015-.007h-.022l-.014-.008h-.015l-.014-.007h-.03l-.02-.007h-.015l-.015-.007h-.058l-.014-.007h-.1l-.015.007h-.015l-.014.007h-.015v.007h-.014l-.008.007-.007.008h-.007v.007h-.007v.007c-.087.13-.03.26.217.376.24.116.688.21.774.087.087-.123-.03-.332-.543-.47zm10.2-8.347l-.007.021-.014.03-.007.021-.007.03-.015.028-.008.03-.014.028-.014.029-.022.058-.029.058-.022.065-.029.058-.029.066-.014.029-.008.029-.014.02-.015.03-.007.029-.014.022-.008.029-.007.022-.007.021-.007.015-.008.021-.007.015-.007.022v.007c-.05.26.022.579.492.912 0 0 .312-.217.427-.5.116-.26.043-.448-.065-.579-.123-.145-.398-.457-.513-.666zm-.999.97l.007.014v.088l.008.029v.036l.007.029.007.036v.036l.007.043.008.044.007.043.007.044.015.043.007.044.022.094.022.093.021.102.015.043.014.043.015.05.014.044.022.044.014.043.015.044.022.036.022.036.014.036c.297.514.724.905 1.115.905.347 0 .427-.21.594-.296 0 0-.087-.45-.486-.565-.485-.152-1.23-.73-1.535-1.281z" fill="#0055A5"/><path d="M77.89 30.131l.022-.014.014-.007.03-.022.014-.015.014-.007.015-.015.014-.007.015-.014.014-.015.007-.007.008-.007.007-.008.014-.007.008-.007.007-.007.007-.008.007-.007.008-.014.014-.008.007-.006.007-.015s.376.137.688.348c.304.21.608.564.775.745 0 0-.464.116-.76-.014 0 0-.109-.441-.435-.637-.072-.044-.303-.117-.52-.225zm.392-.376l.006-.007.008-.015.007-.007.008-.015.006-.014.007-.015.008-.014.014-.015.007-.014.008-.015.007-.022.007-.014.015-.015.007-.021.007-.021.007-.015.008-.021.007-.022.007-.022.007-.022.008-.021.007-.022v-.03l.007-.02v-.022l.007-.029v-.051l.008-.029v-.029l-.008-.029v-.029s.652.413.847.565c.188.16.601.579.688.717 0 0-.492-.109-.869-.232-.412-.138-.702-.326-.854-.413zm1.1.702l.036.014.036.007.036.014.044.015.043.008.044.014.043.007.051.014.043.015.051.008.102.02.108.03.101.022.11.021.1.022.102.022.05.007.051.014.044.007.043.015.043.007.044.007.037.015.035.007.036.008.037.014c.325.102.564.26.883.608 0 0-.485.13-.738.217 0 0-.413-.282-.869-.448-.297-.116-.435-.427-.746-.731zm.73 2.324l-.014-.015-.014-.014-.014-.022-.015-.014-.007-.008-.008-.014-.007-.008-.007-.007v-.015l-.007-.007-.008-.015-.007-.007v-.014l-.007-.007v-.029l-.007-.007v-.087l.007-.014v-.015l.007-.022.007-.014v-.022c.059-.138.341-.297.514-.377.29-.137 1.072-.347 1.325-.427 0 0 .123.152.196.312.022.065-.014.123-.123.137-.217.044-.746-.058-.868.03-.138.086-.094.209-.094.325 0 0-.24-.145-.391-.108-.211.043-.334.144-.457.485zm.703-1.086h-.013l-.008.008h-.014l-.008.006h-.014l-.014.007-.015.008h-.014l-.022.007-.015.007-.021.007-.015.008-.021.007-.022.007-.022.015-.029.007-.022.007-.021.015-.029.007-.022.015-.028.014-.022.008-.03.014-.028.015-.03.014-.02.015-.03.014-.029.015-.028.021-.03.014-.029.015s-.13-.05-.195-.174c-.065-.116-.333-.514-.572-.565 0 0 .203-.014.326-.057 0 0 .253.065.434.144.18.065.404.181.672.355zm-2.02-.5h.007l.008.007h.007l.007.007h.007l.008.008h.014l.007.007h.015l.007.007h.021l.007.007h.023l.014.008h.029l.014.007h.044l.014.007h.051s.695.478.775.949c.065.412-.145.608-.254.659-.101.058-.58.246-.898-.391 0 0 .529.174.68-.08.146-.26-.086-.637-.238-.738-.189-.145-.536-.246-.739-.203.001 0 .168-.16.37-.261z" fill="#0055A5"/><path d="M83.306 36.662l-.037-.13-.029-.131-.035-.137-.022-.065-.022-.065-.014-.066-.022-.072-.022-.065-.029-.065-.021-.065-.03-.065-.028-.065-.03-.065c-.303-.66-1.07-2.418-2.663-2.722-.152-.036.166-.406.311-.384.145.014.427.202.558.282v-.441c.007-.065.065-.094.123-.094.065.007.449 0 .572.145.362.42.978 1.55 1.318 2.389.354.84.593 1.1.955.97.362-.13.58-.55 1.224-.42.224.044.47.196.659.413-.052.101-.116.232-.42.232-.297 0-.87.123-1.188.34-.32.222-.652.302-1.108.346zm-6.356-5.445l-.015.05-.007.051-.014.051-.015.05-.014.05-.015.052-.021.043-.022.051-.015.051-.029.05-.021.052-.022.043-.03.05-.021.051-.058.102s.485 2.236 2.244 2.403c0 0-.036-.463-.558-.81-.52-.356-1.296-.906-1.237-1.738 0 0 .13.029.383.34.246.312.797 1.217 1.644 1.224 0 0-.123-.427-.5-.666-.376-.247-.846-.558-1.063-.934-.218-.37-.45-.543-.594-.616zm-1.166 2.172l.006.03.015.035.014.036.022.036.022.043.029.044.022.05.036.051.029.05.029.051.036.05.036.059.036.058.043.058.08.108.08.116.079.109.044.058.043.05.036.051.043.05.036.052.037.043.036.044.036.043.036.037.036.029.029.036.029.022c.282.267.992.977 1.375 1.332 0 0-1.078-.268-1.686-.818 0 0-.428.246-.739.246h-.021c-.312 0-.746-.246-.746-.246-.6.55-1.679.818-1.679.818.376-.355 1.086-1.065 1.376-1.332.289-.261.955-1.202 1.056-1.499h.008z" fill="#0055A5"/><path d="M75.784 35.872h.043l.022-.007h.065l.043-.007.044-.008.036-.014.044-.008.036-.014.043-.007.036-.015.029-.014.037-.007.014-.008.014-.007.015-.007.014-.007.015-.008h.014l.015-.007.014-.007c-.13.26-.369.688-.593.854h-.007c-.232-.166-.471-.594-.602-.854.13.058.355.152.594.152h.014z" fill="#0055A5"/><path d="M76.703 40.867l4.214-5.907.427.31.03-1.382-1.275.485.398.29c-.203.297-3.352 4.705-3.75 5.263l-1.904-3.461-.24.354-1.693 2.57-.428-.282v1.361l1.289-.507-.434-.296c.239-.348 1.15-1.738 1.462-2.201l1.904 3.403z" fill="#0055A5"/><path d="M77.478 38.543l-.109-.159-.058-.08-.05-.08-.05-.072-.051-.08-.05-.072-.044-.072-.05-.073-.044-.065-.022-.029-.021-.036-.015-.03-.021-.028-.022-.029-.015-.029-.021-.029-.015-.022-.014-.029-.022-.022-.015-.021-.014-.022c-.102.195-.319.586-.558 1.014l-.304-.536.825-1.477.232.355.847 1.274-.32.45zm.868.384l.297.463.427-.283.007 1.361-1.288-.506.427-.297c-.044-.065-.109-.167-.196-.297l.326-.441zm8.478-8.999l-.029-.029-.036-.029-.028-.021-.037-.022-.036-.014-.037-.015-.035-.007-.036-.008-.037-.007h-.043l-.036.007h-.043l-.044.015-.043.007-.044.014-.043.015-.051.022-.044.021-.043.022-.05.022-.044.03-.05.028-.051.036-.05.029-.044.036-.05.036-.051.043-.05.036-.051.043-.051.044-.05.043-.051.044c-.543.492-.876.999-.558 1.346.29.312.84.044 1.383-.448.534-.492.874-.999.563-1.339z" fill="#0055A5"/><path d="M85.948 36.01l.007-.007h.008v-.008h.006v-.006h.008v-.007h.007l.008-.008h.006v-.007h.008c.282-.254.441-.637.441-1.057a1.468 1.468 0 00-1.47-1.47c-.803 0-1.462.659-1.462 1.47 0 .109.021.282.021.282-.058-.123-.304-.68-.354-.782a1.87 1.87 0 013.483-.319c-.117-.738-.485-1.404-.746-1.65-.312-.297-.84-.39-.84-.39.348.05.803-.16 1.318-.63.485-.45.738-.84.753-1.166-.03.464-.015.717.116 1.1.18.508.659 1.449.492 2.513-.094.587-.521 1.456-1.23 2.165-.153.159-.211.398-.226.52 0 0-1.049 0-1.288.022 0 0-.254-.021-.246-.181 0-.152.144-.188.26-.188.13 0 .645.007.92-.196zm-6.878.304l-.166-.094-.166-.102-.166-.108-.16-.116-.166-.123-.166-.13-.16-.137-.159-.145-.159-.152-.16-.166-.158-.166-.152-.181-.152-.196-.151-.196-.152-.21-.073-.108-.08-.116-.136-.232c.217.094.484.029.484.029.022.021.05.08.065.101.739 1.08 1.55 1.767 2.375 2.209l-.242.34zm1.1.05l.123.044.13.043.124.037.13.036.123.036.123.036.13.03.123.028.123.029.123.022.123.022.123.02.246.044.239.037a6.24 6.24 0 001.201.072c0 .065 0 .145.03.21 0 0-.066.087-.066.196a6.534 6.534 0 01-1.23-.08c-.695-.109-1.427-.246-2.164-.521l.247-.34zm4.779.327h.08l.021-.007h.233l.058.007h.05l.058.007h.05l.059.008h.05l.022.006h.029l.021.007h.022c.254.036.543.094.579.232.029.138-.065.282-.196.485-.08.123-.268.058-.376.014-.109-.043-.71-.361-.811-.47-.094-.101-.13-.253.05-.29zm-.608.405l.007-.007v-.008h.007l.015-.007h.007l.007-.006.008-.008h.007l.014-.008h.008l.014-.007h.008l.014-.006h.022l.014-.008h.022l.015-.008h.101l.014.008h.015l.014.008h.015l.014.006h.015c.166.066.76.42.803.58.037.166-.043.254-.13.29a1.31 1.31 0 01-.297.079.459.459 0 01-.362-.174c-.08-.094-.355-.427-.391-.507-.043-.065-.065-.181 0-.217zm-.08.362l.007.008.015.014.007.008.007.014.015.014.014.015.008.014.014.015.015.014.014.022.015.014.014.015.03.036.028.036.03.037.007.014.014.015.015.014.014.014.007.015.014.015.008.014.015.014.007.008.007.014.007.008.007.008v.007l.008.007c.02.043-.022.122-.094.108-.08-.007-.485-.05-.717-.21-.24-.159-.391-.463-.232-.578.16-.118.412-.06.68.237zm-.13-.89h.022l.007-.008h.022l.014-.007h.015l.014-.007h.03l.022-.008h.014l.021-.007h.051l.015-.007h.1l.015.007h.015l.014.007h.014l.008.008h.014v.007h.007l.008.007.007.007.008.007c.079.13.021.26-.218.377-.239.115-.695.21-.782.086-.087-.122.036-.332.543-.47z" fill="#0055A5"/></g><defs><clipPath id="clip0"><path fill="#fff" d="M0 0h100v48.447H0z"/></clipPath></defs></svg>