<svg width="132" height="53" fill="none" xmlns="http://www.w3.org/2000/svg"><g clip-path="url(#clip0)"><path d="M40.388 27.093c.196.31.293.736.293 1.28 0 1.008-.248 1.81-.742 2.404-1.25 1.5-2.514 2.657-3.79 3.471-1.278.815-2.79 1.223-4.534 1.223-1.928 0-3.504-.563-4.729-1.688s-2.371-2.876-3.439-5.255c-.781-1.707-1.426-2.98-1.934-3.82-.508-.84-1.01-1.435-1.505-1.784-.495-.35-1.12-.563-1.876-.64l-.43 2.87c-.547 3.697-1.61 6.36-3.185 7.99-1.577 1.628-3.746 2.442-6.507 2.442-1.798 0-3.394-.432-4.787-1.3-1.394-.865-2.365-1.97-2.912-3.315a4.105 4.105 0 01-.274-1.513c0-.775.182-1.447.547-2.016.365-.57.834-.854 1.407-.854.339 0 .626.084.86.252.235.168.456.46.664.873.808 1.5 1.517 2.547 2.13 3.141.612.595 1.374.893 2.286.893 1.042 0 1.935-.472 2.677-1.416.743-.943 1.27-2.398 1.583-4.363l.547-3.685h-.625c-.6 0-1.069-.168-1.407-.504-.339-.335-.508-.801-.508-1.396 0-.672.176-1.208.528-1.61.351-.4.787-.6 1.31-.6h1.289c.182-1.267.313-2.146.39-2.638l1.212-8.726a16.888 16.888 0 00-1.915-.117c-2.215 0-3.895.382-5.041 1.145-1.147.763-1.72 1.855-1.72 3.277 0 .647.071 1.17.215 1.57.143.402.332.848.567 1.339.104.207.156.44.156.698 0 .569-.267 1.066-.801 1.493-.535.427-1.127.64-1.778.64-.834 0-1.446-.362-1.837-1.086a8.776 8.776 0 01-1.172-4.421c0-1.63.45-3.115 1.348-4.46.899-1.345 2.26-2.424 4.084-3.239 1.823-.814 4.077-1.222 6.761-1.222 1.173 0 2.247.065 3.225.195.977.13 2.051.374 3.223.736 1.277.388 1.915 1.112 1.915 2.172 0 1.422-.612 2.133-1.836 2.133l-1.524 10.433c3.048-.31 5.53-1.61 7.444-3.898C28.156 11.91 29.752 8.8 31.03 4.87c.235-.724.631-1.28 1.192-1.668.56-.388 1.27-.581 2.13-.581.729 0 1.296.162 1.7.484.404.324.605.783.605 1.377 0 .182-.052.48-.156.892-1.303 4.266-3.165 7.654-5.588 10.162-2.424 2.508-5.068 4.176-7.934 5.002.99.233 1.804.582 2.443 1.048a6.458 6.458 0 011.622 1.726c.442.685.95 1.636 1.524 2.85.807 1.707 1.563 2.916 2.267 3.626.703.712 1.524 1.067 2.462 1.067.833 0 1.628-.278 2.384-.834.755-.556 1.706-1.506 2.852-2.85.313-.363.665-.544 1.056-.544.337 0 .604.155.8.466z" fill="#fff"/><path d="M59.185 27.093c.196.31.294.736.294 1.28 0 1.034-.248 1.836-.742 2.404-1.121 1.37-2.326 2.495-3.616 3.374-1.29.88-2.755 1.32-4.396 1.32-1.382 0-2.502-.492-3.361-1.475-1.485.957-3.035 1.448-4.65 1.474-.34 4.99-1.109 9.16-2.306 12.508C39.208 51.326 37.45 53 35.132 53c-1.407 0-2.449-.504-3.127-1.513-.677-1.008-1.016-2.405-1.016-4.188 0-2.535.586-5.488 1.758-8.862 1.173-3.375 2.983-7.091 5.433-11.15 0-3.775-.027-6.4-.079-7.873-.026-.75.274-1.345.9-1.785.625-.44 1.406-.659 2.344-.659.547 0 .944.11 1.192.33.247.22.384.653.41 1.3 0 .646.013 1.124.04 1.434.833-1.034 1.654-1.777 2.462-2.23a5.199 5.199 0 012.58-.679c1.458 0 2.65.582 3.575 1.745.924 1.164 1.388 2.69 1.388 4.577 0 1.371-.222 2.702-.665 3.995a13.027 13.027 0 01-1.836 3.53c.547.154 1.002.232 1.367.232.86 0 1.681-.31 2.462-.93.782-.621 1.785-1.655 3.01-3.104.312-.362.664-.543 1.055-.543.337 0 .605.155.8.466zm-21.982 17.55c.469-3.039.768-6.82.899-11.345-1.12 2.585-2.007 5.054-2.658 7.408-.65 2.352-.977 4.33-.977 5.934 0 .827.098 1.46.293 1.9.196.44.424.66.684.66.703-.001 1.29-1.52 1.759-4.558zm8.304-14.429c.795-.814 1.427-1.822 1.896-3.025.469-1.203.703-2.462.703-3.781 0-.776-.156-1.364-.469-1.765-.312-.4-.73-.602-1.25-.602-.938 0-2.072.983-3.4 2.948-.027 1.138-.04 2.806-.04 5.003a73.9 73.9 0 01-.039 2.754c.938-.206 1.804-.717 2.6-1.532z" fill="#fff"/><path d="M77.025 23.874c.182.336.274.762.274 1.28 0 1.24-.378 1.977-1.134 2.21-1.562.543-3.282.853-5.158.93-.495 2.172-1.472 3.912-2.93 5.217-1.46 1.306-3.114 1.959-4.964 1.959-1.563 0-2.898-.375-4.006-1.125a7.147 7.147 0 01-2.52-2.986c-.574-1.241-.86-2.585-.86-4.034 0-1.965.377-3.716 1.133-5.255.755-1.538 1.798-2.74 3.126-3.607 1.33-.866 2.8-1.3 4.417-1.3 1.98 0 3.576.68 4.787 2.037 1.212 1.357 1.92 3.032 2.13 5.023 1.224-.078 2.683-.336 4.377-.776.208-.052.39-.078.547-.078.338 0 .599.169.781.505zm-11.43 6.476c.611-.672 1.022-1.641 1.23-2.909a5.364 5.364 0 01-1.856-2.133 6.267 6.267 0 01-.645-2.792c0-.413.04-.827.118-1.24h-.196c-1.042 0-1.909.497-2.599 1.492-.69.996-1.035 2.399-1.035 4.209 0 1.422.28 2.507.84 3.257.56.75 1.218 1.125 1.974 1.125.833 0 1.556-.336 2.168-1.009z" fill="#fff"/><path d="M74.621 33.918c-.404-1.033-.605-2.688-.605-4.964 0-3.36.481-6.554 1.446-9.58.234-.75.619-1.299 1.153-1.648s1.283-.524 2.247-.524c.52 0 .885.065 1.094.195.208.13.313.374.313.736 0 .414-.196 1.345-.587 2.793-.052.181-.163.595-.332 1.241-.17.647-.326 1.403-.468 2.269a25.129 25.129 0 00-.293 2.85c.938-3.62 2.123-6.205 3.555-7.756 1.433-1.552 3.166-2.328 5.198-2.328 1.355 0 2.417.421 3.186 1.26.768.841 1.153 1.92 1.153 3.24 0 1.085-.242 2.003-.723 2.753-.483.75-1.114 1.124-1.896 1.124-.495 0-.892-.116-1.191-.349-.3-.232-.45-.556-.45-.97 0-.18.026-.387.078-.62.052-.233.091-.4.118-.504.13-.388.195-.75.195-1.086 0-.698-.339-1.047-1.016-1.047-.522 0-1.03.265-1.524.795-.496.53-.893 1.241-1.192 2.133a9.02 9.02 0 00-.45 2.89c0 1.396.326 2.514.977 3.354.651.841 1.589 1.26 2.814 1.26.964 0 1.823-.315 2.58-.95.755-.633 1.797-1.738 3.126-3.315.313-.362.664-.543 1.055-.543.338 0 .605.155.801.465.196.31.293.737.293 1.28 0 1.034-.248 1.836-.742 2.405-1.172 1.396-2.345 2.528-3.517 3.393-1.173.866-2.501 1.3-3.987 1.3-1.224 0-2.338-.265-3.34-.795-1.004-.53-1.818-1.17-2.443-1.92-.626-.75-1.03-1.474-1.212-2.172-.052.207-.248.93-.586 2.172-.287 1.034-.62 1.745-.996 2.133-.378.387-.958.582-1.74.582-.991 0-1.688-.517-2.091-1.552z" fill="#fff"/><path d="M112.92 27.19c.195.323.293.73.293 1.221 0 .595-.091 1.06-.274 1.397-.182.336-.468.634-.859.892l-7.504 5.003c-.99 5.352-2.286 9.56-3.889 12.623-1.602 3.065-3.64 4.596-6.115 4.596-1.329 0-2.41-.407-3.244-1.221-.834-.815-1.25-1.881-1.25-3.2 0-1.216.279-2.456.84-3.723.56-1.267 1.602-2.721 3.126-4.363 1.524-1.643 3.68-3.523 6.468-5.644l.117-.892c.182-.956.39-2.327.625-4.11-.521 1.861-1.25 3.276-2.188 4.246-.938.97-1.93 1.455-2.97 1.455-1.172 0-2.13-.537-2.873-1.61-.742-1.072-1.114-2.41-1.114-4.014 0-1.939.13-3.716.391-5.332.26-1.616.69-3.33 1.29-5.14.26-.775.625-1.33 1.094-1.667.47-.336 1.211-.504 2.228-.504.572 0 .97.09 1.191.271.222.181.332.453.332.815 0 .207-.143.905-.43 2.094-.26.957-.468 1.823-.624 2.599-.21 1.06-.391 2.075-.547 3.044-.157.97-.235 1.765-.235 2.385 0 .983.274 1.474.821 1.474.39 0 .879-.388 1.465-1.163.587-.776 1.212-1.952 1.876-3.53.664-1.577 1.31-3.516 1.935-5.817.208-.776.527-1.331.957-1.668.43-.335 1.075-.504 1.934-.504.6 0 1.017.078 1.251.233.235.155.352.414.352.776 0 .646-.339 2.87-1.016 6.67l-1.016 6.245c2.006-1.5 3.96-2.87 5.861-4.11.339-.208.639-.311.9-.311.338-.001.606.16.801.483zM97.19 46.91c.807-1.5 1.615-3.994 2.424-7.485-2.008 1.68-3.46 3.213-4.358 4.596-.9 1.383-1.349 2.592-1.349 3.627 0 .438.085.8.254 1.085.17.285.45.427.84.427.651 0 1.38-.75 2.19-2.25z" fill="#fff"/><path d="M112.334 33.317c-1.421-1.435-2.13-3.328-2.13-5.681 0-2.095.416-3.93 1.25-5.508.834-1.576 1.915-2.792 3.244-3.645 1.329-.853 2.722-1.28 4.182-1.28 1.432 0 2.546.421 3.341 1.26.794.841 1.192 1.92 1.192 3.24 0 1.085-.241 2.003-.723 2.753-.483.75-1.114 1.124-1.896 1.124-.495 0-.893-.116-1.192-.349-.299-.232-.449-.556-.449-.97 0-.18.026-.387.078-.62.052-.233.091-.4.117-.504.13-.388.196-.75.196-1.086 0-.336-.085-.595-.254-.776-.17-.18-.41-.271-.723-.271-.6 0-1.159.265-1.68.795-.522.53-.939 1.248-1.251 2.153-.313.905-.469 1.9-.469 2.986 0 3 1.315 4.499 3.947 4.499 1.068 0 2.221-.355 3.459-1.067 1.237-.71 2.455-1.777 3.654-3.2.312-.361.664-.542 1.055-.542.338 0 .605.155.801.465.196.31.293.737.293 1.28 0 .983-.248 1.784-.742 2.405a12.665 12.665 0 01-4.397 3.47c-1.707.815-3.355 1.223-4.944 1.223-2.553 0-4.54-.719-5.959-2.154z" fill="#fff"/><path d="M62.565 1.828a52.695 52.695 0 00-.975 1.44c-.024.047-.809-.307-1.737-.756-.928-.472-1.784-.85-1.903-.85-.333 0-.333 6.847 0 8.57.428 2.22 1.499 4.297 2.64 5.123 1.095.78 1.642.874 2.094.355.38-.449 1.523-.449 1.903 0 .429.52 1 .425 2.046-.307 2.118-1.535 2.95-4.297 2.95-9.916V1.639l-.523.165c-.31.07-1.166.472-1.903.826l-1.356.685-.976-1.417C64.302 1.12 63.778.482 63.66.482c-.096 0-.595.614-1.095 1.346z" fill="#1890ff"/></g><defs><clipPath id="clip0"><path fill="#fff" d="M0 0h131.087v53H0z"/></clipPath></defs></svg>