<svg width="558" height="243" fill="none" xmlns="http://www.w3.org/2000/svg"><path opacity=".4" d="M18.46 91.675c6.513 0 11.794-5.262 11.794-11.753 0-6.491-5.28-11.753-11.795-11.753-6.514 0-11.795 5.262-11.795 11.753 0 6.491 5.281 11.753 11.795 11.753zM389.651 95.108c9.287 0 16.815-7.5 16.815-16.754 0-9.253-7.528-16.754-16.815-16.754-9.286 0-16.814 7.5-16.814 16.754 0 9.253 7.528 16.754 16.814 16.754zM358.532 98.11c6.515 0 11.796-5.263 11.796-11.754s-5.281-11.753-11.796-11.753c-6.514 0-11.795 5.262-11.795 11.753 0 6.491 5.281 11.753 11.795 11.753z" fill="#F16C7D"/><path d="M184.896 161.615H21.855v80.962h163.041v-80.962zM544.341 162.151H381.299v80.426h163.042v-80.426zM364.618 162.151H201.577v80.426h163.041v-80.426z" fill="#3F3D56"/><path d="M184.896 80.116H21.855v83.643h163.041V80.116zM364.618 80.116H201.577v83.643h163.041V80.116zM544.341 80.116H381.299v83.643h163.042V80.116z" fill="#F2F2F2"/><path d="M461.757 100.26l-.847.066 4.248 54.182.847-.066-4.248-54.182z" fill="#3F3D56"/><path d="M482.999 133.733c0 16.365-13.169 31.324-13.169 31.324a91.726 91.726 0 01-5.098-29.63c0-16.365 2.282-29.631 5.098-29.631 2.815 0 13.169 11.573 13.169 27.937z" fill="#3F3D56"/><path d="M445.663 141.165c6.301 15.112 24.223 23.891 24.223 23.891a91.746 91.746 0 00-6.703-29.312c-6.302-15.112-13.518-26.49-16.118-25.413-2.6 1.076-7.704 15.722-1.402 30.834zM461.334 105.796c3.05 0 5.522-2.464 5.522-5.503 0-3.04-2.472-5.503-5.522-5.503-3.05 0-5.523 2.464-5.523 5.503s2.473 5.503 5.523 5.503z" fill="#3F3D56"/><path d="M463.458 99.446a2.544 2.544 0 002.548-2.54 2.544 2.544 0 00-2.548-2.54 2.544 2.544 0 00-2.549 2.54 2.544 2.544 0 002.549 2.54z" fill="#F16C7D"/><path d="M144.822 5.893l-.847.066 4.248 54.182.847-.066-4.248-54.182z" fill="#3F3D56"/><path d="M166.063 39.367c0 16.364-13.169 31.324-13.169 31.324a91.73 91.73 0 01-5.097-29.631c0-16.365 2.282-29.631 5.097-29.631 2.816 0 13.169 11.573 13.169 27.938z" fill="#3F3D56"/><path d="M128.727 46.798c6.302 15.112 24.224 23.891 24.224 23.891a91.775 91.775 0 00-6.703-29.312c-6.302-15.112-13.518-26.49-16.118-25.413-2.6 1.076-7.705 15.722-1.403 30.834zM144.398 11.43c3.05 0 5.523-2.465 5.523-5.504 0-3.039-2.473-5.503-5.523-5.503s-5.522 2.464-5.522 5.503c0 3.04 2.472 5.503 5.522 5.503z" fill="#3F3D56"/><path d="M146.522 5.08a2.544 2.544 0 002.549-2.54A2.544 2.544 0 00146.522 0a2.544 2.544 0 00-2.549 2.54 2.544 2.544 0 002.549 2.54z" fill="#F16C7D"/><path d="M262.903 104.114l-.817.23 14.793 52.31.817-.23-14.793-52.31z" fill="#3F3D56"/><path d="M290.301 132.806c3.209 16.049-6.772 33.284-6.772 33.284a91.858 91.858 0 01-10.811-28.066c-3.209-16.05-3.573-29.504-.812-30.053 2.761-.548 15.185 8.786 18.395 24.835z" fill="#3F3D56"/><path d="M255.142 147.365c9.144 13.593 28.442 18.713 28.442 18.713a91.873 91.873 0 00-12.322-27.442c-9.145-13.593-18.453-23.346-20.792-21.784-2.339 1.562-4.472 16.919 4.672 30.513zM262.495 109.732c3.05 0 5.522-2.464 5.522-5.503s-2.472-5.503-5.522-5.503c-3.05 0-5.523 2.464-5.523 5.503s2.473 5.503 5.523 5.503z" fill="#3F3D56"/><path d="M263.914 103.034a2.544 2.544 0 002.548-2.54 2.544 2.544 0 00-2.548-2.54 2.544 2.544 0 00-2.549 2.54 2.544 2.544 0 002.549 2.54z" fill="#F16C7D"/><path d="M310.209 105.441l-23.821 48.89.764.37 23.821-48.89-.764-.37z" fill="#3F3D56"/><path d="M312.32 145.392c-8.301 14.12-27.253 20.395-27.253 20.395a91.828 91.828 0 0110.633-28.134c8.302-14.12 17.001-24.417 19.43-22.999 2.429 1.418 5.492 16.618-2.81 30.738z" fill="#3F3D56"/><path d="M276.335 132.999c-2.228 16.213 8.782 32.815 8.782 32.815a91.82 91.82 0 009.086-28.667c2.228-16.214 1.774-29.666-1.015-30.046-2.79-.381-14.624 9.685-16.853 25.898zM310.591 111.129c3.05 0 5.522-2.463 5.522-5.503 0-3.039-2.472-5.502-5.522-5.502-3.05 0-5.523 2.463-5.523 5.502 0 3.04 2.473 5.503 5.523 5.503z" fill="#3F3D56"/><path d="M314.141 106.314a2.544 2.544 0 002.549-2.54 2.544 2.544 0 00-2.549-2.539 2.544 2.544 0 00-2.548 2.539 2.544 2.544 0 002.548 2.54z" fill="#F16C7D"/><path d="M157.224 74.14s-4.374-12.35-7.534-8.475c-3.159 3.874 4.861 10.412 4.861 10.412l2.673-1.937z" fill="#CCA28B"/><path d="M177.88 62.032l-2.632.972s-1.257 5.566-.771 6.535c.486.968.729.242 0 2.18-.729 1.936-2.916 7.021-3.159 7.748-.243.726-14.094-4.6-14.094-7.264 0 0-2.916 3.39-4.374 4.116 0 0 16.038 11.623 18.225 13.076 2.187 1.453 3.402.726 5.346-.969 1.945-1.695 10.207-15.74 10.207-15.74l-8.748-10.654z" fill="#575A89"/><path d="M170.832 147.994s.243 2.663.729 2.905 4.131 6.296 0 7.507c-4.131 1.21-6.561.726-7.533 1.211-.972.484-17.983 1.452-18.226-1.211-.243-2.664 8.263-3.148 8.263-3.148s7.776-5.085 8.991-7.749c1.215-2.663 7.776.485 7.776.485zM220.163 152.836s5.832 9.928 4.374 11.139c-1.458 1.211-15.658 5.623-17.739 5.811-2.674.243-4.618-1.937-2.431-3.147 2.188-1.211 6.805-6.296 6.805-7.991v-4.359l8.991-1.453z" fill="#2F2E41"/><path d="M225.752 87.942s5.103 6.296-2.916 16.466l-13.365 16.95s8.262 13.076 8.505 19.856c.243 6.78 1.944 5.327 2.43 8.232.486 2.906 2.673 1.453.972 3.633-1.701 2.179-8.019 4.116-9.963 2.421a5.997 5.997 0 01-1.944-4.843c0-.968-3.402-6.538-3.645-8.233-.243-1.695-9.235-15.497-9.235-15.497s-2.916-8.233.486-12.834c3.402-4.6 5.65-11.125 5.65-11.125s-10.024 12.094-17.071 15c0 0-2.673.484-2.187 1.695.486 1.21 0 1.937-.729 3.148-.729 1.21-5.833 15.255-7.534 18.887-1.701 3.632-.972 5.811-2.916 7.022-1.944 1.211-10.692.242-10.692-.969 0-1.21 1.215-4.358 1.944-6.053.729-1.695 6.561-21.309 6.075-24.699-.486-3.39.243-7.991 3.888-9.928 3.645-1.937 22.114-17.676 23.086-17.676.972 0 29.161-1.453 29.161-1.453z" fill="#2F2E41"/><path d="M176.908 49.925c5.636 0 10.206-4.553 10.206-10.17s-4.57-10.17-10.206-10.17c-5.637 0-10.207 4.553-10.207 10.17s4.57 10.17 10.207 10.17z" fill="#CCA28B"/><path d="M185.17 40.724s3.159 5.57 7.047 6.296-10.206 11.865-10.206 11.865-3.402-10.655-6.319-11.139c-2.916-.484 9.478-7.022 9.478-7.022z" fill="#CCA28B"/><path d="M175.206 63.486c0 3.147 9.478 12.107 9.478 12.107l8.991 7.506s.243 2.664 1.215 2.906c.972.242 2.187.242 1.215 1.695-.972 1.453-3.402 4.6-1.215 5.085.66.1 1.324.163 1.99.189.584.034 1.269.065 2.039.094 1.799.063 4.049.104 6.486.087.693-.002 1.397-.01 2.114-.024 9.189-.181 19.832-1.235 18.962-4.705-1.458-5.811-.486-7.748-3.645-10.896-3.159-3.148-8.262-14.044-8.262-14.044s-10.206-17.193-18.712-17.193l-1.766-.462a4.06 4.06 0 00-2.482.135 4.045 4.045 0 00-1.934 1.555c-1.706 2.588-4.396 6.477-5.968 7.732-2.43 1.937-2.809.547-2.809.547s-5.697 4.538-5.697 7.686z" fill="#575A89"/><path d="M196.834 100.291s-7.047 10.897-2.673 12.834c4.374 1.937 6.804-11.381 6.804-11.381l-4.131-1.453z" fill="#CCA28B"/><path d="M183.58 38.607c-.392-.05-.516-.542-.582-.93-.353-2.077-1.906-4.047-3.994-4.382a5.673 5.673 0 00-2.379.19 9.036 9.036 0 00-3.053 1.498 5.04 5.04 0 01-1.526.955c-.383.112-2.009.833-2.389.954-.836.268-1.527 1.14-2.387.967-.823-.165-1.136-1.155-1.268-1.981-.302-1.883.779-4.69 1.854-6.267.816-1.197 2.196-1.885 3.577-2.333a25.775 25.775 0 014.96-.982c2.27-.267 4.621-.41 6.797.29 2.175.7 4.156 2.41 4.562 4.652.085.466.101.945.205 1.408.253 1.13 1.003 2.08 1.44 3.151a6.046 6.046 0 01-.186 4.92c-.605 1.215-1.659 2.381-1.432 3.718l-1.875-1.473a1.359 1.359 0 01-.626-1.588l.273-2.34a2.057 2.057 0 00-.122-1.265c-.834-1.45-1.196.92-1.849.838z" fill="#2F2E41"/><path opacity=".1" d="M201.208 83.583l-2.289 9.485c2.309.082 5.363.126 8.6.063.817-2.44 1.597-4.986 2.195-7.368 2.187-8.718-1.458-22.036-3.402-28.331-1.944-6.296-6.805-7.991-6.805-7.991a22.203 22.203 0 00-5.589 2.906c-3.159 2.179 7.29 31.236 7.29 31.236z" fill="#000"/><path opacity=".1" d="M199.264 83.099l-2.384 9.875c.584.033 1.269.065 2.039.094 1.799.063 4.049.104 6.486.087.877-2.593 1.726-5.33 2.365-7.877 2.187-8.717-1.458-22.035-3.402-28.33-1.944-6.296-6.197.605-6.197.605s1.701-4.117-1.458-1.937c-3.159 2.179 2.551 27.483 2.551 27.483z" fill="#000"/><path d="M198.535 48.957s4.861 1.695 6.805 7.99c1.944 6.296 5.589 19.614 3.402 28.331-2.187 8.718-6.805 19.614-6.805 19.614s-4.617-3.39-6.318-2.664l4.617-19.129s-10.449-29.057-7.29-31.237a22.203 22.203 0 015.589-2.905z" fill="#575A89"/><path d="M177.925 165.186a556.863 556.863 0 00-20.187-3.043l2.554-4.935c-.861-.298-4.645 2.528-4.645 2.528l3.352-14.324c-4.332.521-6.534 15.146-6.534 15.146l-4.84-4.944 2.343 5.559a448.487 448.487 0 00-51.217-3.212l2.186-4.223c-.861-.299-4.645 2.527-4.645 2.527l3.352-14.324c-4.332.521-6.535 15.147-6.535 15.147l-4.84-4.945 2.482 5.888c-9.842.162-19.669.827-29.442 1.993 2.21-6.58 9.722-12.837 9.722-12.837-5.736 1.7-8.745 4.549-10.318 7.204a114.997 114.997 0 016.692-39.86s-11.857 25.71-10.344 42.968l.181 3.065c-10.052 1.434-14.007 4.804-14.007 4.804l134.69-.182zM537.37 169.476a554.734 554.734 0 00-20.187-3.044l2.554-4.934c-.862-.298-4.646 2.528-4.646 2.528l3.352-14.324c-4.331.52-6.534 15.146-6.534 15.146l-4.839-4.945 2.343 5.559a448.518 448.518 0 00-51.218-3.212l2.186-4.223c-.861-.298-4.645 2.528-4.645 2.528l3.352-14.324c-4.332.52-6.534 15.146-6.534 15.146l-4.84-4.945 2.482 5.888c-9.842.162-19.669.827-29.443 1.993 2.211-6.579 9.723-12.837 9.723-12.837-5.737 1.7-8.746 4.549-10.318 7.205a114.987 114.987 0 016.692-39.861s-11.857 25.711-10.344 42.969l.181 3.064c-10.053 1.434-14.007 4.804-14.007 4.804l134.69-.181z" fill="#3F3D56"/><path d="M558 241.928H0V243h558v-1.072z" fill="#2F2E41"/></svg>