<svg width="562" height="432" fill="none" xmlns="http://www.w3.org/2000/svg"><g clip-path="url(#clip0)"><path opacity=".1" d="M32.355 221.97c19.081 24.301 11.668 59.796-.455 88.23-4.063 9.521-8.65 19.589-6.958 29.796 2.093 12.48 13.215 21.61 24.894 26.446 21.286 8.818 46.763 6.717 66.326-5.474 16.903-10.534 29.01-27.662 46.202-37.714 28.775-16.823 65.396-10.47 96.637 1.12 22.106 8.197 46.272 18.86 68.233 10.293 15.452-6.031 26.135-20.704 31.959-36.261 2.81-7.505 4.849-15.638 10.217-21.594 3.212-3.538 7.355-6.052 11.62-8.17 38.95-19.342 88.138-8.985 125.969-30.434 25.547-14.474 41.903-41.815 49.145-70.314 7.242-28.499 6.423-58.38 4.56-87.726-1.306-20.86-3.65-43.124-16.956-59.222C529.671 3.919 505.516-2.417 483.684.82c-21.833 3.238-41.626 14.774-59.037 28.359-21.758 16.983-41.941 38.127-68.655 45.032-18.198 4.685-37.333 2.144-56.098 1.233-31.371-1.485-62.752 1.817-93.951 5.425-29.866 3.458-59.946 7.264-88.4 16.994-20.13 6.862-36.262 19.364-55.274 28.075-12.39 5.694-25.905 7.264-37.643 14.518-14.452 8.931-27.704 24.467-24 42.646 3.522 17.3 21.602 25.968 31.729 38.867z" fill="#F16C7D"/><path d="M101.577 328.202s-1.766-52.409-30.075-82.023C59.62 233.753 51.816 217.97 49.75 200.89a133.836 133.836 0 01-.663-24.43" stroke="#535461" stroke-width="2" stroke-miterlimit="10"/><path d="M31.354 157.708c1.938 5.854 18.134 19.299 18.134 19.299s4.962-20.484 3.024-26.333a11.158 11.158 0 00-5.58-6.463 11.13 11.13 0 00-8.507-.618 11.15 11.15 0 00-6.453 5.588 11.18 11.18 0 00-.618 8.522v.005zM24.62 195.926c4.818 3.86 25.692 6.337 25.692 6.337s-6.958-19.895-11.775-23.749a11.132 11.132 0 00-15.3 2.018 11.173 11.173 0 001.384 15.394zM43.702 251.063c6.091.901 25.376-7.505 25.376-7.505s-16.025-13.66-22.116-14.56c-2.924-.433-5.9.315-8.274 2.08a11.177 11.177 0 00-2.305 15.618 11.144 11.144 0 007.32 4.389v-.022zM67.53 289.523c5.851 1.919 26.281-3.121 26.281-3.121s-13.493-16.173-19.343-18.093a11.13 11.13 0 00-8.507.643 11.16 11.16 0 00-5.562 6.479 11.182 11.182 0 00.642 8.521 11.154 11.154 0 006.469 5.571h.02zM72.883 196.017c-2.842 5.468-20.965 16.18-20.965 16.18s-1.648-21.01 1.194-26.484a11.144 11.144 0 0110.855-5.967 11.133 11.133 0 017.566 3.943 11.17 11.17 0 011.35 12.328zM100.186 241.349c-4.346 4.369-24.835 9.151-24.835 9.151s4.705-20.543 9.045-24.912a11.14 11.14 0 017.874-3.284 11.123 11.123 0 017.886 3.255 11.16 11.16 0 013.279 7.886 11.18 11.18 0 01-3.249 7.899v.005zM120.685 289.056c-3.543 5.039-22.934 13.226-22.934 13.226s1.166-21.042 4.715-26.087a11.155 11.155 0 017.237-4.834 11.122 11.122 0 018.5 1.848 11.154 11.154 0 014.586 7.404 11.186 11.186 0 01-2.125 8.449l.021-.006zM350.346 292.616s-8.5-2.885-12.589 4.615a13.698 13.698 0 00.182 13.172c2.676 4.863 8.221 11.178 18.733 10.615 8.896-.477 11.829-7.275 12.642-13.601a13.972 13.972 0 00-5.078-12.677 13.933 13.933 0 00-13.446-2.28l-.444.156z" fill="#F16C7D"/><path opacity=".1" d="M339.737 311.079a13.697 13.697 0 01-.182-13.172c4.089-7.505 12.589-4.616 12.589-4.616l.433-.155a13.805 13.805 0 019.988.225 13.818 13.818 0 00-11.775-1.126l-.434.156s-8.5-2.885-12.589 4.615a13.698 13.698 0 00.182 13.172c1.772 3.217 4.775 7.028 9.635 9.114a21.08 21.08 0 01-7.847-8.213z" fill="#fff"/><path opacity=".2" d="M345.957 296.224s3.152 2.482 10.801 0h-10.801z" fill="#000"/><path d="M345.282 278.19s5.401 14.651 4.951 18.484l4.282-.45s-7.204-12.866-5.401-18.034h-3.832z" fill="#F16C7D"/><path opacity=".2" d="M345.282 278.19s5.401 14.651 4.951 18.484l4.282-.45s-7.204-12.866-5.401-18.034h-3.832z" fill="#000"/><path d="M367.329 279.412s-8.5-4.353-12.311-.756c-3.811 3.597-4.389 12.791-4.389 12.791s13.868 1.909 16.7-12.035z" fill="#F16C7D"/><path opacity=".1" d="M367.329 279.412s-8.5-4.353-12.311-.756c-3.811 3.597-4.389 12.791-4.389 12.791s13.868 1.909 16.7-12.035z" fill="#fff"/><path d="M350.635 291.447s2.231-10.673 16.694-12.035" stroke="#F16C7D" stroke-miterlimit="10"/><path d="M106.314 227.577s1.735-28.338-12.005-45.75a43.057 43.057 0 01-9.404-25.529c-.104-4.42.197-8.839.9-13.204" stroke="#535461" stroke-width="2" stroke-miterlimit="10"/><path d="M77.214 132.072c.744 3.254 8.783 11.338 8.783 11.338s3.746-10.786 2.981-14.035a6.051 6.051 0 00-2.67-3.777 6.02 6.02 0 00-4.556-.779 6.03 6.03 0 00-3.77 2.674 6.06 6.06 0 00-.78 4.563l.012.016zM71.615 152.326c2.392 2.326 13.525 4.739 13.525 4.739s-2.724-11.081-5.117-13.403a6.03 6.03 0 00-9.81 2.103 6.047 6.047 0 001.402 6.566v-.005zM79.081 183.028c3.212.798 14.061-2.75 14.061-2.75s-7.938-8.187-11.17-8.985a6.03 6.03 0 00-4.566.695 6.052 6.052 0 00-2.044 8.298 6.038 6.038 0 003.72 2.742zM89.952 204.975c3.056 1.335 14.323-.332 14.323-.332s-6.423-9.414-9.495-10.722a6.027 6.027 0 00-8.053 3.075 6.05 6.05 0 003.236 8.001l-.01-.022zM97.633 154.861c-1.81 2.804-12.129 7.64-12.129 7.64s.188-11.409 2.002-14.212a6.023 6.023 0 018.344-1.785 6.05 6.05 0 011.782 8.357zM110.024 180.696c-2.564 2.144-13.858 3.656-13.858 3.656s3.586-10.829 6.156-12.963a6.028 6.028 0 018.496.796 6.048 6.048 0 01-.794 8.511zM118.625 207.463c-2.168 2.535-13.039 5.95-13.039 5.95s1.708-11.258 3.881-13.815a6.028 6.028 0 018.51-.654 6.034 6.034 0 012.089 4.127 6.05 6.05 0 01-1.436 4.397l-.005-.005z" fill="#F16C7D"/><path opacity=".5" d="M77.214 132.072c.744 3.254 8.783 11.338 8.783 11.338s3.746-10.786 2.981-14.035a6.051 6.051 0 00-2.67-3.777 6.02 6.02 0 00-4.556-.779 6.03 6.03 0 00-3.77 2.674 6.06 6.06 0 00-.78 4.563l.012.016zM71.615 152.326c2.392 2.326 13.525 4.739 13.525 4.739s-2.724-11.081-5.117-13.403a6.03 6.03 0 00-9.81 2.103 6.047 6.047 0 001.402 6.566v-.005zM79.081 183.028c3.212.798 14.061-2.75 14.061-2.75s-7.938-8.187-11.17-8.985a6.03 6.03 0 00-4.566.695 6.052 6.052 0 00-2.044 8.298 6.038 6.038 0 003.72 2.742zM89.952 204.975c3.056 1.335 14.323-.332 14.323-.332s-6.423-9.414-9.495-10.722a6.027 6.027 0 00-8.053 3.075 6.05 6.05 0 003.236 8.001l-.01-.022zM97.633 154.861c-1.81 2.804-12.129 7.64-12.129 7.64s.188-11.409 2.002-14.212a6.023 6.023 0 018.344-1.785 6.05 6.05 0 011.782 8.357zM110.024 180.696c-2.564 2.144-13.858 3.656-13.858 3.656s3.586-10.829 6.156-12.963a6.028 6.028 0 018.496.796 6.048 6.048 0 01-.794 8.511zM118.625 207.463c-2.168 2.535-13.039 5.95-13.039 5.95s1.708-11.258 3.881-13.815a6.028 6.028 0 018.51-.654 6.034 6.034 0 012.089 4.127 6.05 6.05 0 01-1.436 4.397l-.005-.005z" fill="#fff"/><path d="M270.028 10.93v184.396H540.28V10.931H270.028z" fill="url(#paint0_linear)"/><path d="M537.417 19.294h-263.38v172.692h263.38V19.294z" fill="#fff"/><path d="M537.417 11.081h-263.38v12.706h263.38V11.08z" fill="#EEE"/><path d="M284.056 20.323a3.08 3.08 0 003.078-3.082 3.08 3.08 0 00-3.078-3.083 3.08 3.08 0 00-3.077 3.083 3.08 3.08 0 003.077 3.082z" fill="#FF5252"/><path d="M292.518 20.323a3.08 3.08 0 003.078-3.082 3.08 3.08 0 00-3.078-3.083 3.08 3.08 0 00-3.077 3.083 3.08 3.08 0 003.077 3.082z" fill="#FF0"/><path d="M300.975 20.323a3.08 3.08 0 003.078-3.082 3.08 3.08 0 00-3.078-3.083 3.08 3.08 0 00-3.078 3.083 3.08 3.08 0 003.078 3.082z" fill="#69F0AE"/><path opacity=".5" d="M382.278 44.137h-98.147v4.096h98.147v-4.096zM382.278 52.328h-98.147v4.096h98.147v-4.096zM382.278 60.52h-98.147v4.095h98.147V60.52zM382.273 68.71h-64.315v4.097h64.315V68.71zM335.808 76.908h-51.677v4.096h51.677v-4.096zM351.791 85.1h-39.779v4.095h39.779V85.1zM510.912 72.812H395.289v66.653h115.623V72.812z" fill="#F16C7D"/><path d="M524.667 79.138H409.045v66.653h115.622V79.138z" fill="#EEE"/><path d="M473.734 145.774h-64.689v-12.19c15.806-7.398 40.122-11.553 64.689 12.19z" fill="#F16C7D"/><path opacity=".1" d="M523.923 144.048v1.726h-80.676v-.37s39.698-38.695 80.676-1.356z" fill="#000"/><path d="M524.667 144.048v1.726h-80.676v-.37s39.698-38.695 80.676-1.356zM422.431 97.011a5.951 5.951 0 005.947-5.956 5.951 5.951 0 00-5.947-5.956 5.95 5.95 0 00-5.946 5.956 5.95 5.95 0 005.946 5.956z" fill="#F16C7D"/><path d="M473.07 86.541c-.68 0-1.44 0-1.953.043-.233.013-.462.06-.68.14l-3.501 1.26c2.826.07 5.776.048 8.666 0l16.239-.124c1.654 0 3.399-.026 4.78-.128.926-.065 1.605-.167 2.456-.242 3.073-.273 7.558-.22 11.562-.209 4.003.011 8.836-.09 10.244-.493h-8.591c-.925 0-1.9 0-2.718-.048-.959-.054-1.542-.161-2.382-.236-1.392-.118-3.308-.134-5.096-.14-9.784-.005-19.456.231-29.026.177zM482.71 93.773h-.423a.55.55 0 00-.145.032l-.76.274h1.879l3.517-.027c.358 0 .733 0 1.033-.027l.535-.053c.664-.06 1.638-.048 2.505-.043.742.025 1.485-.011 2.221-.107h-2.451c-.177 0-.332-.038-.536-.049-.299 0-.717-.026-1.102-.032-2.109-.01-4.202.032-6.273.032zM457.8 104.195h-.423a.562.562 0 00-.145.032l-.76.274h1.879l3.517-.027c.358 0 .733 0 1.033-.027l.535-.054c.664-.059 1.638-.048 2.505-.042.742.024 1.485-.011 2.221-.108h-2.451c-.177 0-.332-.037-.536-.048-.299 0-.717-.027-1.102-.032-2.104-.005-4.202.043-6.273.032z" fill="#F4F4F4"/><path d="M443.809 142.488h-2.773s-.872-30.622 2.794-40.073h.701s-2.467 34.653-.722 40.073z" fill="#F16C7D"/><path d="M441.887 100.844s-2.269 6.299-1.22 9.114c0 0 1.573-5.774 3.409-6.648 1.836-.873 3.747 6.648 3.747 6.648s1.07-4.723-.872-8.578a15.212 15.212 0 015.764 6.123s.348-2.627-4.191-8.042c0 0 4.02 1.072 6.637 3.501 0 0 .873-1.925-4.544-5.077 0 0 .701-2.273 4.892-1.222 0 0 0-2.975-6.637-2.45 0 0 0-1.925 4.368-1.576 0 0 0-2.45-5.069-1.576 0 0 1.07-1.576 1.745-1.925a3.506 3.506 0 00-2.446.702s.176-3.152-2.446-4.374l-.348 4.374s-2.939-3.468-2.27-2.798a7.69 7.69 0 01.536 3.324s-2.971-2.45-6.637.177c0 0 4.544.348 5.24 1.924 0 0-3.843-.702-4.716-.177 0 0 2.971 1.073 2.794 1.748 0 0-5.24 0-5.941 1.925 0 0 5.417.702 5.765 1.222 0 0-6.29 4.551-6.637 5.774 0 0 6.465-3.85 7.493-3.85 1.028 0-4.716 5.603-4.368 7.002.016-.006 4.732-5.618 5.952-5.265zM478.294 141.346h2.141s.669-23.395-2.141-30.616h-.535s1.868 26.467.535 30.616z" fill="#F16C7D"/><path d="M479.761 109.524s1.734 4.825.936 6.969c0 0-1.199-4.412-2.601-5.082-1.402-.67-2.869 5.082-2.869 5.082s-.803-3.608.669-6.551a11.623 11.623 0 00-4.405 4.68s-.267-2.005 3.212-6.149c0 0-3.073.804-5.074 2.681 0 0-.669-1.469 3.468-3.876 0 0-.535-1.737-3.747-.939 0 0 0-2.273 5.074-1.871 0 0 0-1.468-3.334-1.2 0 0 0-1.871 3.87-1.201a5.906 5.906 0 00-1.333-1.469 2.672 2.672 0 011.868.536s-.134-2.407 1.868-3.34l.267 3.34s2.243-2.648 1.735-2.144a5.882 5.882 0 00-.402 2.541s2.27-1.871 5.074.134c0 0-3.468.268-4.003 1.469 0 0 2.938-.537 3.602-.134 0 0-2.27.804-2.141 1.334 0 0 4.003 0 4.539 1.469 0 0-4.138.536-4.405.938 0 0 4.817 3.474 5.074 4.413 0 0-4.941-2.944-5.738-2.944-.798 0 3.602 4.289 3.334 5.361 0-.037-3.602-4.315-4.538-4.047zM503.846 136.774h1.322s.413-14.475-1.322-18.962h-.331s1.156 16.394.331 18.962z" fill="#F16C7D"/><path d="M504.73 117.067s1.07 2.98.578 4.288c0 0-.744-2.734-1.606-3.147-.862-.412-1.777 3.147-1.777 3.147a6.924 6.924 0 01.412-4.058 7.205 7.205 0 00-2.73 2.9s-.166-1.243 1.986-3.806a8.373 8.373 0 00-3.142 1.657s-.412-.912 2.141-2.402c0 0-.332-1.072-2.312-.579 0 0 0-1.41 3.142-1.158 0 0 0-.911-2.066-.745 0 0 0-1.158 2.398-.745a3.641 3.641 0 00-.825-.912 1.66 1.66 0 011.156.333 2.248 2.248 0 011.157-2.07l.165 2.07s1.392-1.641 1.071-1.324a3.627 3.627 0 00-.246 1.57 2.57 2.57 0 013.142.081s-2.141.166-2.479.911c0 0 1.82-.332 2.232-.08 0 0-1.407.498-1.322.825 0 0 2.479 0 2.81.912 0 0-2.563.332-2.729.579 0 0 2.976 2.144 3.141 2.734 0 0-3.056-1.823-3.553-1.823-.498 0 2.231 2.648 2.066 3.313.026.011-2.206-2.638-2.81-2.471z" fill="#F16C7D"/><path d="M455.488 120.39l-.279-1.49a.812.812 0 00-.251-.584l-1.29-.633a1.451 1.451 0 01-.23-.386v-.032a.776.776 0 00.15-.306.603.603 0 000-.085.478.478 0 00.535-.386v-.032a.479.479 0 01-.434.359 1.316 1.316 0 00.584-1.072v-.054a.483.483 0 00.219-.322v-.032a.476.476 0 01-.23.3 1.335 1.335 0 00-.08-.359h.032a.476.476 0 00.476-.477v-.032a.48.48 0 01-.476.445h-.059a.776.776 0 00.535-.638v-.032a.48.48 0 01-.096.257.472.472 0 00-.09-.356.471.471 0 00-.314-.188.49.49 0 00-.187.009.49.49 0 00-.294.219.5.5 0 00-.063.177l-.085-.049a.48.48 0 01.433-.348h-.032a.472.472 0 00-.46.322 1.314 1.314 0 00-1.659.477c-.102.075-.23.182-.225.273a.94.94 0 00-.113.139 1.83 1.83 0 00-.149.992 1.074 1.074 0 01-.343.912.466.466 0 00.353 0c.111-.047.216-.108.311-.183a.694.694 0 00.219-.209c.062.041.129.075.198.102.027.225.032.483-.064.563v-.043c-.24.183-.54.269-.84.241a1.074 1.074 0 00-.867.536l-.402 1.721v.054a.129.129 0 00.097.096l.123.033c.041.273.039.552-.006.825-.084.417-.133.84-.144 1.265.032.215.085 1.319.107 1.844a5.151 5.151 0 00-.107.537l-.6 3.597s-.444 2.879-.423 3.752l-.08.504s-1.215 1.528-.856 1.743c.358.214.904.311 1.429-.504.07-.192.184-.364.332-.504a.498.498 0 00.166-.418l-.038-.354H450.023c.33-1.086.51-2.211.535-3.345 0 0 1.108-3.957 1.954-4.579l.08-.037.182 3.828-.182 4.224-.037.252s-1.215 1.528-.857 1.742c.359.215.905.311 1.429-.504a1.32 1.32 0 01.332-.504.496.496 0 00.166-.418l-.054-.536c.209-.708.75-2.761.536-3.946l.369-2.525c.375-.418.321-1.484.321-1.484.295-.612.359-3.024.359-3.024l.075-1.19h.224l.027-.032v-.027l.006-.081zm-1.039 2.418a2.434 2.434 0 00-.112-.246h-.032v-.092c.017-.04.031-.081.043-.123a.473.473 0 00.069-.257c.053.235.071.477.054.718h-.022zm-.112-1.018l-.075-.799v-.064l.102 1.013-.027-.15zm-3.527.107a.272.272 0 00-.065.214.9.9 0 00.033.242l-.118.498v-.954c.075-.101.142-.209.198-.322a.538.538 0 01-.022.322h-.026z" fill="url(#paint1_linear)"/><path d="M451.586 115.753a1.77 1.77 0 00-.145.955 1.007 1.007 0 01-.332.879.446.446 0 00.338 0c.107-.046.208-.105.299-.177a.667.667 0 00.209-.204.786.786 0 00.048-.407c.001-.243.023-.485.064-.724 0-.15.166-.536 0-.633-.165-.096-.406.193-.481.311z" fill="#72351C"/><path d="M449.129 131.573l-.112.735s-1.173 1.474-.825 1.678c.348.203.873.3 1.376-.483.068-.183.178-.348.321-.482a.478.478 0 00.161-.402l-.113-1.137-.808.091zM452.656 131.868l-.112.735s-1.172 1.474-.824 1.678c.347.203.872.3 1.375-.483a1.25 1.25 0 01.321-.482.478.478 0 00.161-.403l-.113-1.136-.808.091z" fill="#333"/><path d="M450.831 122.964s-.535.396-.755 1.785l-.578 3.463a30.69 30.69 0 00-.396 3.753l.974.332a11.95 11.95 0 00.536-3.216s1.172-4.177 1.991-4.471l.171 3.688-.182 4.16.835.166s.846-2.643.578-4.042l.434-2.975a4.416 4.416 0 00-.193-2.965l-3.415.322z" fill="#4D8AF0"/><g opacity=".1" fill="#000"><path opacity=".1" d="M452.506 124.663v-.064c-.819.295-1.991 4.471-1.991 4.471a11.734 11.734 0 01-.503 3.184l.107.038a11.99 11.99 0 00.535-3.217s1.039-3.811 1.852-4.412zM454.262 122.631h-.113c.401.934.467 1.977.188 2.954l-.434 2.976c.257 1.324-.492 3.752-.567 4.02h.107s.846-2.643.578-4.042l.434-2.975a4.421 4.421 0 00-.193-2.933z"/></g><path d="M450.082 120.251a.121.121 0 00.096.123c.269.064.521.185.739.354.412.322-.434-.643-.434-.643l-.284.064-.117.102z" fill="#F55F44"/><path opacity=".1" d="M450.082 120.251a.121.121 0 00.096.123c.269.064.521.185.739.354.412.322-.434-.643-.434-.643l-.284.064-.117.102z" fill="#000"/><path d="M454.107 121.114a2.58 2.58 0 011.161-.461.107.107 0 00.107-.107.924.924 0 00-1.268.568z" fill="#F55F44"/><path opacity=".1" d="M455.375 120.53a.924.924 0 00-1.268.568s.717-.536 1.215-.461" fill="#000"/><path d="M452.977 117.313a1.27 1.27 0 10-.001-2.54 1.27 1.27 0 00.001 2.54z" fill="#72351C"/><path d="M452.099 116.933s.182.745 0 .9c-.181.156-.535.435-.267.654.267.22 1.242.59 1.563.413.321-.177.69-.129.605-.498-.086-.37-.793-.295-.809-2.145l-1.092.676z" fill="#FDB797"/><path opacity=".1" d="M450.307 120.042c.027.404.002.809-.075 1.206a7.113 7.113 0 00-.14 1.217c.038.268.118 2.043.118 2.043s-.139 1.554.616 1.41c.754-.145-.118-1.77-.118-1.77l.037-2.144c.21-.277.343-.604.386-.949.032-.477-.824-1.013-.824-1.013z" fill="#000"/><path d="M450.29 120.042c.028.404.003.809-.074 1.206a7.113 7.113 0 00-.14 1.217c.038.268.118 2.043.118 2.043s-.139 1.554.616 1.41c.754-.145-.118-1.77-.118-1.77l.037-2.144c.21-.277.343-.604.386-.949.037-.477-.825-1.013-.825-1.013z" fill="#FDB797"/><path opacity=".1" d="M455.124 120.144l-.102 1.656s-.064 2.322-.348 2.911c0 0 .075 1.609-.68 1.609-.754 0 .129-1.786.129-1.786s.407-1.812.198-2.391l-.198-1.988 1.001-.011z" fill="#000"/><path d="M455.134 120.144l-.101 1.656s-.065 2.322-.348 2.911c0 0 .075 1.609-.68 1.609s.128-1.786.128-1.786.407-1.812.199-2.391l-.199-1.988 1.001-.011z" fill="#FDB797"/><path opacity=".1" d="M452.678 118.536s.61.284.947-.537l1.247.612a.772.772 0 01.241.562l.267 1.437a.92.92 0 00-.709.017.918.918 0 00-.484.519l.075.81c.061.2.047.415-.038.606a.136.136 0 000 .107c.023.059.03.122.023.185a.39.39 0 01-.202.301.388.388 0 01-.179.05c-.335.003-.67.028-1.001.075-.268.075-1.071-.156-1.344 0-.273.155-.835-.118-.835-.118l.156-.654s-.102-.322 0-.434a2.8 2.8 0 00-.065-1.399s-.46-.435-.727-.36l.385-1.656a1.009 1.009 0 01.835-.536c.289.026.577-.056.808-.231 0 0-.3.542.6.644z" fill="#000"/><path opacity=".1" d="M452.742 118.509c.166.043.615.096.883-.579l1.247.611c.076.072.137.16.178.257a.766.766 0 01.063.306l.268 1.437a.91.91 0 00-1.194.536l.075.809.048.161a.458.458 0 01-.064.407.144.144 0 000 .15c.022.06.03.123.023.186a.394.394 0 01-.382.351 7.295 7.295 0 00-1.001.075c-.267.075-1.07-.156-1.343 0-.273.155-.835-.118-.835-.118l.155-.654s-.102-.322 0-.435a2.79 2.79 0 00-.064-1.399s-.46-.434-.728-.359l.385-1.657a1.016 1.016 0 01.835-.536c.289.027.577-.055.809-.23 0 0-.3.536.492.67l.15.011z" fill="#000"/><path d="M452.742 118.536c.166.042.615.096.883-.579l1.247.611a.772.772 0 01.241.563l.267 1.436a.92.92 0 00-.709.017.918.918 0 00-.484.519l.075.81c.061.2.047.415-.038.606a.14.14 0 000 .107c.023.059.03.123.023.185a.39.39 0 01-.202.302.4.4 0 01-.179.049c-.335.003-.67.028-1.001.075-.268.075-1.071-.155-1.344 0-.273.156-.835-.118-.835-.118l.156-.654s-.102-.322 0-.434a2.8 2.8 0 00-.065-1.399s-.46-.435-.727-.36l.385-1.656a1.009 1.009 0 01.835-.536c.289.026.577-.056.808-.231 0 0-.3.536.493.67l.171.017z" fill="#F55F44"/><path opacity=".1" d="M453.213 116.316l-1.071.681c.028.117.049.235.065.354.124.049.256.075.39.075a1.1 1.1 0 00.707-.322 4.174 4.174 0 01-.091-.788z" fill="#000"/><path d="M452.554 117.362a1.05 1.05 0 10-.001-2.101 1.05 1.05 0 00.001 2.101z" fill="#FDB797"/><path d="M454.107 115.501a.46.46 0 100-.92.46.46 0 000 .92z" fill="#72351C"/><path d="M454.192 115.528a.463.463 0 01-.46-.429v.032a.46.46 0 10.921 0v-.032a.465.465 0 01-.461.429z" fill="#72351C"/><path d="M453.93 115.989a.463.463 0 01-.375-.504v.032a.464.464 0 00.718.464.461.461 0 00.192-.297v-.033a.46.46 0 01-.535.338zM453.571 117.094a.461.461 0 01-.374-.504v.032a.465.465 0 00.372.539.462.462 0 00.538-.373v-.032a.46.46 0 01-.536.338zM454.192 115.287a.459.459 0 01-.46-.429v.032a.463.463 0 00.46.461.458.458 0 00.461-.461v-.032a.46.46 0 01-.461.429z" fill="#72351C"/><path d="M453.55 115.035a.465.465 0 01.127-.314.465.465 0 01.307-.142h-.032a.46.46 0 100 .922h.032a.46.46 0 01-.434-.466z" fill="#72351C"/><path opacity=".1" d="M454.016 119.393a1.68 1.68 0 010 .692s-.064.606.037.708M450.901 119.506c.048.228.048.463 0 .691 0 0-.065.606.037.708M450.874 122.009a.456.456 0 00.305 0 .644.644 0 01.369 0M451.029 121.114a2.68 2.68 0 001.071-.166s1.305.322 1.68.091" fill="#000"/><path d="M450.665 126.631h-.358c-.125 0-.225.1-.225.225v.048c0 .124.1.225.225.225h.358a.225.225 0 00.225-.225v-.048a.225.225 0 00-.225-.225z" fill="#FDB797"/><path d="M450.082 126.759h.433l.375.059h-.134l-.674-.059zM452.988 124.679h.434l.374.038h-.134l-.674-.038zM452.988 124.77h.434l.374.038h-.134l-.674-.038zM452.988 124.867h.434l.374.037h-.134l-.674-.037zM452.988 124.947h.434l.374.038h-.134l-.674-.038zM450.082 127.113h.433l.375.043h-.134l-.674-.043zM450.082 127.07h.433l.375.043h-.134l-.674-.043zM450.082 127.011h.433l.375.043h-.134l-.674-.043zM450.082 126.979h.433l.375.043h-.134l-.674-.043zM450.082 126.7h.433l.375.059h-.134l-.674-.059zM450.082 126.625h.433l.375.059h-.134l-.674-.059z" fill="#F0E4E4"/><path opacity=".1" d="M452.731 115.635a2.55 2.55 0 00.145 1.158 1.383 1.383 0 01-.065 1.105.361.361 0 00.327-.081c.091-.081.171-.175.235-.279a.744.744 0 00.145-.289 1.16 1.16 0 00-.075-.488 6.239 6.239 0 01-.155-.868c0-.177 0-.692-.198-.74-.198-.048-.321.332-.359.482z" fill="#000"/><path d="M452.758 115.625c-.042.391.007.788.144 1.157a1.398 1.398 0 01-.058 1.116.375.375 0 00.326-.081c.092-.081.171-.175.236-.279a.742.742 0 00.144-.289 1.144 1.144 0 00-.075-.488 6.239 6.239 0 01-.155-.868c0-.177 0-.692-.198-.74-.198-.049-.311.321-.364.472z" fill="#72351C"/><path opacity=".1" d="M452.308 115.898c.086.091.107.231.182.338a.658.658 0 00.536.209.287.287 0 01.149.032c.081.054.086.172.14.252a.287.287 0 00.219.098.287.287 0 00.219-.098.72.72 0 00.129-.44 2.823 2.823 0 000-.536.849.849 0 00-.236-.568.99.99 0 00-.412-.177 1.221 1.221 0 00-.637-.048c-.102.034-.2.083-.289.145l-.374.252c-.14.096-.396.289-.145.396.182.038.386 0 .519.145z" fill="#000"/><path d="M452.335 115.887c.086.091.107.231.182.338a.658.658 0 00.535.209.299.299 0 01.15.032c.08.054.086.172.139.252a.3.3 0 00.22.099.295.295 0 00.219-.099.711.711 0 00.166-.461 2.823 2.823 0 000-.536.853.853 0 00-.235-.568.977.977 0 00-.413-.177 1.218 1.218 0 00-.636-.048c-.103.034-.2.083-.289.144l-.375.252c-.139.097-.396.29-.145.397.145.032.343.032.482.166z" fill="#72351C"/><path d="M453.015 124.679h.433l.375.038h-.134l-.674-.038zM453.015 124.77h.433l.375.038h-.134l-.674-.038zM453.015 124.867h.433l.375.037h-.134l-.674-.037zM453.015 124.947h.433l.375.038h-.134l-.674-.038zM452.811 129.895h.434l.375.038h-.134l-.675-.038zM452.811 129.981h.434l.375.038h-.134l-.675-.038zM452.811 130.072h.434l.375.038h-.134l-.675-.038zM452.811 130.163h.434l.375.038h-.134l-.675-.038z" fill="#F0E4E4"/><path opacity=".2" d="M210.017 372.413h-42.573v-24.022h42.573v24.022zm-40.775-1.801h38.966v-20.42h-38.966v20.42z" fill="#F16C7D"/><path d="M139.108 336.398c2.677 1.566 5.497 2.204 8.414 1.233.758-.255 1.491-.58 2.189-.97 27.298.579 52.577.311 53.556-2.632 1.606-4.879-8.563-28.906-13.696-40.518a12.993 12.993 0 003.746-3.919c7.13 8.165 20.393 18.699 28.277 19.224 0 0 11.508 27.379 24.455 23.052 12.947-4.326 14.387-27.378 7.911-30.257l-43.156-27.378v-45.428a17.046 17.046 0 001.803-8.417c0-.536.027-1.072 0-1.608l-1.439-12.969s-.075-.428-.273-1.206c-3.212-12.496-10.368-20.907-20.457-22.156.491-.899.79-1.891.878-2.911.208-2.424-.798-4.895-.231-7.259.664-2.756 3.212-4.535 5.305-6.433 4.469-4.096 7.284-9.65 10.003-15.07 2.591-5.162 5.219-10.459 5.888-16.195.669-5.736-1.071-12.105-5.754-15.483-3.64-2.632-8.762-3.323-11.379-6.969-1.172-1.64-1.659-3.661-2.468-5.505-2.328-5.313-7.348-9.082-12.797-11.05-19.119-6.894-42.573 1.02-54.771 16.92-3.982 5.189-6.856 11.129-9.699 17.021l-10.276 21.277c-1.772 3.662-3.485 8.235-1.119 11.542 1.156 1.609 3.137 2.606 3.94 4.423 1.07 2.413-.268 5.57 1.306 7.693.867 1.174 2.371 1.64 3.661 2.327a14.337 14.337 0 014.426 3.929L94.785 198.22a15.215 15.215 0 00-5.812 10.513l-2.232 22.28a27.151 27.151 0 00-1.007 7.779c-.08 2.348.193 4.937 1.365 6.969l.493-.118c.535 15.627 1.466 38.111 2.387 42.266.535 2.466 3.912 6.814 8.462 11.295l-1.606 4.557h.536l-.536 1.431h1.07c-4.538 16.426-16.886 28.805-16.886 28.805s28.555 1.554 58.089 2.401zm-26.836-75.9v-17.514c2.633.408 4.576 1.319 5.197 2.981l-5.197 14.533zm7.621-76.221l.086.128h-.032l-.054-.128z" fill="url(#paint2_linear)"/><path d="M184.823 224.044s1.365 48.581 2.735 54.741c1.37 6.159 21.185 24.654 31.424 25.341 0 0 10.929 26 23.229 21.894 12.3-4.107 13.665-26.001 7.494-28.74l-40.962-26.001v-52.001l-23.92 4.766z" fill="#FDB797"/><path d="M185.851 283.599s17.764 38.32 15.714 44.495c-2.05 6.176-116.146 0-116.146 0s21.179-21.213 17.079-44.495h83.353z" fill="#565171"/><path d="M172.186 170.011s-2.735 26.687 2.05 32.847c4.785 6.159-19.129 9.574-21.158 9.574s-23.909-7.505-28.009-9.58c-4.1-2.074-7.493-17.106-7.493-17.106s20.494 4.106 26.644-19.836l27.966 4.101z" fill="#FDB797"/><path d="M179.348 101.557c5.175 1.866 9.944 5.447 12.155 10.492.771 1.753 1.231 3.672 2.344 5.232 2.484 3.474 7.349 4.128 10.807 6.632 4.437 3.216 6.08 9.258 5.464 14.705-.615 5.446-3.115 10.48-5.571 15.38-2.586 5.152-5.256 10.422-9.501 14.314-1.98 1.817-4.41 3.506-5.042 6.122-.535 2.246.418 4.589.214 6.894-.492 5.688-7.279 8.336-12.947 8.969-2.462.273-5.283.289-7.017-1.485-.889-.911-1.333-2.144-1.9-3.292a15.779 15.779 0 00-5.741-6.367 15.727 15.727 0 00-16.484-.169 15.762 15.762 0 00-5.87 6.247c-1.327 2.562-2.103 5.666-4.523 7.232-3.703 2.396-8.654-.418-11.379-3.882-2.724-3.463-4.71-7.816-8.601-9.89-1.226-.654-2.676-1.073-3.474-2.209-1.493-2.016-.225-5.013-1.236-7.307-.766-1.726-2.644-2.681-3.747-4.203-2.248-3.142-.621-7.505 1.071-10.963l9.762-20.211c2.677-5.597 5.433-11.258 9.212-16.168 11.566-15.108 33.843-22.624 52.004-16.073z" fill="#8F5A6A"/><path opacity=".1" d="M154.427 207.645s-26.644 0-33.474-24.634l-22.426 17.407a14.477 14.477 0 00-5.519 9.988l-2.14 21.192s-2.393 7.869.342 12.657c0 0 28.368-7.184 29.037 1.024l-19.794 55.426s30.745.687 38.939-4.787c0 0 33.474 6.841 41.674-.686 8.2-7.527 16.394-6.841 9.564-23.947 0 0 13.665-13.687 7.494-32.847-6.172-19.16-.343.343-.343.343s13.322-6.503 12.637-18.817l-1.365-12.33s-.075-.407-.262-1.142c-4.164-16.233-15.356-25.196-31.087-19.481-4.597 1.667-9.297-.242-9.297-.242s5.144 22.264-13.98 20.876z" fill="#000"/><path d="M154.427 206.278s-26.644 0-33.474-24.634l-22.426 17.407a14.474 14.474 0 00-5.519 9.982l-2.14 21.192s-2.393 7.87.342 12.657c0 0 28.368-7.183 29.037 1.024l-19.804 55.427s30.744.686 38.938-4.787c0 0 33.474 6.84 41.674-.687 8.2-7.526 16.394-6.84 9.565-23.947 0 0 13.664-13.686 7.493-32.846-6.171-19.16-.343.343-.343.343s13.323-6.503 12.637-18.817l-1.364-12.33s-.075-.408-.263-1.142c-4.164-16.233-15.356-25.196-31.086-19.482-4.598 1.668-9.297-.241-9.297-.241s5.154 22.248-13.97 20.881z" fill="#B45181"/><path d="M91.231 229.539s1.365 48.581 2.736 54.74c1.37 6.16 21.179 24.634 31.423 25.32 0 0 10.93 26.001 23.23 21.894 12.299-4.106 13.664-26 7.493-28.74l-40.989-26v-52.001l-23.893 4.787z" fill="#FDB797"/><path opacity=".1" d="M120.605 231.249s-15.698 10.679-29.374 9.789c0 0-1.364-18.34 2.736-19.364 4.1-1.023 21.859 0 26.638 9.575z" fill="#000"/><path d="M120.605 230.568s-15.698 10.679-29.374 9.784c0 0-1.364-18.34 2.736-19.364 4.1-1.024 21.859 0 26.638 9.58z" fill="#B45181"/><path opacity=".1" d="M142.812 167.272l28.009 4.106s-.631 6.176-.754 13.269a31.397 31.397 0 01-32.966-5.361c2.345-2.895 4.368-6.787 5.711-12.014z" fill="#000"/><path d="M159.207 185.746c17.354 0 31.423-14.092 31.423-31.474 0-17.383-14.069-31.475-31.423-31.475-17.355 0-31.424 14.092-31.424 31.475 0 17.382 14.069 31.474 31.424 31.474z" fill="#FDB797"/><path opacity=".1" d="M150.937 148.224c1.295.601 2.773.612 4.202.601a272.506 272.506 0 0016.662-.617c4.207-.284 8.692-.777 11.936-3.474 4.367-3.629 5.058-10.432 2.804-15.648-2.253-5.216-6.851-9.06-11.705-11.998a34.93 34.93 0 00-8.843-4.015c-9.008-2.45-18.968.536-26.125 6.567-7.156 6.031-11.716 14.678-14.13 23.711-.835 3.126-1.905 6.846-4.994 7.795 2.056 3.426 7.071 3.967 10.678 2.252 5.31-2.531 8.029-12.212 12.798-13.735 5.304-1.678 2.21 6.492 6.717 8.561z" fill="#000"/><path d="M150.937 147.538c1.296.601 2.773.611 4.202.601a273.308 273.308 0 0016.662-.617c4.207-.284 8.692-.777 11.936-3.474 4.367-3.629 5.058-10.432 2.804-15.648-2.253-5.216-6.851-9.06-11.705-11.998a34.944 34.944 0 00-8.826-3.989c-9.009-2.45-18.969.537-26.125 6.568-7.157 6.031-11.717 14.678-14.131 23.711-.835 3.125-1.905 6.846-4.994 7.795 2.056 3.425 7.071 3.967 10.679 2.251 5.309-2.53 8.028-12.212 12.797-13.734 5.288-1.7 2.195 6.465 6.701 8.534z" fill="#8F5A6A"/><path opacity=".1" d="M190.973 269.569a120.847 120.847 0 00-31.424-4.106l31.424 4.106zM120.605 232.622s10.25 7.505 7.494 11.633l-7.494-11.633z" fill="#000"/><path opacity=".7" d="M403.88 310.205H68.446v29.372h19.526v92.428H385.05v-92.428h18.83v-29.372z" fill="url(#paint3_linear)"/><path d="M382.015 327.312H90.991v104.693h291.024V327.312z" fill="#E0E0E0"/><path opacity=".1" d="M382.015 332.785H90.991v16.421h291.024v-16.421z" fill="#000"/><path d="M400.465 315.678H71.861v28.054h328.604v-28.054z" fill="#E0E0E0"/><path d="M193.323 308.774h-55.895a3.481 3.481 0 00-3.479 3.484v1.925a3.481 3.481 0 003.479 3.484h55.895a3.482 3.482 0 003.479-3.484v-1.925a3.482 3.482 0 00-3.479-3.484z" fill="#535461"/><path opacity=".7" d="M313.307 209.596h-126c-8.342 0-15.105 6.774-15.105 15.129v77.926c0 8.356 6.763 15.129 15.105 15.129h126c8.342 0 15.104-6.773 15.104-15.129v-77.926c0-8.355-6.762-15.129-15.104-15.129z" fill="url(#paint4_linear)"/><path d="M308.602 211.596H189.357c-7.934 0-14.366 6.442-14.366 14.389v77.406c0 7.947 6.432 14.389 14.366 14.389h119.245c7.934 0 14.366-6.442 14.366-14.389v-77.406c0-7.947-6.432-14.389-14.366-14.389z" fill="#3E3F49"/><path d="M310.652 211.596H191.407c-7.934 0-14.366 6.442-14.366 14.389v77.406c0 7.947 6.432 14.389 14.366 14.389h119.245c7.934 0 14.366-6.442 14.366-14.389v-77.406c0-7.947-6.432-14.389-14.366-14.389z" fill="#535461"/><path d="M257.942 268.744c2.64 0 4.78-2.144 4.78-4.788a4.783 4.783 0 00-4.78-4.787 4.783 4.783 0 00-4.78 4.787 4.784 4.784 0 004.78 4.788z" fill="#E0E0E0"/></g><defs><linearGradient id="paint0_linear" x1="405.154" y1="195.326" x2="405.154" y2="10.925" gradientUnits="userSpaceOnUse"><stop stop-color="gray" stop-opacity=".25"/><stop offset=".54" stop-color="gray" stop-opacity=".12"/><stop offset="1" stop-color="gray" stop-opacity=".1"/></linearGradient><linearGradient id="paint1_linear" x1="7360.86" y1="6252.68" x2="7360.86" y2="5462.29" gradientUnits="userSpaceOnUse"><stop stop-color="gray" stop-opacity=".25"/><stop offset=".54" stop-color="gray" stop-opacity=".12"/><stop offset="1" stop-color="gray" stop-opacity=".1"/></linearGradient><linearGradient id="paint2_linear" x1="-93746" y1="166152" x2="-93746" y2="54144" gradientUnits="userSpaceOnUse"><stop stop-color="gray" stop-opacity=".25"/><stop offset=".54" stop-color="gray" stop-opacity=".12"/><stop offset="1" stop-color="gray" stop-opacity=".1"/></linearGradient><linearGradient id="paint3_linear" x1="148072" y1="98460.6" x2="148072" y2="70788.8" gradientUnits="userSpaceOnUse"><stop stop-color="gray" stop-opacity=".25"/><stop offset=".54" stop-color="gray" stop-opacity=".12"/><stop offset="1" stop-color="gray" stop-opacity=".1"/></linearGradient><linearGradient id="paint4_linear" x1="73225" y1="64337.6" x2="73225" y2="42506.1" gradientUnits="userSpaceOnUse"><stop stop-color="gray" stop-opacity=".25"/><stop offset=".54" stop-color="gray" stop-opacity=".12"/><stop offset="1" stop-color="gray" stop-opacity=".1"/></linearGradient><clipPath id="clip0"><path fill="#fff" d="M0 0h562v432H0z"/></clipPath></defs></svg>