<svg width="132" height="53" fill="none" xmlns="http://www.w3.org/2000/svg"><g clip-path="url(#clip0)"><path d="M40.388 27.093c.196.31.293.736.293 1.28 0 1.008-.248 1.81-.742 2.404-1.25 1.5-2.515 2.657-3.791 3.471-1.277.815-2.788 1.222-4.533 1.222-1.929 0-3.505-.562-4.73-1.688-1.224-1.124-2.37-2.875-3.438-5.254-.782-1.707-1.426-2.98-1.935-3.82-.508-.84-1.01-1.435-1.504-1.785-.495-.348-1.12-.562-1.876-.64l-.43 2.87c-.548 3.698-1.61 6.361-3.185 7.99-1.577 1.629-3.746 2.443-6.508 2.443-1.797 0-3.393-.433-4.787-1.3-1.394-.865-2.364-1.97-2.911-3.315a4.105 4.105 0 01-.274-1.513c0-.775.182-1.448.547-2.017.365-.568.834-.853 1.407-.853.338 0 .625.084.86.252.234.168.455.46.664.873.807 1.5 1.517 2.546 2.13 3.141.612.595 1.374.892 2.286.892 1.042 0 1.935-.471 2.677-1.415.743-.944 1.27-2.398 1.583-4.364l.547-3.684h-.625c-.6 0-1.069-.168-1.407-.504-.339-.335-.508-.801-.508-1.396 0-.672.176-1.208.528-1.61.351-.4.787-.6 1.31-.6h1.289c.182-1.268.312-2.146.39-2.638l1.212-8.726a16.89 16.89 0 00-1.915-.117c-2.215 0-3.895.382-5.041 1.145-1.147.763-1.72 1.855-1.72 3.277 0 .646.071 1.17.215 1.57.143.402.332.848.567 1.339.103.207.156.44.156.698 0 .569-.268 1.066-.801 1.493-.535.427-1.128.64-1.778.64-.834 0-1.446-.362-1.837-1.086a8.776 8.776 0 01-1.172-4.421c0-1.63.45-3.115 1.348-4.46.899-1.345 2.26-2.425 4.084-3.239 1.823-.814 4.077-1.222 6.761-1.222 1.173 0 2.247.065 3.224.194.977.13 2.052.375 3.224.737 1.277.388 1.915 1.112 1.915 2.172 0 1.422-.613 2.133-1.837 2.133l-1.524 10.433c3.049-.31 5.53-1.61 7.445-3.898 1.915-2.288 3.51-5.397 4.788-9.327.234-.724.63-1.28 1.192-1.668.56-.388 1.27-.582 2.13-.582.729 0 1.295.162 1.7.485.403.324.605.783.605 1.377 0 .181-.052.48-.156.892-1.303 4.266-3.166 7.654-5.589 10.162-2.423 2.507-5.068 4.176-7.933 5.002.99.233 1.804.582 2.443 1.048a6.456 6.456 0 011.621 1.726c.443.685.95 1.635 1.525 2.85.807 1.707 1.563 2.916 2.267 3.626.703.712 1.524 1.067 2.461 1.067.834 0 1.628-.278 2.384-.834.756-.556 1.706-1.506 2.853-2.851.313-.362.664-.543 1.056-.543.337 0 .604.155.8.466z" fill="#404040"/><path d="M59.185 27.092c.196.31.294.737.294 1.28 0 1.034-.248 1.836-.743 2.405-1.12 1.37-2.325 2.495-3.615 3.374-1.29.88-2.755 1.32-4.397 1.32-1.38 0-2.501-.492-3.36-1.475-1.485.957-3.036 1.448-4.651 1.474-.339 4.99-1.108 9.159-2.306 12.508C39.208 51.325 37.45 53 35.131 53c-1.407 0-2.448-.504-3.126-1.513-.678-1.009-1.017-2.405-1.017-4.189 0-2.534.587-5.488 1.759-8.862 1.172-3.374 2.983-7.09 5.432-11.15 0-3.775-.026-6.4-.078-7.873-.026-.75.274-1.344.899-1.784.625-.44 1.407-.66 2.345-.66.547 0 .944.111 1.192.33.247.22.384.654.41 1.3 0 .646.013 1.124.04 1.435.833-1.034 1.654-1.778 2.461-2.23a5.199 5.199 0 012.58-.68c1.458 0 2.65.582 3.576 1.746.924 1.164 1.387 2.69 1.387 4.577 0 1.37-.222 2.702-.664 3.995a13.027 13.027 0 01-1.837 3.529c.547.155 1.003.233 1.368.233.86 0 1.68-.31 2.462-.931.782-.62 1.784-1.654 3.01-3.103.312-.362.663-.543 1.055-.543.337 0 .605.155.8.465zm-21.983 17.55c.47-3.038.769-6.82.9-11.344-1.12 2.584-2.007 5.054-2.658 7.407-.651 2.353-.977 4.33-.977 5.935 0 .827.098 1.46.293 1.9.196.44.424.66.684.66.703-.002 1.29-1.52 1.758-4.558zm8.305-14.428c.794-.814 1.427-1.823 1.896-3.025.468-1.203.703-2.463.703-3.782 0-.775-.156-1.363-.469-1.765-.313-.4-.73-.6-1.25-.6-.939 0-2.072.982-3.4 2.947-.027 1.138-.04 2.805-.04 5.003 0 1.19-.014 2.107-.04 2.753.94-.206 1.805-.716 2.6-1.531z" fill="#404040"/><path d="M77.025 23.873c.182.337.274.763.274 1.28 0 1.241-.378 1.978-1.134 2.21-1.562.544-3.282.854-5.158.931-.495 2.172-1.472 3.912-2.93 5.217-1.46 1.305-3.114 1.959-4.964 1.959-1.563 0-2.898-.375-4.006-1.125a7.146 7.146 0 01-2.52-2.987c-.574-1.24-.86-2.585-.86-4.033 0-1.965.377-3.717 1.133-5.255.755-1.538 1.798-2.74 3.126-3.607 1.33-.866 2.8-1.3 4.417-1.3 1.98 0 3.576.68 4.787 2.037 1.212 1.357 1.92 3.031 2.13 5.022 1.224-.077 2.683-.335 4.377-.776.208-.051.39-.077.547-.077.338 0 .599.169.781.504zm-11.43 6.477c.611-.672 1.022-1.642 1.23-2.909a5.364 5.364 0 01-1.856-2.133 6.266 6.266 0 01-.645-2.792c0-.413.04-.827.118-1.241h-.196c-1.042 0-1.909.498-2.599 1.493-.69.995-1.035 2.399-1.035 4.208 0 1.423.28 2.508.84 3.258.56.75 1.218 1.124 1.974 1.124.833 0 1.556-.335 2.168-1.008z" fill="#404040"/><path d="M74.621 33.918c-.404-1.034-.605-2.689-.605-4.964 0-3.361.481-6.555 1.446-9.58.234-.75.619-1.3 1.153-1.648.534-.349 1.283-.524 2.247-.524.52 0 .885.065 1.094.194.208.13.313.375.313.737 0 .414-.196 1.345-.587 2.793-.052.18-.163.595-.332 1.24-.17.647-.326 1.403-.468 2.27a25.127 25.127 0 00-.293 2.85c.938-3.62 2.123-6.205 3.555-7.757 1.433-1.551 3.166-2.327 5.198-2.327 1.355 0 2.417.42 3.186 1.26.768.84 1.153 1.92 1.153 3.239 0 1.086-.242 2.004-.723 2.753-.483.75-1.114 1.125-1.896 1.125-.495 0-.892-.117-1.191-.349-.3-.233-.45-.556-.45-.97 0-.18.026-.388.078-.62.052-.233.091-.4.118-.504.13-.388.195-.75.195-1.086 0-.698-.339-1.047-1.016-1.047-.522 0-1.03.265-1.524.795-.496.53-.893 1.24-1.192 2.133-.3.892-.45 1.855-.45 2.89 0 1.395.326 2.514.977 3.354.651.84 1.589 1.26 2.814 1.26.964 0 1.823-.316 2.58-.95.755-.633 1.797-1.738 3.126-3.316.313-.361.664-.543 1.055-.543.338 0 .605.156.801.466.196.31.293.737.293 1.28 0 1.034-.248 1.836-.742 2.404-1.172 1.397-2.345 2.528-3.517 3.394-1.173.866-2.501 1.3-3.987 1.3-1.224 0-2.338-.265-3.34-.796-1.004-.53-1.818-1.169-2.443-1.92-.626-.75-1.03-1.474-1.212-2.171-.052.207-.248.93-.586 2.171-.287 1.035-.62 1.745-.996 2.133-.378.388-.958.582-1.74.582-.991 0-1.688-.517-2.091-1.551z" fill="#404040"/><path d="M112.92 27.19c.195.323.293.73.293 1.221 0 .595-.091 1.06-.274 1.396-.182.337-.468.635-.859.893l-7.504 5.003c-.99 5.352-2.286 9.56-3.889 12.623-1.602 3.065-3.64 4.596-6.115 4.596-1.329 0-2.41-.407-3.244-1.222-.834-.814-1.25-1.88-1.25-3.2 0-1.215.279-2.456.84-3.722.56-1.268 1.602-2.722 3.126-4.363 1.524-1.643 3.68-3.523 6.468-5.644l.117-.892c.182-.956.39-2.327.625-4.111-.521 1.862-1.25 3.277-2.188 4.247-.938.97-1.93 1.455-2.97 1.455-1.172 0-2.13-.537-2.873-1.61-.742-1.072-1.114-2.411-1.114-4.014 0-1.94.13-3.717.391-5.333.26-1.615.69-3.329 1.29-5.139.26-.775.625-1.331 1.094-1.667.47-.336 1.211-.504 2.228-.504.572 0 .97.09 1.191.27.222.182.332.454.332.816 0 .207-.143.905-.43 2.094-.26.957-.468 1.823-.624 2.599-.21 1.06-.391 2.075-.547 3.044-.157.97-.235 1.765-.235 2.385 0 .983.274 1.474.821 1.474.39 0 .879-.388 1.465-1.164.587-.775 1.212-1.951 1.876-3.529.664-1.577 1.31-3.516 1.935-5.817.208-.776.527-1.332.957-1.668.43-.336 1.075-.504 1.934-.504.6 0 1.017.078 1.251.233.235.155.352.414.352.776 0 .646-.339 2.87-1.016 6.67l-1.016 6.245c2.006-1.5 3.96-2.87 5.861-4.111.339-.207.639-.31.9-.31.338-.001.606.16.801.483zM97.19 46.91c.807-1.5 1.615-3.994 2.424-7.485-2.008 1.68-3.46 3.212-4.358 4.596-.9 1.383-1.349 2.592-1.349 3.626 0 .44.085.801.254 1.086.17.285.45.427.84.427.651 0 1.38-.75 2.19-2.25z" fill="#404040"/><path d="M112.333 33.317c-1.42-1.435-2.13-3.328-2.13-5.681 0-2.095.417-3.93 1.251-5.508.833-1.577 1.915-2.792 3.243-3.645 1.329-.854 2.723-1.28 4.182-1.28 1.433 0 2.547.42 3.341 1.26.795.84 1.192 1.92 1.192 3.239 0 1.086-.241 2.004-.723 2.753-.482.75-1.113 1.125-1.896 1.125-.495 0-.892-.117-1.191-.349-.3-.233-.45-.556-.45-.97 0-.18.026-.388.079-.62.051-.233.09-.4.117-.504.13-.388.195-.75.195-1.086 0-.336-.084-.595-.253-.776-.17-.18-.411-.271-.724-.271-.599 0-1.159.265-1.68.795-.522.53-.938 1.248-1.251 2.152-.312.906-.469 1.9-.469 2.987 0 3 1.316 4.498 3.948 4.498 1.067 0 2.22-.355 3.458-1.066 1.237-.71 2.456-1.777 3.654-3.2.313-.361.664-.543 1.055-.543.339 0 .606.156.801.466.196.31.294.737.294 1.28 0 .982-.248 1.784-.743 2.404a12.663 12.663 0 01-4.396 3.471c-1.707.815-3.355 1.223-4.944 1.223-2.554-.001-4.54-.72-5.96-2.154z" fill="#404040"/><path d="M62.565 1.828a52.669 52.669 0 00-.975 1.44c-.024.047-.809-.307-1.737-.756-.928-.472-1.784-.85-1.903-.85-.333 0-.333 6.847 0 8.57.428 2.22 1.499 4.297 2.64 5.124 1.095.779 1.642.873 2.094.354.38-.449 1.523-.449 1.903 0 .429.52 1 .425 2.046-.307 2.118-1.535 2.95-4.297 2.95-9.916V1.64l-.523.165c-.31.07-1.166.472-1.903.826l-1.356.685-.976-1.417C64.302 1.12 63.778.482 63.66.482c-.096 0-.595.614-1.095 1.346z" fill="#F16C7D"/></g><defs><clipPath id="clip0"><path fill="#fff" d="M0 0h131.087v53H0z"/></clipPath></defs></svg>