<svg width="37" height="37" fill="none" xmlns="http://www.w3.org/2000/svg"><g clip-path="url(#clip0)"><path d="M36.591 7.93c.347.425.481.978.371 1.515l-2.541 12.334a1.822 1.822 0 01-1.779 1.45H10.175l.535 2.596h21.763a.908.908 0 110 1.817H10.71c-.859 0-1.606-.61-1.78-1.45L4.534 4.854.547 3.123a.907.907 0 11.723-1.666l3.988 1.73a1.82 1.82 0 011.056 1.3l.571 2.775h28.298a1.81 1.81 0 011.408.668zm-3.949 13.482L35.183 9.08H7.259L9.8 21.412h22.842z" fill="#404040"/><path d="M35.183 9.079l-2.541 12.334H9.8L7.26 9.079h27.923zm-6.545 3.808a.908.908 0 00-.909-.909H14.711a.908.908 0 100 1.817H27.73a.908.908 0 00.909-.908zm-.709 4.717a.908.908 0 00-.908-.908H15.42a.908.908 0 100 1.817h11.6a.908.908 0 00.91-.909z" fill="#F16C7D"/><path d="M26.928 29.11a3.257 3.257 0 013.254 3.255 3.257 3.257 0 01-3.254 3.254 3.258 3.258 0 01-3.254-3.254 3.258 3.258 0 013.254-3.255zm1.437 3.255c0-.793-.644-1.438-1.437-1.438-.792 0-1.437.645-1.437 1.438 0 .792.645 1.437 1.437 1.437.793 0 1.437-.645 1.437-1.437zM27.73 11.978a.908.908 0 110 1.817H14.71a.908.908 0 110-1.817H27.73z" fill="#404040"/><path d="M26.928 30.927a1.438 1.438 0 010 2.874 1.44 1.44 0 01-1.437-1.436 1.44 1.44 0 011.437-1.438z" fill="#F16C7D"/><path d="M27.02 16.696a.908.908 0 110 1.817h-11.6a.908.908 0 110-1.817h11.6zM15.514 29.11a3.258 3.258 0 013.255 3.255 3.258 3.258 0 01-3.255 3.254 3.258 3.258 0 01-3.254-3.254 3.258 3.258 0 013.254-3.255zm1.438 3.255a1.44 1.44 0 00-1.438-1.438 1.44 1.44 0 00-1.437 1.438c0 .792.645 1.437 1.437 1.437a1.44 1.44 0 001.438-1.437z" fill="#404040"/><path d="M15.514 30.927a1.44 1.44 0 011.437 1.438c0 .792-.645 1.437-1.437 1.437a1.44 1.44 0 01-1.437-1.437 1.44 1.44 0 011.437-1.438z" fill="#F16C7D"/></g><defs><clipPath id="clip0"><path fill="#fff" d="M0 0h37v37H0z"/></clipPath></defs></svg>