<svg width="1440" height="54" xmlns="http://www.w3.org/2000/svg"><path d="M1244.21 54c-51.86 0-78.27-9.867-101.57-18.573-21.04-7.862-37.66-14.072-73.18-14.072-35.52 0-52.14 6.21-73.184 14.07C972.976 44.133 946.564 54 894.708 54c-51.855 0-78.263-9.867-101.567-18.575-21.04-7.86-37.658-14.07-73.176-14.07-35.514 0-52.133 6.21-73.173 14.07C623.492 44.133 597.081 54 545.225 54c-51.849 0-78.253-9.867-101.553-18.575-21.037-7.86-37.655-14.07-73.166-14.07-35.514 0-52.133 6.21-73.173 14.07C274.033 44.133 247.622 54 195.77 54c-51.856 0-78.268-9.867-101.571-18.575-21.04-7.86-37.662-14.07-73.176-14.07-7.998 0-14.954-1.825-18.508-4.51C.911 15.635 0 14.248 0 12.774c0-4.741 9.415-8.582 21.023-8.582 51.852 0 78.263 9.868 101.567 18.574 21.04 7.862 37.662 14.072 73.18 14.072 35.514 0 52.132-6.21 73.172-14.072 23.3-8.706 49.712-18.574 101.564-18.574 51.849 0 78.257 9.868 101.557 18.575 21.036 7.86 37.651 14.071 73.162 14.071 35.518 0 52.136-6.21 73.176-14.072 23.3-8.706 49.712-18.574 101.564-18.574 51.856 0 78.264 9.868 101.567 18.574 21.04 7.862 37.662 14.072 73.176 14.072 35.522 0 52.14-6.21 73.18-14.072C991.192 14.059 1017.6 4.19 1069.46 4.19c51.85 0 78.27 9.868 101.57 18.574 21.04 7.862 37.66 14.072 73.18 14.072 35.52 0 52.14-6.21 73.19-14.072 23.3-8.706 49.72-18.574 101.58-18.574 11.61 0 21.02 3.84 21.02 8.582 0 1.474-.91 2.86-2.52 4.073-3.55 2.684-10.5 4.509-18.5 4.509-35.53 0-52.15 6.21-73.2 14.072C1322.48 44.133 1296.07 54 1244.21 54z"/><path d="M293 18.887c0 10.37-43.652 18.777-97.5 18.777S98 29.257 98 18.887c0-10.37 43.922-17.668 97.77-17.668 2.252 0 4.486.013 6.699.038C253.17 1.835 293 8.95 293 18.887zM644 18.887c0 10.37-43.652 18.777-97.5 18.777S449 29.257 449 18.887C449 8.517 491.377 3.2 545.225 3.2c3.064 0 6.1.017 9.099.051C604.04 3.822 644 9.106 644 18.887zM995 18.887c0 10.37-43.652 18.777-97.5 18.777S800 29.257 800 18.887c0-9.783 38.845-15.082 88.451-15.65 2.979-.035 5.998-.052 9.049-.052 53.848 0 97.5 5.331 97.5 15.702zM1343 18.887c0 10.37-43.65 18.777-97.5 18.777s-97.5-8.407-97.5-18.777c0-9.937 38.89-17.052 89.52-17.63 2.21-.025 4.44-.038 6.69-.038 53.84 0 98.79 7.297 98.79 17.668zM2.515 16.846H0v4.509h21.023c-7.998 0-14.954-1.825-18.508-4.51z"/><path fill-rule="evenodd" clip-rule="evenodd" d="M719.965 4.191l-165.641-.939-351.855-1.995L0 .11v12.664c0 1.474.91 2.86 2.515 4.073H1440V.109l-202.48 1.148-349.069 1.98-168.486.954z" fill="#fff"/><path d="M0 14v2.846h2.515C.911 15.634 0 14.246 0 12.773V14zM1437.48 16.846c-3.55 2.684-10.5 4.509-18.5 4.509H1440v-4.51h-2.52zM195.77 1.22c2.252 0 4.486.012 6.699.037l342.756 1.944c3.064 0 6.1.017 9.099.051l165.641.94 168.486-.956c2.979-.034 5.998-.051 9.049-.051l340.02-1.928c2.21-.025 4.44-.038 6.69-.038L1440 .11H0l195.77 1.11z"/></svg>