<svg width="82" height="77" fill="none" xmlns="http://www.w3.org/2000/svg"><path d="M4.72 69.3c-.296 0-.886-.308-1.18-.616-.59-.616-.59-1.54.294-2.156l8.85-8.008c.59-.616 1.474-.616 2.064.308.59.616.59 1.54-.295 2.156l-8.849 8.008c-.295 0-.59.308-.885.308z" fill="#F16C7D"/><path d="M13.568 77c-.295 0-.59 0-.885-.308l-8.849-8.008c-.59-.616-.59-1.54-.295-2.156.59-.616 1.475-.616 2.065-.308l8.85 8.008c.589.616.589 1.54.294 2.156-.59.616-.885.616-1.18.616zm63.713-7.7c-.296 0-.59 0-.885-.308l-8.85-8.008c-.59-.616-.59-1.54-.294-2.156.59-.616 1.475-.616 2.064-.308l8.85 8.008c.59.616.59 1.54.294 2.156-.295.308-.59.616-1.18.616z" fill="#F16C7D"/><path d="M68.432 77c-.295 0-.885-.308-1.18-.616-.59-.616-.59-1.54.295-2.156l8.849-8.008c.59-.616 1.475-.616 2.065.308.59.616.59 1.54-.295 2.156l-8.85 8.008c0 .308-.294.308-.884.308z" fill="#F16C7D"/><path d="M75.806 68.992H7.669c-.885 0-1.475-.616-1.475-1.54s.59-1.54 1.475-1.54h68.137c.885 0 1.475.616 1.475 1.54s-.59 1.54-1.475 1.54zM28.612 52.36c-.885 0-1.475-.616-1.475-1.54v-5.236c.885-7.392 7.079-12.936 14.158-12.936 7.67 0 14.158 6.468 14.158 14.784v.924c0 1.232 0 2.156-.59 3.08-.59.616-1.77.924-2.95.924H36.872c-.885 0-1.475-.616-1.475-1.54s.59-1.54 1.475-1.54h15.633v-1.54c0-6.468-5.015-11.704-11.209-11.704-5.604 0-10.324 4.004-11.209 9.856v4.928c-.294.924-.884 1.54-1.474 1.54z" fill="#F16C7D"/><path d="M72.561 52.36c-.59 0-.885-.308-1.18-.616-.295-.616-.295-1.54.59-2.156 2.655-1.54 5.015-4.004 6.784-6.776-3.244-4.928-8.259-8.008-13.863-8.624l-2.655-.308 1.475-2.156c3.245-4.62 4.72-10.472 3.54-16.324-5.9-.924-11.504.616-15.928 4.312l-2.065 1.848-.295-2.772C48.079 12.936 45.13 7.7 40.41 4.62a20.136 20.136 0 00-8.259 14.168l-.295 2.772-2.065-1.54c-4.424-3.388-10.323-4.928-15.633-3.696-1.18 5.852.295 11.704 3.835 16.324l1.77 2.156-2.655.308c-5.604.924-10.619 4.004-13.568 8.932 1.18 2.156 2.95 4.004 5.014 5.236.59.616.885 1.54.295 2.156-.59.616-1.475.924-2.065.308C4.13 49.896 2.064 47.432.59 44.66L0 43.736l.295-.924c2.95-5.544 7.964-9.24 13.863-10.78-3.244-5.236-4.424-11.704-2.95-17.864l.296-.924.885-.308c5.604-1.54 11.798-.616 17.107 2.464 1.18-6.16 4.72-11.396 10.03-14.784L40.41 0 41 1.54c5.31 3.08 8.849 8.316 10.324 14.476 5.014-3.388 11.208-4.62 17.108-3.08l.885.308.295.924c1.474 5.852.59 12.32-2.36 17.864 5.9 1.232 11.208 4.928 14.158 10.472l.59.924-.59.924c-2.065 3.388-4.72 6.468-8.259 8.624-.295-.616-.295-.616-.59-.616z" fill="#F16C7D"/></svg>