<svg width="56" height="77" fill="none" xmlns="http://www.w3.org/2000/svg"><path d="M29.918 75.712c-.767 0-1.279-.515-1.279-1.288V51.762c0-.772.512-1.287 1.279-1.287.767 0 1.278.515 1.278 1.287v22.662c0 .773-.511 1.288-1.278 1.288z" fill="#F16C7D"/><path d="M27.36 67.986c-3.835 0-7.415-1.545-9.972-4.378-3.068-3.347-4.603-7.725-4.091-12.36v-1.03h1.023c4.602-.516 8.95 1.03 12.274 4.12 3.324 3.347 4.858 7.983 4.09 12.36l-.255 1.03-1.023.258h-2.045zM15.599 52.535c0 3.348 1.023 6.696 3.58 9.27 2.302 2.576 5.881 3.864 9.206 3.606.255-3.348-1.023-6.953-3.58-9.27-2.557-2.319-5.882-3.606-9.206-3.606zM53.698 77H14.065c-.767 0-1.279-.515-1.279-1.288 0-.772.512-1.288 1.279-1.288h39.379c.767 0 1.279.516 1.279 1.288 0 .773-.256 1.288-1.023 1.288zM8.184 77H1.279C.51 77 0 76.485 0 75.712c0-.772.511-1.288 1.279-1.288h6.904c.767 0 1.278.516 1.278 1.288 0 .773-.767 1.288-1.278 1.288zm22.246-24.465l-.767-.515c-3.068-1.803-5.37-4.893-6.648-8.498-3.069 1.802-6.904 2.317-10.484 1.545l-.767-.258-.256-.773c-.767-3.605-.512-7.468 1.278-10.558-3.324-1.03-6.392-3.348-8.438-6.438l-.511-.773.511-.772c2.046-2.576 4.858-4.893 8.438-5.923-1.79-3.348-2.301-7.211-1.79-10.559l.256-.772.767-.258c3.58-.773 7.416-.515 10.484 1.288 1.023-3.348 3.325-6.438 6.393-8.499L29.662 0l.767.515c3.069 1.802 5.37 4.893 6.649 8.24 3.068-1.802 6.904-2.317 10.484-1.545l.767.258v.773c.767 3.605.511 7.468-1.279 10.558 3.324 1.03 6.393 3.348 8.439 6.438l.511.773-.511.772c-1.79 3.09-4.859 5.408-8.183 6.696 1.79 3.09 2.301 6.953 1.534 10.558l-.256.773-.767.258c-3.58.772-7.415.515-10.484-1.288-1.023 3.348-3.324 6.438-6.392 8.498l-.512.258zm-5.625-12.876l.511 1.802c.767 3.09 2.557 6.18 5.114 7.984 2.557-2.06 4.347-4.893 4.859-8.241l.255-1.803 1.535 1.03c2.812 1.803 6.137 2.575 9.205 1.803.511-3.348-.256-6.696-2.301-9.271l-.767-1.288 1.79-.515c3.068-.772 5.88-2.575 7.926-5.15-2.045-2.576-4.858-4.378-8.182-4.893l-1.79-.515 1.023-1.545c1.79-2.833 2.557-6.181 1.79-9.271-3.325-.515-6.649.257-9.206 2.317l-1.534 1.03-.511-1.802c-.768-3.09-2.558-6.18-5.115-7.983-2.557 2.06-4.347 4.893-4.858 8.24l-.256 1.803-1.534-1.288c-2.813-1.802-6.137-2.575-9.205-1.802-.512 3.348.255 6.695 2.3 9.27l1.024 1.546-1.79.515c-3.069.772-6.137 2.575-7.927 5.15 2.045 2.576 4.858 4.378 8.182 4.893l1.79.258-1.022 1.545c-1.79 2.833-2.557 6.18-1.79 9.27 3.324.516 6.648-.257 9.205-2.317l1.279-.772z" fill="#F16C7D"/><path d="M29.918 35.023c-4.603 0-8.439-3.863-8.439-8.498 0-4.636 3.836-8.498 8.439-8.498 4.602 0 8.438 3.862 8.438 8.498 0 4.635-3.58 8.498-8.438 8.498zm0-14.679c-3.325 0-5.882 2.575-5.882 5.923s2.557 5.923 5.882 5.923c3.324 0 5.88-2.575 5.88-5.923s-2.556-5.923-5.88-5.923z" fill="#F16C7D"/></svg>