<svg width="59" height="77" fill="none" xmlns="http://www.w3.org/2000/svg"><path d="M17.578 61.259c-2.1 0-4.46-.787-7.346-3.148-5.51-4.46-7.87-16.791-7.87-17.316l-.263-1.574h1.574c.525 0 13.118.263 18.365 4.723 2.623 2.36 4.197 4.722 4.46 7.345.262 2.1-.525 4.46-2.362 6.56-1.311 1.573-3.672 3.41-6.558 3.41zM5.248 42.107c.786 3.41 2.885 11.019 6.558 13.905 4.197 3.41 7.346 3.41 10.232 0 1.311-1.575 1.836-2.886 1.574-4.46-.263-1.837-1.312-3.673-3.41-5.51-3.411-2.886-11.544-3.673-14.955-3.935zm30.17 23.612h-.525c-1.574 0-3.148-1.05-4.198-2.361-2.623-3.149-2.099-6.822 1.574-9.707 3.673-3.149 12.068-3.411 12.33-3.411h1.575l-.263 1.574c0 .262-1.836 8.395-5.509 11.544-1.836 1.574-3.41 2.36-4.985 2.36zm7.345-12.856c-2.886.263-7.083 1.05-9.182 2.624-2.361 2.099-2.886 3.935-1.05 6.034.788.787 1.575 1.312 2.362 1.574 1.05 0 2.361-.525 3.41-1.574 2.1-1.836 3.673-5.772 4.46-8.658z" fill="#F16C7D"/><path d="M25.973 76.475c-.788 0-1.312-.787-1.312-1.574.524-4.985-.263-10.232-2.624-14.692-2.623-4.197-5.771-8.133-9.444-11.806a1.268 1.268 0 010-1.836 1.268 1.268 0 011.836 0c3.673 3.935 6.821 7.87 9.707 12.33 2.623 4.985 3.673 10.757 2.886 16.266.262.787-.262 1.312-1.05 1.312z" fill="#F16C7D"/><path d="M26.235 74.376s-.262 0 0 0c-1.05-.262-1.312-.787-1.312-1.574.525-2.886 1.574-5.51 3.41-7.608 2.624-2.886 5.248-5.51 8.134-7.608.525-.525 1.312-.262 1.836.262.525.525.263 1.312-.262 1.837-2.886 2.098-5.247 4.722-7.608 7.345-1.312 1.837-2.361 4.198-2.886 6.56-.262.262-.787.786-1.312.786z" fill="#F16C7D"/><path d="M52.47 77H10.756c-.787 0-1.311-.525-1.311-1.312s.524-1.312 1.311-1.312h41.452c.787 0 1.312.525 1.312 1.312S52.995 77 52.47 77zM5.51 77H1.311C.525 77 0 76.475 0 75.688s.525-1.312 1.312-1.312h4.197c.787 0 1.312.525 1.312 1.312S6.296 77 5.51 77zm33.58-49.06c-4.46 0-7.87-3.673-7.87-7.87 0-4.46 3.673-7.871 7.87-7.871 4.198 0 7.87 3.673 7.87 7.87 0 4.198-3.672 7.871-7.87 7.871zm0-13.38c-2.886 0-5.247 2.361-5.247 5.247 0 2.886 2.361 5.247 5.247 5.247 2.886 0 5.247-2.36 5.247-5.247 0-2.886-2.36-5.247-5.247-5.247z" fill="#F16C7D"/><path d="M39.09 14.56c-.787 0-1.312-.524-1.312-1.312V5.904c0-.787.525-1.312 1.312-1.312s1.312.525 1.312 1.312v7.346c0 .787-.787 1.311-1.312 1.311z" fill="#F16C7D"/><path d="M38.828 7.214c-.263 0-.787 0-1.05-.262L33.056 2.23a1.268 1.268 0 010-1.837 1.268 1.268 0 011.837 0l4.984 4.46a1.268 1.268 0 010 1.837c-.262.262-.787.524-1.05.524z" fill="#F16C7D"/><path d="M38.828 7.214c-.263 0-.787 0-1.05-.262a1.268 1.268 0 010-1.836L42.502.393a1.268 1.268 0 011.836 0 1.268 1.268 0 010 1.837l-4.46 4.46c-.262.262-.524.524-1.05.524zm-5.51 10.757c-.262 0-.524 0-.524-.263l-6.559-3.672c-.525-.263-.787-1.05-.525-1.837.263-.525 1.05-.787 1.837-.525l6.558 3.673c.525.263.788 1.05.525 1.837-.525.524-.787.787-1.312.787z" fill="#F16C7D"/><path d="M20.463 16.134c-.524 0-1.05-.262-1.312-1.05-.262-.786.263-1.31 1.05-1.573l6.296-1.837c.787-.262 1.312.263 1.574 1.05.263.787-.262 1.312-1.049 1.574l-6.296 1.836c0-.262 0 0-.263 0z" fill="#F16C7D"/><path d="M26.76 14.298c-.525 0-1.05-.262-1.312-1.05l-1.574-6.296c-.262-.787.262-1.312 1.05-1.574.786-.262 1.311.262 1.573 1.05l1.575 6.296c.262.787-.263 1.312-1.05 1.574h-.262zm0 13.905c-.525 0-.787-.263-1.05-.788-.262-.524-.262-1.311.525-1.836l6.559-3.673c.525-.262 1.312-.262 1.836.525.263.524.263 1.311-.524 1.836l-6.56 3.673c-.261.262-.524.262-.786.262z" fill="#F16C7D"/><path d="M25.186 34.499h-.262c-.787-.262-1.05-.787-1.05-1.574l1.574-6.297c.263-.787.787-1.049 1.574-1.049.788.262 1.05.787 1.05 1.574l-1.574 6.297c-.263.787-.787 1.049-1.312 1.049z" fill="#F16C7D"/><path d="M27.022 28.202h-.262l-6.297-1.574c-.787-.262-1.05-.787-1.05-1.574s.788-1.05 1.575-1.05l6.296 1.575c.787.262 1.05.787 1.05 1.574-.263.787-.787 1.05-1.312 1.05zm12.068 7.084c-.787 0-1.312-.525-1.312-1.312v-7.346c0-.787.525-1.311 1.312-1.311s1.312.524 1.312 1.311v7.346c0 .787-.787 1.312-1.312 1.312z" fill="#F16C7D"/><path d="M43.813 39.746c-.263 0-.787 0-1.05-.262l-4.722-4.723a1.268 1.268 0 010-1.836 1.268 1.268 0 011.837 0l4.722 4.722a1.268 1.268 0 010 1.837c-.262.262-.525.262-.787.262z" fill="#F16C7D"/><path d="M34.368 39.746c-.262 0-.787 0-1.05-.262a1.268 1.268 0 010-1.837l4.723-4.722a1.268 1.268 0 011.837 0 1.268 1.268 0 010 1.836l-4.723 4.723c0 .262-.262.262-.787.262zm16.79-11.544c-.262 0-.524 0-.524-.262l-6.297-3.673c-.524-.262-.787-1.05-.524-1.836.262-.525 1.05-.787 1.836-.525l6.297 3.673c.524.262.787 1.05.524 1.837-.524.524-.787.787-1.311.787z" fill="#F16C7D"/><path d="M51.158 28.203c-.525 0-1.05-.263-1.312-1.05s.263-1.312 1.05-1.574l6.296-1.574c.787-.262 1.312.262 1.574 1.05.263.786-.262 1.311-1.05 1.573l-6.296 1.575h-.262z" fill="#F16C7D"/><path d="M52.995 34.499c-.525 0-1.05-.263-1.312-1.05l-1.574-6.296c-.263-.787.262-1.312 1.05-1.574.786-.262 1.311.262 1.573 1.05l1.575 6.296c.262.787-.263 1.312-1.05 1.574h-.262zM44.862 17.97c-.525 0-.787-.263-1.05-.525-.262-.525-.262-1.312.525-1.836l6.034-3.936c.525-.262 1.312-.262 1.837.525.262.525.262 1.312-.525 1.837l-6.296 3.672c-.263 0-.525.263-.525.263z" fill="#F16C7D"/><path d="M51.158 14.036h-.262c-.787-.263-1.05-.787-1.05-1.575l1.575-6.296c.262-.787.787-1.05 1.574-1.05.787.263 1.05.788 1.05 1.575l-1.575 6.296c-.262.787-.787 1.05-1.312 1.05z" fill="#F16C7D"/><path d="M57.455 15.872h-.262l-6.297-1.574c-.787-.262-1.05-.787-1.05-1.574.263-.787.788-1.05 1.575-1.05l6.296 1.575c.787.262 1.05.787 1.05 1.574-.263.524-.787 1.049-1.312 1.049z" fill="#F16C7D"/></svg>