<svg width="97" height="77" fill="none" xmlns="http://www.w3.org/2000/svg"><path d="M49.036 62.808l-1.208-1.51c-.905-1.208-19.023-26.27-19.023-41.067C28.805 9.06 37.864 0 49.036 0 60.21 0 69.268 9.059 69.268 20.23v1.51h-.302c-.906 16.608-18.42 38.65-19.024 39.557l-.906 1.51zm0-60.09c-9.662 0-17.211 7.85-17.211 17.211 0 11.777 13.286 31.706 17.211 37.745 4.228-5.737 17.212-24.459 17.212-37.745v-1.51c-.604-8.757-8.153-15.702-17.212-15.702z" fill="#F16C7D"/><path d="M49.036 31.102c-6.341 0-11.172-5.134-11.172-11.173 0-6.341 5.133-11.172 11.172-11.172 6.04 0 11.173 5.133 11.173 11.172 0 6.341-4.832 11.173-11.173 11.173zm0-19.326a8.119 8.119 0 00-8.153 8.153 8.119 8.119 0 008.153 8.153 8.119 8.119 0 008.153-8.153 8.119 8.119 0 00-8.153-8.153zM95.236 77h-92.4c-.906 0-1.51-.604-1.51-1.51s.604-1.51 1.51-1.51h92.4c.906 0 1.51.604 1.51 1.51S96.142 77 95.236 77zM60.812 63.41h-23.25c-.906 0-1.51-.603-1.51-1.51 0-.905.604-1.51 1.51-1.51h23.25c.906 0 1.51.605 1.51 1.51 0 .907-.906 1.51-1.51 1.51z" fill="#F16C7D"/><path d="M1.628 77c-.302 0-.604 0-.906-.302-.604-.302-.905-1.51-.604-2.114l13.89-22.647c.303-.604 1.51-.906 2.114-.604.604.302.906 1.51.604 2.114L2.836 76.094c0 .604-.604.906-1.208.906zm93.608 0c-.604 0-.906-.302-1.208-.604L79.232 53.749c-.604-.604-.302-1.51.302-2.114.604-.604 1.51-.302 2.114.302l14.796 22.647c.604.604.302 1.51-.302 2.114-.302.302-.604.302-.906.302z" fill="#F16C7D"/><path d="M32.428 54.353H16.424c-.906 0-1.51-.604-1.51-1.51s.604-1.51 1.51-1.51h16.004c.906 0 1.51.604 1.51 1.51s-.604 1.51-1.51 1.51zm47.408 0H63.832c-.906 0-1.51-.604-1.51-1.51s.604-1.51 1.51-1.51h16.004c.906 0 1.51.604 1.51 1.51s-.604 1.51-1.51 1.51z" fill="#F16C7D"/></svg>