<svg width="69" height="77" fill="none" xmlns="http://www.w3.org/2000/svg"><path d="M5.647 77H1.283C.513 77 0 76.486 0 75.716s.513-1.283 1.283-1.283H5.39c.77 0 1.283.513 1.283 1.283 0 .77-.513 1.284-1.026 1.284zm17.196-46.457c-.256 0-.77 0-1.026-.257l-5.39-5.133a1.24 1.24 0 010-1.797 1.24 1.24 0 011.796 0l5.39 5.134a1.24 1.24 0 010 1.796c-.256 0-.513.257-.77.257zm0 14.117c-.256 0-.77 0-1.026-.257l-7.7-7.7a1.24 1.24 0 010-1.797 1.24 1.24 0 011.796 0l7.7 7.7a1.24 1.24 0 010 1.797c-.256.257-.513.257-.77.257zm0-8.214c-.256 0-.77 0-1.026-.256a1.24 1.24 0 010-1.797l7.7-7.7a1.24 1.24 0 011.796 0 1.24 1.24 0 010 1.797l-7.7 7.7c-.256 0-.513.256-.77.256zm0 13.347c-.256 0-.77 0-1.026-.257a1.24 1.24 0 010-1.796l8.213-8.214a1.24 1.24 0 011.797 0 1.24 1.24 0 010 1.797l-8.214 8.213c-.256 0-.513.257-.77.257z" fill="#F16C7D"/><path d="M22.843 62.113l-.77-.513C11.55 55.183 5.133 43.376 5.39 31.056 5.39 11.55 21.56 1.026 22.073.513l.77-.513.77.513c.514.77 16.684 11.293 16.684 30.543C40.04 43.376 33.88 54.67 23.614 61.6l-.77.513zm0-58.777c-3.08 2.31-14.886 11.807-14.886 27.72-.257 11.294 5.39 21.817 14.886 27.72 8.984-6.16 14.63-16.426 14.887-27.72 0-15.656-12.063-25.41-14.886-27.72zM44.66 77H11.55c-.77 0-1.283-.514-1.283-1.284s.513-1.283 1.283-1.283h33.11c.77 0 1.284.513 1.284 1.283 0 .77-.514 1.284-1.284 1.284zm.77-61.344c-.257 0-.513 0-.77-.256-.513-.514-.513-1.284-.256-1.797l10.78-12.577C55.697.513 56.467.513 56.98.77c.514.513.77 1.283.257 1.796l-10.78 12.577c-.257.513-.77.513-1.027.513z" fill="#F16C7D"/><path d="M66.99 15.656c-.257 0-.77-.256-1.027-.513L55.183 2.566c-.256-.513-.256-1.283.257-1.796.513-.514 1.283-.514 1.797.256l10.78 12.577c.513.513.513 1.283-.257 1.797 0 .256-.257.256-.77.256z" fill="#F16C7D"/><path d="M56.21 77c-.77 0-1.284-.514-1.284-1.284V4.876c0-.77.514-1.283 1.284-1.283s1.283.513 1.283 1.283v70.84c0 .77-.513 1.284-1.283 1.284zm-33.367-.257c-.77 0-1.283-.513-1.283-1.283V15.4c0-.77.513-1.284 1.283-1.284.77 0 1.283.514 1.283 1.284v60.06c0 .513-.77 1.283-1.283 1.283z" fill="#F16C7D"/></svg>