<?xml version="1.0" standalone="no"?>
<!DOCTYPE svg PUBLIC "-//W3C//DTD SVG 20010904//EN"
 "http://www.w3.org/TR/2001/REC-SVG-20010904/DTD/svg10.dtd">
<svg version="1.0" xmlns="http://www.w3.org/2000/svg"
 width="1088.000000pt" height="1088.000000pt" viewBox="0 0 1088.000000 1088.000000"
 preserveAspectRatio="xMidYMid meet">
<metadata>
Created by potrace 1.11, written by Peter Selinger 2001-2013
</metadata>
<g transform="translate(0.000000,1088.000000) scale(0.100000,-0.100000)"
fill="#000000" stroke="none">
<path d="M5459 10507 c-35 -35 -75 -77 -89 -94 -14 -17 -40 -48 -57 -69 -80
-96 -147 -181 -175 -223 -18 -25 -34 -48 -38 -51 -7 -6 -78 -104 -135 -185
-22 -32 -46 -63 -52 -71 -7 -7 -13 -17 -13 -22 0 -6 -3 -12 -7 -14 -5 -1 -21
-23 -38 -48 -16 -25 -33 -47 -36 -50 -3 -3 -9 -12 -12 -20 -4 -8 -23 -35 -42
-60 -20 -25 -38 -53 -41 -62 -4 -10 -10 -18 -14 -18 -5 0 -11 -8 -14 -18 -4
-10 -14 -27 -24 -38 -16 -18 -42 -55 -67 -96 -20 -33 -169 -253 -175 -258 -3
-3 -21 -30 -40 -60 -19 -30 -38 -59 -43 -65 -4 -5 -33 -48 -63 -95 -30 -47
-62 -90 -70 -96 -15 -12 -116 21 -239 77 -27 13 -54 23 -60 23 -5 1 -12 3 -15
6 -9 10 -94 45 -102 42 -5 -1 -8 2 -8 6 0 4 -17 14 -37 22 -21 7 -90 37 -153
67 -63 30 -144 69 -180 85 -36 17 -138 66 -228 110 -90 43 -167 78 -172 78 -5
0 -10 4 -12 8 -2 6 -191 103 -208 107 -3 1 -75 35 -160 76 -162 79 -596 271
-620 275 -3 0 -18 6 -34 13 -16 6 -46 15 -68 20 -34 8 -40 6 -53 -12 -20 -33
-41 -114 -50 -202 -4 -27 -8 -63 -11 -80 -12 -70 -30 -277 -39 -455 -2 -47 -7
-132 -10 -190 -16 -314 -24 -741 -24 -1375 -1 -570 4 -984 12 -991 3 -3 1 -18
-3 -34 -4 -16 -6 -31 -3 -34 3 -2 7 -76 9 -163 5 -236 27 -769 39 -938 2 -27
6 -97 10 -155 3 -58 8 -121 10 -140 2 -19 6 -68 10 -109 3 -41 8 -97 11 -125
3 -28 7 -69 9 -91 5 -56 14 -133 21 -175 3 -19 7 -48 9 -65 3 -30 28 -176 44
-250 22 -103 72 -319 76 -325 2 -3 7 -20 10 -36 10 -47 10 -48 18 -61 5 -7 6
-13 2 -13 -3 0 1 -15 9 -34 8 -19 12 -37 9 -40 -3 -2 -1 -11 3 -18 5 -7 10
-19 11 -25 4 -19 9 -36 15 -53 3 -8 14 -44 24 -80 9 -36 20 -69 23 -75 3 -5 6
-12 6 -15 1 -4 19 -62 40 -130 1 -3 4 -12 8 -20 3 -8 17 -46 31 -85 36 -104
82 -226 97 -260 7 -16 13 -32 14 -35 1 -3 9 -22 18 -44 9 -21 17 -40 17 -43 0
-2 9 -25 21 -51 12 -26 28 -63 36 -82 46 -105 261 -531 280 -555 5 -5 14 -21
21 -35 7 -14 18 -34 25 -45 75 -124 100 -163 155 -245 63 -92 165 -232 186
-257 6 -7 16 -18 21 -25 71 -90 108 -130 210 -233 148 -149 177 -174 290 -255
50 -36 92 -68 93 -72 2 -5 8 -8 12 -8 5 0 28 -13 52 -29 141 -93 205 -131 303
-181 91 -46 193 -92 215 -95 3 -1 30 -9 61 -18 80 -24 191 -34 254 -24 121 21
199 63 304 166 100 97 148 134 211 163 47 21 187 68 198 67 4 -1 9 0 12 1 19
7 159 22 215 22 52 1 212 -15 232 -23 13 -5 23 -7 23 -4 0 4 90 -20 125 -34
103 -40 164 -82 262 -178 162 -160 272 -202 468 -180 64 7 146 27 163 40 6 5
12 7 12 4 0 -6 30 5 105 38 17 7 45 19 63 26 17 8 32 17 32 21 0 5 3 7 8 6 9
-3 157 77 199 108 17 13 43 28 57 34 14 5 26 14 26 20 0 5 5 10 11 10 10 0
197 125 209 139 3 4 25 22 50 41 57 45 89 70 112 92 10 10 21 18 24 18 14 0
342 338 404 416 72 91 155 204 205 279 33 50 64 93 68 96 5 3 8 8 6 10 -1 2
10 23 25 47 38 60 90 154 146 262 43 82 112 236 164 363 61 148 179 487 169
487 -3 0 -1 6 5 13 8 9 22 62 27 97 0 3 3 10 7 16 14 21 129 504 154 644 2 14
9 48 14 75 13 65 16 81 25 135 4 25 9 54 12 65 2 11 5 34 7 50 4 28 8 51 22
143 3 20 8 51 10 67 8 65 14 111 18 140 12 82 16 115 22 170 12 110 13 120 14
120 0 0 3 21 5 46 2 25 7 70 10 100 3 30 8 79 10 109 2 30 6 78 9 105 6 68 18
209 21 270 2 28 6 86 9 130 13 174 29 543 30 677 1 53 3 95 6 93 3 -2 6 92 8
208 2 200 5 3073 3 3146 -1 27 -4 32 -18 26 -10 -4 -25 -8 -33 -10 -8 -2 -16
-4 -17 -5 -2 -2 -6 -3 -10 -5 -5 -1 -15 -4 -23 -8 -8 -3 -37 -12 -65 -20 -140
-41 -351 -110 -360 -118 -5 -5 -15 -9 -23 -9 -12 0 -43 -13 -137 -55 -29 -13
-84 -36 -95 -40 -14 -5 -62 -26 -125 -56 -38 -18 -72 -33 -75 -34 -15 -5 -226
-104 -332 -155 -31 -16 -59 -26 -62 -22 -3 3 -6 0 -6 -6 0 -7 -9 -12 -20 -12
-11 0 -20 -4 -20 -10 0 -5 -12 -13 -27 -16 -16 -4 -36 -14 -47 -23 -10 -9 -20
-15 -22 -14 -7 5 -84 -32 -84 -39 0 -5 -5 -8 -12 -8 -13 0 -265 -126 -285
-142 -7 -6 -13 -8 -13 -4 0 3 -19 -6 -42 -21 -24 -14 -44 -26 -45 -25 -4 2
-37 -11 -48 -20 -10 -8 -337 -173 -361 -182 -13 -5 -104 114 -104 134 0 6 -5
10 -10 10 -6 0 -14 10 -19 23 -5 12 -17 31 -26 42 -19 23 -219 312 -356 515
-35 52 -71 103 -80 113 -9 9 -22 30 -30 45 -8 15 -16 29 -20 32 -3 3 -25 34
-50 70 -24 36 -47 67 -51 68 -5 2 -8 8 -8 13 0 8 -96 147 -111 159 -3 3 -20
27 -39 54 -18 27 -40 57 -49 66 -9 9 -32 38 -50 66 -19 27 -43 56 -53 65 -10
9 -18 20 -18 23 0 4 -6 13 -12 20 -7 8 -31 35 -53 62 -109 131 -211 224 -246
224 -9 0 -45 -28 -80 -63z"/>
</g>
</svg>
